%TF.GenerationSoftware,KiCad,Pcbnew,(6.0.5)*%
%TF.CreationDate,2022-07-17T15:41:33-06:00*%
%TF.ProjectId,fet_stress_test,6665745f-7374-4726-9573-735f74657374,rev?*%
%TF.SameCoordinates,Original*%
%TF.FileFunction,Legend,Top*%
%TF.FilePolarity,Positive*%
%FSLAX46Y46*%
G04 Gerber Fmt 4.6, Leading zero omitted, Abs format (unit mm)*
G04 Created by KiCad (PCBNEW (6.0.5)) date 2022-07-17 15:41:33*
%MOMM*%
%LPD*%
G01*
G04 APERTURE LIST*
G04 Aperture macros list*
%AMRoundRect*
0 Rectangle with rounded corners*
0 $1 Rounding radius*
0 $2 $3 $4 $5 $6 $7 $8 $9 X,Y pos of 4 corners*
0 Add a 4 corners polygon primitive as box body*
4,1,4,$2,$3,$4,$5,$6,$7,$8,$9,$2,$3,0*
0 Add four circle primitives for the rounded corners*
1,1,$1+$1,$2,$3*
1,1,$1+$1,$4,$5*
1,1,$1+$1,$6,$7*
1,1,$1+$1,$8,$9*
0 Add four rect primitives between the rounded corners*
20,1,$1+$1,$2,$3,$4,$5,0*
20,1,$1+$1,$4,$5,$6,$7,0*
20,1,$1+$1,$6,$7,$8,$9,0*
20,1,$1+$1,$8,$9,$2,$3,0*%
G04 Aperture macros list end*
%ADD10C,0.300000*%
%ADD11C,0.200000*%
%ADD12C,0.150000*%
%ADD13C,0.120000*%
%ADD14R,1.200000X0.900000*%
%ADD15R,2.500000X1.800000*%
%ADD16R,1.905000X2.000000*%
%ADD17O,1.905000X2.000000*%
%ADD18RoundRect,0.705882X-4.294118X-2.294118X4.294118X-2.294118X4.294118X2.294118X-4.294118X2.294118X0*%
%ADD19O,3.600000X3.600000*%
%ADD20R,2.500000X4.500000*%
%ADD21O,2.500000X4.500000*%
%ADD22RoundRect,0.237500X-0.237500X0.250000X-0.237500X-0.250000X0.237500X-0.250000X0.237500X0.250000X0*%
%ADD23R,1.800000X1.800000*%
%ADD24C,1.800000*%
%ADD25RoundRect,0.237500X0.237500X-0.250000X0.237500X0.250000X-0.237500X0.250000X-0.237500X-0.250000X0*%
%ADD26RoundRect,0.750000X-6.750000X-6.750000X6.750000X-6.750000X6.750000X6.750000X-6.750000X6.750000X0*%
%ADD27C,1.500000*%
%ADD28RoundRect,0.150000X-0.587500X-0.150000X0.587500X-0.150000X0.587500X0.150000X-0.587500X0.150000X0*%
G04 APERTURE END LIST*
D10*
X134714285Y-76421428D02*
X134785714Y-76350000D01*
X134928571Y-76278571D01*
X135285714Y-76278571D01*
X135428571Y-76350000D01*
X135500000Y-76421428D01*
X135571428Y-76564285D01*
X135571428Y-76707142D01*
X135500000Y-76921428D01*
X134642857Y-77778571D01*
X135571428Y-77778571D01*
X136857142Y-76778571D02*
X136857142Y-77778571D01*
X136500000Y-76207142D02*
X136142857Y-77278571D01*
X137071428Y-77278571D01*
X137428571Y-76278571D02*
X137928571Y-77778571D01*
X138428571Y-76278571D01*
X106557142Y-76350000D02*
X106414285Y-76278571D01*
X106200000Y-76278571D01*
X105985714Y-76350000D01*
X105842857Y-76492857D01*
X105771428Y-76635714D01*
X105700000Y-76921428D01*
X105700000Y-77135714D01*
X105771428Y-77421428D01*
X105842857Y-77564285D01*
X105985714Y-77707142D01*
X106200000Y-77778571D01*
X106342857Y-77778571D01*
X106557142Y-77707142D01*
X106628571Y-77635714D01*
X106628571Y-77135714D01*
X106342857Y-77135714D01*
X107271428Y-77778571D02*
X107271428Y-76278571D01*
X108128571Y-77778571D01*
X108128571Y-76278571D01*
X108842857Y-77778571D02*
X108842857Y-76278571D01*
X109200000Y-76278571D01*
X109414285Y-76350000D01*
X109557142Y-76492857D01*
X109628571Y-76635714D01*
X109700000Y-76921428D01*
X109700000Y-77135714D01*
X109628571Y-77421428D01*
X109557142Y-77564285D01*
X109414285Y-77707142D01*
X109200000Y-77778571D01*
X108842857Y-77778571D01*
D11*
X116400000Y-69085714D02*
X116571428Y-69142857D01*
X116857142Y-69142857D01*
X116971428Y-69085714D01*
X117028571Y-69028571D01*
X117085714Y-68914285D01*
X117085714Y-68800000D01*
X117028571Y-68685714D01*
X116971428Y-68628571D01*
X116857142Y-68571428D01*
X116628571Y-68514285D01*
X116514285Y-68457142D01*
X116457142Y-68400000D01*
X116400000Y-68285714D01*
X116400000Y-68171428D01*
X116457142Y-68057142D01*
X116514285Y-68000000D01*
X116628571Y-67942857D01*
X116914285Y-67942857D01*
X117085714Y-68000000D01*
X118057142Y-69085714D02*
X117942857Y-69142857D01*
X117714285Y-69142857D01*
X117600000Y-69085714D01*
X117542857Y-68971428D01*
X117542857Y-68514285D01*
X117600000Y-68400000D01*
X117714285Y-68342857D01*
X117942857Y-68342857D01*
X118057142Y-68400000D01*
X118114285Y-68514285D01*
X118114285Y-68628571D01*
X117542857Y-68742857D01*
X118457142Y-68342857D02*
X118914285Y-68342857D01*
X118628571Y-67942857D02*
X118628571Y-68971428D01*
X118685714Y-69085714D01*
X118800000Y-69142857D01*
X118914285Y-69142857D01*
X119314285Y-69142857D02*
X119314285Y-67942857D01*
X119828571Y-69142857D02*
X119828571Y-68514285D01*
X119771428Y-68400000D01*
X119657142Y-68342857D01*
X119485714Y-68342857D01*
X119371428Y-68400000D01*
X119314285Y-68457142D01*
X121257142Y-69085714D02*
X121428571Y-69142857D01*
X121714285Y-69142857D01*
X121828571Y-69085714D01*
X121885714Y-69028571D01*
X121942857Y-68914285D01*
X121942857Y-68800000D01*
X121885714Y-68685714D01*
X121828571Y-68628571D01*
X121714285Y-68571428D01*
X121485714Y-68514285D01*
X121371428Y-68457142D01*
X121314285Y-68400000D01*
X121257142Y-68285714D01*
X121257142Y-68171428D01*
X121314285Y-68057142D01*
X121371428Y-68000000D01*
X121485714Y-67942857D01*
X121771428Y-67942857D01*
X121942857Y-68000000D01*
X122457142Y-69142857D02*
X122457142Y-68342857D01*
X122457142Y-67942857D02*
X122400000Y-68000000D01*
X122457142Y-68057142D01*
X122514285Y-68000000D01*
X122457142Y-67942857D01*
X122457142Y-68057142D01*
X123485714Y-69085714D02*
X123371428Y-69142857D01*
X123142857Y-69142857D01*
X123028571Y-69085714D01*
X122971428Y-68971428D01*
X122971428Y-68514285D01*
X123028571Y-68400000D01*
X123142857Y-68342857D01*
X123371428Y-68342857D01*
X123485714Y-68400000D01*
X123542857Y-68514285D01*
X123542857Y-68628571D01*
X122971428Y-68742857D01*
X123942857Y-68342857D02*
X124228571Y-69142857D01*
X124514285Y-68342857D01*
X125428571Y-69085714D02*
X125314285Y-69142857D01*
X125085714Y-69142857D01*
X124971428Y-69085714D01*
X124914285Y-68971428D01*
X124914285Y-68514285D01*
X124971428Y-68400000D01*
X125085714Y-68342857D01*
X125314285Y-68342857D01*
X125428571Y-68400000D01*
X125485714Y-68514285D01*
X125485714Y-68628571D01*
X124914285Y-68742857D01*
X126000000Y-69142857D02*
X126000000Y-68342857D01*
X126000000Y-68571428D02*
X126057142Y-68457142D01*
X126114285Y-68400000D01*
X126228571Y-68342857D01*
X126342857Y-68342857D01*
X126685714Y-69085714D02*
X126800000Y-69142857D01*
X127028571Y-69142857D01*
X127142857Y-69085714D01*
X127200000Y-68971428D01*
X127200000Y-68914285D01*
X127142857Y-68800000D01*
X127028571Y-68742857D01*
X126857142Y-68742857D01*
X126742857Y-68685714D01*
X126685714Y-68571428D01*
X126685714Y-68514285D01*
X126742857Y-68400000D01*
X126857142Y-68342857D01*
X127028571Y-68342857D01*
X127142857Y-68400000D01*
D10*
X117550000Y-65592857D02*
X117050000Y-65592857D01*
X117050000Y-66378571D02*
X117050000Y-64878571D01*
X117764285Y-64878571D01*
X118264285Y-66307142D02*
X118478571Y-66378571D01*
X118835714Y-66378571D01*
X118978571Y-66307142D01*
X119050000Y-66235714D01*
X119121428Y-66092857D01*
X119121428Y-65950000D01*
X119050000Y-65807142D01*
X118978571Y-65735714D01*
X118835714Y-65664285D01*
X118550000Y-65592857D01*
X118407142Y-65521428D01*
X118335714Y-65450000D01*
X118264285Y-65307142D01*
X118264285Y-65164285D01*
X118335714Y-65021428D01*
X118407142Y-64950000D01*
X118550000Y-64878571D01*
X118907142Y-64878571D01*
X119121428Y-64950000D01*
X120264285Y-65592857D02*
X120478571Y-65664285D01*
X120550000Y-65735714D01*
X120621428Y-65878571D01*
X120621428Y-66092857D01*
X120550000Y-66235714D01*
X120478571Y-66307142D01*
X120335714Y-66378571D01*
X119764285Y-66378571D01*
X119764285Y-64878571D01*
X120264285Y-64878571D01*
X120407142Y-64950000D01*
X120478571Y-65021428D01*
X120550000Y-65164285D01*
X120550000Y-65307142D01*
X120478571Y-65450000D01*
X120407142Y-65521428D01*
X120264285Y-65592857D01*
X119764285Y-65592857D01*
X122192857Y-64878571D02*
X122692857Y-66378571D01*
X123192857Y-64878571D01*
X124478571Y-66378571D02*
X123621428Y-66378571D01*
X124050000Y-66378571D02*
X124050000Y-64878571D01*
X123907142Y-65092857D01*
X123764285Y-65235714D01*
X123621428Y-65307142D01*
X125121428Y-66235714D02*
X125192857Y-66307142D01*
X125121428Y-66378571D01*
X125050000Y-66307142D01*
X125121428Y-66235714D01*
X125121428Y-66378571D01*
X126121428Y-64878571D02*
X126264285Y-64878571D01*
X126407142Y-64950000D01*
X126478571Y-65021428D01*
X126550000Y-65164285D01*
X126621428Y-65450000D01*
X126621428Y-65807142D01*
X126550000Y-66092857D01*
X126478571Y-66235714D01*
X126407142Y-66307142D01*
X126264285Y-66378571D01*
X126121428Y-66378571D01*
X125978571Y-66307142D01*
X125907142Y-66235714D01*
X125835714Y-66092857D01*
X125764285Y-65807142D01*
X125764285Y-65450000D01*
X125835714Y-65164285D01*
X125907142Y-65021428D01*
X125978571Y-64950000D01*
X126121428Y-64878571D01*
X117371428Y-64078571D02*
X117371428Y-62578571D01*
X117871428Y-63650000D01*
X118371428Y-62578571D01*
X118371428Y-64078571D01*
X119014285Y-64007142D02*
X119228571Y-64078571D01*
X119585714Y-64078571D01*
X119728571Y-64007142D01*
X119800000Y-63935714D01*
X119871428Y-63792857D01*
X119871428Y-63650000D01*
X119800000Y-63507142D01*
X119728571Y-63435714D01*
X119585714Y-63364285D01*
X119300000Y-63292857D01*
X119157142Y-63221428D01*
X119085714Y-63150000D01*
X119014285Y-63007142D01*
X119014285Y-62864285D01*
X119085714Y-62721428D01*
X119157142Y-62650000D01*
X119300000Y-62578571D01*
X119657142Y-62578571D01*
X119871428Y-62650000D01*
X120300000Y-62578571D02*
X121157142Y-62578571D01*
X120728571Y-64078571D02*
X120728571Y-62578571D01*
X123657142Y-64078571D02*
X123157142Y-63364285D01*
X122800000Y-64078571D02*
X122800000Y-62578571D01*
X123371428Y-62578571D01*
X123514285Y-62650000D01*
X123585714Y-62721428D01*
X123657142Y-62864285D01*
X123657142Y-63078571D01*
X123585714Y-63221428D01*
X123514285Y-63292857D01*
X123371428Y-63364285D01*
X122800000Y-63364285D01*
X124300000Y-64078571D02*
X124300000Y-62578571D01*
X124657142Y-62578571D01*
X124871428Y-62650000D01*
X125014285Y-62792857D01*
X125085714Y-62935714D01*
X125157142Y-63221428D01*
X125157142Y-63435714D01*
X125085714Y-63721428D01*
X125014285Y-63864285D01*
X124871428Y-64007142D01*
X124657142Y-64078571D01*
X124300000Y-64078571D01*
X125585714Y-62578571D02*
X126442857Y-62578571D01*
X126014285Y-64078571D02*
X126014285Y-62578571D01*
X100214285Y-94028571D02*
X101071428Y-94028571D01*
X100642857Y-95528571D02*
X100642857Y-94028571D01*
X102428571Y-95528571D02*
X101928571Y-94814285D01*
X101571428Y-95528571D02*
X101571428Y-94028571D01*
X102142857Y-94028571D01*
X102285714Y-94100000D01*
X102357142Y-94171428D01*
X102428571Y-94314285D01*
X102428571Y-94528571D01*
X102357142Y-94671428D01*
X102285714Y-94742857D01*
X102142857Y-94814285D01*
X101571428Y-94814285D01*
X103071428Y-95528571D02*
X103071428Y-94028571D01*
X104571428Y-94100000D02*
X104428571Y-94028571D01*
X104214285Y-94028571D01*
X104000000Y-94100000D01*
X103857142Y-94242857D01*
X103785714Y-94385714D01*
X103714285Y-94671428D01*
X103714285Y-94885714D01*
X103785714Y-95171428D01*
X103857142Y-95314285D01*
X104000000Y-95457142D01*
X104214285Y-95528571D01*
X104357142Y-95528571D01*
X104571428Y-95457142D01*
X104642857Y-95385714D01*
X104642857Y-94885714D01*
X104357142Y-94885714D01*
X101457142Y-88850000D02*
X101314285Y-88778571D01*
X101100000Y-88778571D01*
X100885714Y-88850000D01*
X100742857Y-88992857D01*
X100671428Y-89135714D01*
X100600000Y-89421428D01*
X100600000Y-89635714D01*
X100671428Y-89921428D01*
X100742857Y-90064285D01*
X100885714Y-90207142D01*
X101100000Y-90278571D01*
X101242857Y-90278571D01*
X101457142Y-90207142D01*
X101528571Y-90135714D01*
X101528571Y-89635714D01*
X101242857Y-89635714D01*
X102171428Y-90278571D02*
X102171428Y-88778571D01*
X103028571Y-90278571D01*
X103028571Y-88778571D01*
X103742857Y-90278571D02*
X103742857Y-88778571D01*
X104100000Y-88778571D01*
X104314285Y-88850000D01*
X104457142Y-88992857D01*
X104528571Y-89135714D01*
X104600000Y-89421428D01*
X104600000Y-89635714D01*
X104528571Y-89921428D01*
X104457142Y-90064285D01*
X104314285Y-90207142D01*
X104100000Y-90278571D01*
X103742857Y-90278571D01*
D12*
%TO.C,D2*%
X117002380Y-98138095D02*
X116002380Y-98138095D01*
X116002380Y-97900000D01*
X116050000Y-97757142D01*
X116145238Y-97661904D01*
X116240476Y-97614285D01*
X116430952Y-97566666D01*
X116573809Y-97566666D01*
X116764285Y-97614285D01*
X116859523Y-97661904D01*
X116954761Y-97757142D01*
X117002380Y-97900000D01*
X117002380Y-98138095D01*
X116097619Y-97185714D02*
X116050000Y-97138095D01*
X116002380Y-97042857D01*
X116002380Y-96804761D01*
X116050000Y-96709523D01*
X116097619Y-96661904D01*
X116192857Y-96614285D01*
X116288095Y-96614285D01*
X116430952Y-96661904D01*
X117002380Y-97233333D01*
X117002380Y-96614285D01*
%TO.C,D3*%
X118361904Y-113652380D02*
X118361904Y-112652380D01*
X118600000Y-112652380D01*
X118742857Y-112700000D01*
X118838095Y-112795238D01*
X118885714Y-112890476D01*
X118933333Y-113080952D01*
X118933333Y-113223809D01*
X118885714Y-113414285D01*
X118838095Y-113509523D01*
X118742857Y-113604761D01*
X118600000Y-113652380D01*
X118361904Y-113652380D01*
X119266666Y-112652380D02*
X119885714Y-112652380D01*
X119552380Y-113033333D01*
X119695238Y-113033333D01*
X119790476Y-113080952D01*
X119838095Y-113128571D01*
X119885714Y-113223809D01*
X119885714Y-113461904D01*
X119838095Y-113557142D01*
X119790476Y-113604761D01*
X119695238Y-113652380D01*
X119409523Y-113652380D01*
X119314285Y-113604761D01*
X119266666Y-113557142D01*
%TO.C,Q2*%
X127294761Y-78727619D02*
X127199523Y-78680000D01*
X127104285Y-78584761D01*
X126961428Y-78441904D01*
X126866190Y-78394285D01*
X126770952Y-78394285D01*
X126818571Y-78632380D02*
X126723333Y-78584761D01*
X126628095Y-78489523D01*
X126580476Y-78299047D01*
X126580476Y-77965714D01*
X126628095Y-77775238D01*
X126723333Y-77680000D01*
X126818571Y-77632380D01*
X127009047Y-77632380D01*
X127104285Y-77680000D01*
X127199523Y-77775238D01*
X127247142Y-77965714D01*
X127247142Y-78299047D01*
X127199523Y-78489523D01*
X127104285Y-78584761D01*
X127009047Y-78632380D01*
X126818571Y-78632380D01*
X127628095Y-77727619D02*
X127675714Y-77680000D01*
X127770952Y-77632380D01*
X128009047Y-77632380D01*
X128104285Y-77680000D01*
X128151904Y-77727619D01*
X128199523Y-77822857D01*
X128199523Y-77918095D01*
X128151904Y-78060952D01*
X127580476Y-78632380D01*
X128199523Y-78632380D01*
%TO.C,R7*%
X112683333Y-148162380D02*
X112350000Y-147686190D01*
X112111904Y-148162380D02*
X112111904Y-147162380D01*
X112492857Y-147162380D01*
X112588095Y-147210000D01*
X112635714Y-147257619D01*
X112683333Y-147352857D01*
X112683333Y-147495714D01*
X112635714Y-147590952D01*
X112588095Y-147638571D01*
X112492857Y-147686190D01*
X112111904Y-147686190D01*
X113016666Y-147162380D02*
X113683333Y-147162380D01*
X113254761Y-148162380D01*
%TO.C,R6*%
X115842380Y-105929166D02*
X115366190Y-106262500D01*
X115842380Y-106500595D02*
X114842380Y-106500595D01*
X114842380Y-106119642D01*
X114890000Y-106024404D01*
X114937619Y-105976785D01*
X115032857Y-105929166D01*
X115175714Y-105929166D01*
X115270952Y-105976785D01*
X115318571Y-106024404D01*
X115366190Y-106119642D01*
X115366190Y-106500595D01*
X114842380Y-105072023D02*
X114842380Y-105262500D01*
X114890000Y-105357738D01*
X114937619Y-105405357D01*
X115080476Y-105500595D01*
X115270952Y-105548214D01*
X115651904Y-105548214D01*
X115747142Y-105500595D01*
X115794761Y-105452976D01*
X115842380Y-105357738D01*
X115842380Y-105167261D01*
X115794761Y-105072023D01*
X115747142Y-105024404D01*
X115651904Y-104976785D01*
X115413809Y-104976785D01*
X115318571Y-105024404D01*
X115270952Y-105072023D01*
X115223333Y-105167261D01*
X115223333Y-105357738D01*
X115270952Y-105452976D01*
X115318571Y-105500595D01*
X115413809Y-105548214D01*
%TO.C,D4*%
X106592380Y-102083095D02*
X105592380Y-102083095D01*
X105592380Y-101845000D01*
X105640000Y-101702142D01*
X105735238Y-101606904D01*
X105830476Y-101559285D01*
X106020952Y-101511666D01*
X106163809Y-101511666D01*
X106354285Y-101559285D01*
X106449523Y-101606904D01*
X106544761Y-101702142D01*
X106592380Y-101845000D01*
X106592380Y-102083095D01*
X105925714Y-100654523D02*
X106592380Y-100654523D01*
X105544761Y-100892619D02*
X106259047Y-101130714D01*
X106259047Y-100511666D01*
%TO.C,R3*%
X118412380Y-84941666D02*
X117936190Y-85275000D01*
X118412380Y-85513095D02*
X117412380Y-85513095D01*
X117412380Y-85132142D01*
X117460000Y-85036904D01*
X117507619Y-84989285D01*
X117602857Y-84941666D01*
X117745714Y-84941666D01*
X117840952Y-84989285D01*
X117888571Y-85036904D01*
X117936190Y-85132142D01*
X117936190Y-85513095D01*
X117412380Y-84608333D02*
X117412380Y-83989285D01*
X117793333Y-84322619D01*
X117793333Y-84179761D01*
X117840952Y-84084523D01*
X117888571Y-84036904D01*
X117983809Y-83989285D01*
X118221904Y-83989285D01*
X118317142Y-84036904D01*
X118364761Y-84084523D01*
X118412380Y-84179761D01*
X118412380Y-84465476D01*
X118364761Y-84560714D01*
X118317142Y-84608333D01*
%TO.C,D1*%
X110382380Y-89093095D02*
X109382380Y-89093095D01*
X109382380Y-88855000D01*
X109430000Y-88712142D01*
X109525238Y-88616904D01*
X109620476Y-88569285D01*
X109810952Y-88521666D01*
X109953809Y-88521666D01*
X110144285Y-88569285D01*
X110239523Y-88616904D01*
X110334761Y-88712142D01*
X110382380Y-88855000D01*
X110382380Y-89093095D01*
X110382380Y-87569285D02*
X110382380Y-88140714D01*
X110382380Y-87855000D02*
X109382380Y-87855000D01*
X109525238Y-87950238D01*
X109620476Y-88045476D01*
X109668095Y-88140714D01*
%TO.C,R8*%
X133183333Y-148162380D02*
X132850000Y-147686190D01*
X132611904Y-148162380D02*
X132611904Y-147162380D01*
X132992857Y-147162380D01*
X133088095Y-147210000D01*
X133135714Y-147257619D01*
X133183333Y-147352857D01*
X133183333Y-147495714D01*
X133135714Y-147590952D01*
X133088095Y-147638571D01*
X132992857Y-147686190D01*
X132611904Y-147686190D01*
X133754761Y-147590952D02*
X133659523Y-147543333D01*
X133611904Y-147495714D01*
X133564285Y-147400476D01*
X133564285Y-147352857D01*
X133611904Y-147257619D01*
X133659523Y-147210000D01*
X133754761Y-147162380D01*
X133945238Y-147162380D01*
X134040476Y-147210000D01*
X134088095Y-147257619D01*
X134135714Y-147352857D01*
X134135714Y-147400476D01*
X134088095Y-147495714D01*
X134040476Y-147543333D01*
X133945238Y-147590952D01*
X133754761Y-147590952D01*
X133659523Y-147638571D01*
X133611904Y-147686190D01*
X133564285Y-147781428D01*
X133564285Y-147971904D01*
X133611904Y-148067142D01*
X133659523Y-148114761D01*
X133754761Y-148162380D01*
X133945238Y-148162380D01*
X134040476Y-148114761D01*
X134088095Y-148067142D01*
X134135714Y-147971904D01*
X134135714Y-147781428D01*
X134088095Y-147686190D01*
X134040476Y-147638571D01*
X133945238Y-147590952D01*
%TO.C,R5*%
X117842380Y-106016666D02*
X117366190Y-106350000D01*
X117842380Y-106588095D02*
X116842380Y-106588095D01*
X116842380Y-106207142D01*
X116890000Y-106111904D01*
X116937619Y-106064285D01*
X117032857Y-106016666D01*
X117175714Y-106016666D01*
X117270952Y-106064285D01*
X117318571Y-106111904D01*
X117366190Y-106207142D01*
X117366190Y-106588095D01*
X116842380Y-105111904D02*
X116842380Y-105588095D01*
X117318571Y-105635714D01*
X117270952Y-105588095D01*
X117223333Y-105492857D01*
X117223333Y-105254761D01*
X117270952Y-105159523D01*
X117318571Y-105111904D01*
X117413809Y-105064285D01*
X117651904Y-105064285D01*
X117747142Y-105111904D01*
X117794761Y-105159523D01*
X117842380Y-105254761D01*
X117842380Y-105492857D01*
X117794761Y-105588095D01*
X117747142Y-105635714D01*
%TO.C,TP5*%
X132088095Y-108754380D02*
X132659523Y-108754380D01*
X132373809Y-109754380D02*
X132373809Y-108754380D01*
X132992857Y-109754380D02*
X132992857Y-108754380D01*
X133373809Y-108754380D01*
X133469047Y-108802000D01*
X133516666Y-108849619D01*
X133564285Y-108944857D01*
X133564285Y-109087714D01*
X133516666Y-109182952D01*
X133469047Y-109230571D01*
X133373809Y-109278190D01*
X132992857Y-109278190D01*
X134469047Y-108754380D02*
X133992857Y-108754380D01*
X133945238Y-109230571D01*
X133992857Y-109182952D01*
X134088095Y-109135333D01*
X134326190Y-109135333D01*
X134421428Y-109182952D01*
X134469047Y-109230571D01*
X134516666Y-109325809D01*
X134516666Y-109563904D01*
X134469047Y-109659142D01*
X134421428Y-109706761D01*
X134326190Y-109754380D01*
X134088095Y-109754380D01*
X133992857Y-109706761D01*
X133945238Y-109659142D01*
%TO.C,Q1*%
X114294761Y-93497619D02*
X114199523Y-93450000D01*
X114104285Y-93354761D01*
X113961428Y-93211904D01*
X113866190Y-93164285D01*
X113770952Y-93164285D01*
X113818571Y-93402380D02*
X113723333Y-93354761D01*
X113628095Y-93259523D01*
X113580476Y-93069047D01*
X113580476Y-92735714D01*
X113628095Y-92545238D01*
X113723333Y-92450000D01*
X113818571Y-92402380D01*
X114009047Y-92402380D01*
X114104285Y-92450000D01*
X114199523Y-92545238D01*
X114247142Y-92735714D01*
X114247142Y-93069047D01*
X114199523Y-93259523D01*
X114104285Y-93354761D01*
X114009047Y-93402380D01*
X113818571Y-93402380D01*
X115199523Y-93402380D02*
X114628095Y-93402380D01*
X114913809Y-93402380D02*
X114913809Y-92402380D01*
X114818571Y-92545238D01*
X114723333Y-92640476D01*
X114628095Y-92688095D01*
%TO.C,TP3*%
X111088095Y-108504380D02*
X111659523Y-108504380D01*
X111373809Y-109504380D02*
X111373809Y-108504380D01*
X111992857Y-109504380D02*
X111992857Y-108504380D01*
X112373809Y-108504380D01*
X112469047Y-108552000D01*
X112516666Y-108599619D01*
X112564285Y-108694857D01*
X112564285Y-108837714D01*
X112516666Y-108932952D01*
X112469047Y-108980571D01*
X112373809Y-109028190D01*
X111992857Y-109028190D01*
X112897619Y-108504380D02*
X113516666Y-108504380D01*
X113183333Y-108885333D01*
X113326190Y-108885333D01*
X113421428Y-108932952D01*
X113469047Y-108980571D01*
X113516666Y-109075809D01*
X113516666Y-109313904D01*
X113469047Y-109409142D01*
X113421428Y-109456761D01*
X113326190Y-109504380D01*
X113040476Y-109504380D01*
X112945238Y-109456761D01*
X112897619Y-109409142D01*
%TO.C,R1*%
X109842380Y-95516666D02*
X109366190Y-95850000D01*
X109842380Y-96088095D02*
X108842380Y-96088095D01*
X108842380Y-95707142D01*
X108890000Y-95611904D01*
X108937619Y-95564285D01*
X109032857Y-95516666D01*
X109175714Y-95516666D01*
X109270952Y-95564285D01*
X109318571Y-95611904D01*
X109366190Y-95707142D01*
X109366190Y-96088095D01*
X109842380Y-94564285D02*
X109842380Y-95135714D01*
X109842380Y-94850000D02*
X108842380Y-94850000D01*
X108985238Y-94945238D01*
X109080476Y-95040476D01*
X109128095Y-95135714D01*
%TO.C,TP6*%
X104878095Y-87154380D02*
X105449523Y-87154380D01*
X105163809Y-88154380D02*
X105163809Y-87154380D01*
X105782857Y-88154380D02*
X105782857Y-87154380D01*
X106163809Y-87154380D01*
X106259047Y-87202000D01*
X106306666Y-87249619D01*
X106354285Y-87344857D01*
X106354285Y-87487714D01*
X106306666Y-87582952D01*
X106259047Y-87630571D01*
X106163809Y-87678190D01*
X105782857Y-87678190D01*
X107211428Y-87154380D02*
X107020952Y-87154380D01*
X106925714Y-87202000D01*
X106878095Y-87249619D01*
X106782857Y-87392476D01*
X106735238Y-87582952D01*
X106735238Y-87963904D01*
X106782857Y-88059142D01*
X106830476Y-88106761D01*
X106925714Y-88154380D01*
X107116190Y-88154380D01*
X107211428Y-88106761D01*
X107259047Y-88059142D01*
X107306666Y-87963904D01*
X107306666Y-87725809D01*
X107259047Y-87630571D01*
X107211428Y-87582952D01*
X107116190Y-87535333D01*
X106925714Y-87535333D01*
X106830476Y-87582952D01*
X106782857Y-87630571D01*
X106735238Y-87725809D01*
%TO.C,R2*%
X118412380Y-89016666D02*
X117936190Y-89350000D01*
X118412380Y-89588095D02*
X117412380Y-89588095D01*
X117412380Y-89207142D01*
X117460000Y-89111904D01*
X117507619Y-89064285D01*
X117602857Y-89016666D01*
X117745714Y-89016666D01*
X117840952Y-89064285D01*
X117888571Y-89111904D01*
X117936190Y-89207142D01*
X117936190Y-89588095D01*
X117507619Y-88635714D02*
X117460000Y-88588095D01*
X117412380Y-88492857D01*
X117412380Y-88254761D01*
X117460000Y-88159523D01*
X117507619Y-88111904D01*
X117602857Y-88064285D01*
X117698095Y-88064285D01*
X117840952Y-88111904D01*
X118412380Y-88683333D01*
X118412380Y-88064285D01*
%TO.C,TP4*%
X104878095Y-92404380D02*
X105449523Y-92404380D01*
X105163809Y-93404380D02*
X105163809Y-92404380D01*
X105782857Y-93404380D02*
X105782857Y-92404380D01*
X106163809Y-92404380D01*
X106259047Y-92452000D01*
X106306666Y-92499619D01*
X106354285Y-92594857D01*
X106354285Y-92737714D01*
X106306666Y-92832952D01*
X106259047Y-92880571D01*
X106163809Y-92928190D01*
X105782857Y-92928190D01*
X107211428Y-92737714D02*
X107211428Y-93404380D01*
X106973333Y-92356761D02*
X106735238Y-93071047D01*
X107354285Y-93071047D01*
%TO.C,R4*%
X118342380Y-93016666D02*
X117866190Y-93350000D01*
X118342380Y-93588095D02*
X117342380Y-93588095D01*
X117342380Y-93207142D01*
X117390000Y-93111904D01*
X117437619Y-93064285D01*
X117532857Y-93016666D01*
X117675714Y-93016666D01*
X117770952Y-93064285D01*
X117818571Y-93111904D01*
X117866190Y-93207142D01*
X117866190Y-93588095D01*
X117675714Y-92159523D02*
X118342380Y-92159523D01*
X117294761Y-92397619D02*
X118009047Y-92635714D01*
X118009047Y-92016666D01*
D13*
%TO.C,D2*%
X117550000Y-99650000D02*
X117550000Y-95750000D01*
X117550000Y-99650000D02*
X119550000Y-99650000D01*
X119550000Y-99650000D02*
X119550000Y-95750000D01*
%TO.C,D3*%
X122500000Y-112350000D02*
X122500000Y-109050000D01*
X122500000Y-109050000D02*
X117100000Y-109050000D01*
X122500000Y-112350000D02*
X117100000Y-112350000D01*
%TO.C,Q2*%
X122140000Y-79180000D02*
X122140000Y-95290000D01*
X132640000Y-79180000D02*
X132640000Y-95290000D01*
X122140000Y-95290000D02*
X132640000Y-95290000D01*
X122140000Y-79180000D02*
X132640000Y-79180000D01*
X127390000Y-95290000D02*
X127390000Y-97250000D01*
X129930000Y-95290000D02*
X129930000Y-97250000D01*
X124850000Y-95290000D02*
X124850000Y-97250000D01*
%TO.C,R7*%
X120920000Y-125520000D02*
X104780000Y-125520000D01*
X107400000Y-125520000D02*
X107400000Y-122960000D01*
X120920000Y-146710000D02*
X120920000Y-125520000D01*
X120920000Y-146710000D02*
X104780000Y-146710000D01*
X104780000Y-146710000D02*
X104780000Y-125520000D01*
X118300000Y-125520000D02*
X118300000Y-122960000D01*
%TO.C,R6*%
X114867500Y-102595276D02*
X114867500Y-103104724D01*
X115912500Y-102595276D02*
X115912500Y-103104724D01*
%TO.C,D4*%
X111935000Y-98785000D02*
X108845000Y-98785000D01*
X108845170Y-98785000D02*
G75*
G03*
X110390462Y-104335000I1544830J-2560000D01*
G01*
X110389538Y-104335000D02*
G75*
G03*
X111934830Y-98785000I462J2990000D01*
G01*
X112890000Y-101345000D02*
G75*
G03*
X112890000Y-101345000I-2500000J0D01*
G01*
%TO.C,R3*%
X119912500Y-85029724D02*
X119912500Y-84520276D01*
X118867500Y-85029724D02*
X118867500Y-84520276D01*
%TO.C,D1*%
X112345000Y-90915000D02*
X115435000Y-90915000D01*
X113890462Y-85365000D02*
G75*
G03*
X112345170Y-90915000I-462J-2990000D01*
G01*
X115434830Y-90915000D02*
G75*
G03*
X113889538Y-85365000I-1544830J2560000D01*
G01*
X116390000Y-88355000D02*
G75*
G03*
X116390000Y-88355000I-2500000J0D01*
G01*
%TO.C,R8*%
X138800000Y-125520000D02*
X138800000Y-122960000D01*
X141420000Y-146710000D02*
X125280000Y-146710000D01*
X141420000Y-125520000D02*
X125280000Y-125520000D01*
X125280000Y-146710000D02*
X125280000Y-125520000D01*
X127900000Y-125520000D02*
X127900000Y-122960000D01*
X141420000Y-146710000D02*
X141420000Y-125520000D01*
%TO.C,R5*%
X116867500Y-103017224D02*
X116867500Y-102507776D01*
X117912500Y-103017224D02*
X117912500Y-102507776D01*
%TO.C,TP5*%
X134300000Y-110950000D02*
G75*
G03*
X134300000Y-110950000I-950000J0D01*
G01*
%TO.C,Q1*%
X114390000Y-96910000D02*
X115040000Y-96910000D01*
X114390000Y-96910000D02*
X113740000Y-96910000D01*
X114390000Y-93790000D02*
X112715000Y-93790000D01*
X114390000Y-93790000D02*
X115040000Y-93790000D01*
%TO.C,TP3*%
X113300000Y-110700000D02*
G75*
G03*
X113300000Y-110700000I-950000J0D01*
G01*
%TO.C,R1*%
X111412500Y-95095276D02*
X111412500Y-95604724D01*
X110367500Y-95095276D02*
X110367500Y-95604724D01*
%TO.C,TP6*%
X107090000Y-89350000D02*
G75*
G03*
X107090000Y-89350000I-950000J0D01*
G01*
%TO.C,R2*%
X118867500Y-89104724D02*
X118867500Y-88595276D01*
X119912500Y-89104724D02*
X119912500Y-88595276D01*
%TO.C,TP4*%
X107090000Y-94600000D02*
G75*
G03*
X107090000Y-94600000I-950000J0D01*
G01*
%TO.C,R4*%
X119912500Y-92595276D02*
X119912500Y-93104724D01*
X118867500Y-92595276D02*
X118867500Y-93104724D01*
%TD*%
%LPC*%
D14*
%TO.C,D2*%
X118550000Y-99050000D03*
X118550000Y-95750000D03*
%TD*%
D15*
%TO.C,D3*%
X121100000Y-110700000D03*
X117100000Y-110700000D03*
%TD*%
D16*
%TO.C,Q2*%
X124850000Y-98400000D03*
D17*
X127390000Y-98400000D03*
D18*
X127350000Y-82700000D03*
D17*
X129930000Y-98400000D03*
%TD*%
D19*
%TO.C,R7*%
X112850000Y-140420000D03*
D20*
X118300000Y-120560000D03*
D21*
X107400000Y-120560000D03*
%TD*%
D22*
%TO.C,R6*%
X115390000Y-101937500D03*
X115390000Y-103762500D03*
%TD*%
D23*
%TO.C,D4*%
X110390000Y-100075000D03*
D24*
X110390000Y-102615000D03*
%TD*%
D25*
%TO.C,R3*%
X119390000Y-85687500D03*
X119390000Y-83862500D03*
%TD*%
D23*
%TO.C,D1*%
X113890000Y-89625000D03*
D24*
X113890000Y-87085000D03*
%TD*%
D19*
%TO.C,R8*%
X133350000Y-140420000D03*
D20*
X138800000Y-120560000D03*
D21*
X127900000Y-120560000D03*
%TD*%
D26*
%TO.C,TP1*%
X107850000Y-68200000D03*
%TD*%
D25*
%TO.C,R5*%
X117390000Y-103675000D03*
X117390000Y-101850000D03*
%TD*%
D27*
%TO.C,TP5*%
X133350000Y-110950000D03*
%TD*%
D28*
%TO.C,Q1*%
X113452500Y-94400000D03*
X113452500Y-96300000D03*
X115327500Y-95350000D03*
%TD*%
D27*
%TO.C,TP3*%
X112350000Y-110700000D03*
%TD*%
D22*
%TO.C,R1*%
X110890000Y-94437500D03*
X110890000Y-96262500D03*
%TD*%
D27*
%TO.C,TP6*%
X106140000Y-89350000D03*
%TD*%
D25*
%TO.C,R2*%
X119390000Y-89762500D03*
X119390000Y-87937500D03*
%TD*%
D27*
%TO.C,TP4*%
X106140000Y-94600000D03*
%TD*%
D26*
%TO.C,TP2*%
X136350000Y-68200000D03*
%TD*%
D22*
%TO.C,R4*%
X119390000Y-91937500D03*
X119390000Y-93762500D03*
%TD*%
M02*
