%FSLAX45Y45*%
G04 Gerber Fmt 4.5, Leading zero omitted, Abs format (unit mm)*
G04 Created by KiCad (PCBNEW (6.0.5)) date 2022-08-02 11:04:32*
%MOMM*%
%LPD*%
G01*
G04 APERTURE LIST*
%TA.AperFunction,Profile*%
%ADD10C,0.100000*%
%TD*%
%ADD11C,0.200000*%
%ADD12C,0.025000*%
%ADD13C,0.070000*%
%ADD14C,0.090000*%
%ADD15C,0.120000*%
%ADD16C,0.150000*%
%ADD17C,0.256300*%
%ADD18C,0.500000*%
G04 APERTURE END LIST*
D10*
X9955000Y-5990000D02*
X14455000Y-5990000D01*
X14455000Y-5990000D02*
X14455000Y-14890000D01*
X14455000Y-14890000D02*
X9955000Y-14890000D01*
X9955000Y-14890000D02*
X9955000Y-5990000D01*
D11*
D12*
X10136800Y-7750500D02*
X10161800Y-7775500D01*
X10161800Y-7750500D02*
X10136800Y-7775500D01*
X10136800Y-8004500D02*
X10161800Y-8029500D01*
X10161800Y-8004500D02*
X10136800Y-8029500D01*
X10136800Y-8258500D02*
X10161800Y-8283500D01*
X10161800Y-8258500D02*
X10136800Y-8283500D01*
X10136800Y-8512500D02*
X10161800Y-8537500D01*
X10161800Y-8512500D02*
X10136800Y-8537500D01*
X10136800Y-8766500D02*
X10161800Y-8791500D01*
X10161800Y-8766500D02*
X10136800Y-8791500D01*
X10136800Y-9020500D02*
X10161800Y-9045500D01*
X10161800Y-9020500D02*
X10136800Y-9045500D01*
X10136800Y-9274500D02*
X10161800Y-9299500D01*
X10161800Y-9274500D02*
X10136800Y-9299500D01*
X10136800Y-9528500D02*
X10161800Y-9553500D01*
X10161800Y-9528500D02*
X10136800Y-9553500D01*
X10136800Y-9782500D02*
X10161800Y-9807500D01*
X10161800Y-9782500D02*
X10136800Y-9807500D01*
X10136800Y-10036500D02*
X10161800Y-10061500D01*
X10161800Y-10036500D02*
X10136800Y-10061500D01*
X10136800Y-10290500D02*
X10161800Y-10315500D01*
X10161800Y-10290500D02*
X10136800Y-10315500D01*
X10136800Y-10544500D02*
X10161800Y-10569500D01*
X10161800Y-10544500D02*
X10136800Y-10569500D01*
X10136800Y-10798500D02*
X10161800Y-10823500D01*
X10161800Y-10798500D02*
X10136800Y-10823500D01*
X10136800Y-11052500D02*
X10161800Y-11077500D01*
X10161800Y-11052500D02*
X10136800Y-11077500D01*
X10136800Y-11306500D02*
X10161800Y-11331500D01*
X10161800Y-11306500D02*
X10136800Y-11331500D01*
X10136800Y-11560500D02*
X10161800Y-11585500D01*
X10161800Y-11560500D02*
X10136800Y-11585500D01*
X10136800Y-11814500D02*
X10161800Y-11839500D01*
X10161800Y-11814500D02*
X10136800Y-11839500D01*
X10136800Y-12068500D02*
X10161800Y-12093500D01*
X10161800Y-12068500D02*
X10136800Y-12093500D01*
X10136800Y-12322500D02*
X10161800Y-12347500D01*
X10161800Y-12322500D02*
X10136800Y-12347500D01*
X10136800Y-12576500D02*
X10161800Y-12601500D01*
X10161800Y-12576500D02*
X10136800Y-12601500D01*
X10136800Y-12830500D02*
X10161800Y-12855500D01*
X10161800Y-12830500D02*
X10136800Y-12855500D01*
X10136800Y-13084500D02*
X10161800Y-13109500D01*
X10161800Y-13084500D02*
X10136800Y-13109500D01*
X10136800Y-13338500D02*
X10161800Y-13363500D01*
X10161800Y-13338500D02*
X10136800Y-13363500D01*
X10136800Y-13592500D02*
X10161800Y-13617500D01*
X10161800Y-13592500D02*
X10136800Y-13617500D01*
X10136800Y-13846500D02*
X10161800Y-13871500D01*
X10161800Y-13846500D02*
X10136800Y-13871500D01*
X10136800Y-14100500D02*
X10161800Y-14125500D01*
X10161800Y-14100500D02*
X10136800Y-14125500D01*
X10136800Y-14354500D02*
X10161800Y-14379500D01*
X10161800Y-14354500D02*
X10136800Y-14379500D01*
X10136800Y-14608500D02*
X10161800Y-14633500D01*
X10161800Y-14608500D02*
X10136800Y-14633500D01*
X10390800Y-7750500D02*
X10415800Y-7775500D01*
X10415800Y-7750500D02*
X10390800Y-7775500D01*
X10390800Y-8004500D02*
X10415800Y-8029500D01*
X10415800Y-8004500D02*
X10390800Y-8029500D01*
X10390800Y-8258500D02*
X10415800Y-8283500D01*
X10415800Y-8258500D02*
X10390800Y-8283500D01*
X10390800Y-8512500D02*
X10415800Y-8537500D01*
X10415800Y-8512500D02*
X10390800Y-8537500D01*
X10390800Y-8766500D02*
X10415800Y-8791500D01*
X10415800Y-8766500D02*
X10390800Y-8791500D01*
X10390800Y-9020500D02*
X10415800Y-9045500D01*
X10415800Y-9020500D02*
X10390800Y-9045500D01*
X10390800Y-9274500D02*
X10415800Y-9299500D01*
X10415800Y-9274500D02*
X10390800Y-9299500D01*
X10390800Y-9528500D02*
X10415800Y-9553500D01*
X10415800Y-9528500D02*
X10390800Y-9553500D01*
X10390800Y-9782500D02*
X10415800Y-9807500D01*
X10415800Y-9782500D02*
X10390800Y-9807500D01*
X10390800Y-10036500D02*
X10415800Y-10061500D01*
X10415800Y-10036500D02*
X10390800Y-10061500D01*
X10390800Y-10290500D02*
X10415800Y-10315500D01*
X10415800Y-10290500D02*
X10390800Y-10315500D01*
X10390800Y-10544500D02*
X10415800Y-10569500D01*
X10415800Y-10544500D02*
X10390800Y-10569500D01*
X10390800Y-10798500D02*
X10415800Y-10823500D01*
X10415800Y-10798500D02*
X10390800Y-10823500D01*
X10390800Y-11052500D02*
X10415800Y-11077500D01*
X10415800Y-11052500D02*
X10390800Y-11077500D01*
X10390800Y-11306500D02*
X10415800Y-11331500D01*
X10415800Y-11306500D02*
X10390800Y-11331500D01*
X10390800Y-11560500D02*
X10415800Y-11585500D01*
X10415800Y-11560500D02*
X10390800Y-11585500D01*
X10390800Y-11814500D02*
X10415800Y-11839500D01*
X10415800Y-11814500D02*
X10390800Y-11839500D01*
X10390800Y-12068500D02*
X10415800Y-12093500D01*
X10415800Y-12068500D02*
X10390800Y-12093500D01*
X10390800Y-12322500D02*
X10415800Y-12347500D01*
X10415800Y-12322500D02*
X10390800Y-12347500D01*
X10390800Y-12576500D02*
X10415800Y-12601500D01*
X10415800Y-12576500D02*
X10390800Y-12601500D01*
X10390800Y-12830500D02*
X10415800Y-12855500D01*
X10415800Y-12830500D02*
X10390800Y-12855500D01*
X10390800Y-13084500D02*
X10415800Y-13109500D01*
X10415800Y-13084500D02*
X10390800Y-13109500D01*
X10390800Y-13338500D02*
X10415800Y-13363500D01*
X10415800Y-13338500D02*
X10390800Y-13363500D01*
X10390800Y-13592500D02*
X10415800Y-13617500D01*
X10415800Y-13592500D02*
X10390800Y-13617500D01*
X10390800Y-13846500D02*
X10415800Y-13871500D01*
X10415800Y-13846500D02*
X10390800Y-13871500D01*
X10390800Y-14100500D02*
X10415800Y-14125500D01*
X10415800Y-14100500D02*
X10390800Y-14125500D01*
X10390800Y-14354500D02*
X10415800Y-14379500D01*
X10415800Y-14354500D02*
X10390800Y-14379500D01*
X10390800Y-14608500D02*
X10415800Y-14633500D01*
X10415800Y-14608500D02*
X10390800Y-14633500D01*
X10644800Y-7750500D02*
X10669800Y-7775500D01*
X10669800Y-7750500D02*
X10644800Y-7775500D01*
X10644800Y-8004500D02*
X10669800Y-8029500D01*
X10669800Y-8004500D02*
X10644800Y-8029500D01*
X10644800Y-8258500D02*
X10669800Y-8283500D01*
X10669800Y-8258500D02*
X10644800Y-8283500D01*
X10644800Y-8512500D02*
X10669800Y-8537500D01*
X10669800Y-8512500D02*
X10644800Y-8537500D01*
X10644800Y-9274500D02*
X10669800Y-9299500D01*
X10669800Y-9274500D02*
X10644800Y-9299500D01*
X10644800Y-9782500D02*
X10669800Y-9807500D01*
X10669800Y-9782500D02*
X10644800Y-9807500D01*
X10644800Y-10036500D02*
X10669800Y-10061500D01*
X10669800Y-10036500D02*
X10644800Y-10061500D01*
X10644800Y-10290500D02*
X10669800Y-10315500D01*
X10669800Y-10290500D02*
X10644800Y-10315500D01*
X10644800Y-10544500D02*
X10669800Y-10569500D01*
X10669800Y-10544500D02*
X10644800Y-10569500D01*
X10644800Y-10798500D02*
X10669800Y-10823500D01*
X10669800Y-10798500D02*
X10644800Y-10823500D01*
X10644800Y-11052500D02*
X10669800Y-11077500D01*
X10669800Y-11052500D02*
X10644800Y-11077500D01*
X10644800Y-11306500D02*
X10669800Y-11331500D01*
X10669800Y-11306500D02*
X10644800Y-11331500D01*
X10644800Y-11560500D02*
X10669800Y-11585500D01*
X10669800Y-11560500D02*
X10644800Y-11585500D01*
X10644800Y-12576500D02*
X10669800Y-12601500D01*
X10669800Y-12576500D02*
X10644800Y-12601500D01*
X10644800Y-12830500D02*
X10669800Y-12855500D01*
X10669800Y-12830500D02*
X10644800Y-12855500D01*
X10644800Y-13084500D02*
X10669800Y-13109500D01*
X10669800Y-13084500D02*
X10644800Y-13109500D01*
X10644800Y-13846500D02*
X10669800Y-13871500D01*
X10669800Y-13846500D02*
X10644800Y-13871500D01*
X10644800Y-14100500D02*
X10669800Y-14125500D01*
X10669800Y-14100500D02*
X10644800Y-14125500D01*
X10644800Y-14354500D02*
X10669800Y-14379500D01*
X10669800Y-14354500D02*
X10644800Y-14379500D01*
X10644800Y-14608500D02*
X10669800Y-14633500D01*
X10669800Y-14608500D02*
X10644800Y-14633500D01*
X10898800Y-7750500D02*
X10923800Y-7775500D01*
X10923800Y-7750500D02*
X10898800Y-7775500D01*
X10898800Y-8004500D02*
X10923800Y-8029500D01*
X10923800Y-8004500D02*
X10898800Y-8029500D01*
X10898800Y-8258500D02*
X10923800Y-8283500D01*
X10923800Y-8258500D02*
X10898800Y-8283500D01*
X10898800Y-8512500D02*
X10923800Y-8537500D01*
X10923800Y-8512500D02*
X10898800Y-8537500D01*
X10898800Y-8766500D02*
X10923800Y-8791500D01*
X10923800Y-8766500D02*
X10898800Y-8791500D01*
X10898800Y-9020500D02*
X10923800Y-9045500D01*
X10923800Y-9020500D02*
X10898800Y-9045500D01*
X10898800Y-9274500D02*
X10923800Y-9299500D01*
X10923800Y-9274500D02*
X10898800Y-9299500D01*
X10898800Y-9782500D02*
X10923800Y-9807500D01*
X10923800Y-9782500D02*
X10898800Y-9807500D01*
X10898800Y-10544500D02*
X10923800Y-10569500D01*
X10923800Y-10544500D02*
X10898800Y-10569500D01*
X10898800Y-10798500D02*
X10923800Y-10823500D01*
X10923800Y-10798500D02*
X10898800Y-10823500D01*
X10898800Y-11052500D02*
X10923800Y-11077500D01*
X10923800Y-11052500D02*
X10898800Y-11077500D01*
X10898800Y-11306500D02*
X10923800Y-11331500D01*
X10923800Y-11306500D02*
X10898800Y-11331500D01*
X10898800Y-11560500D02*
X10923800Y-11585500D01*
X10923800Y-11560500D02*
X10898800Y-11585500D01*
X10898800Y-12576500D02*
X10923800Y-12601500D01*
X10923800Y-12576500D02*
X10898800Y-12601500D01*
X10898800Y-13846500D02*
X10923800Y-13871500D01*
X10923800Y-13846500D02*
X10898800Y-13871500D01*
X10898800Y-14100500D02*
X10923800Y-14125500D01*
X10923800Y-14100500D02*
X10898800Y-14125500D01*
X10898800Y-14354500D02*
X10923800Y-14379500D01*
X10923800Y-14354500D02*
X10898800Y-14379500D01*
X10898800Y-14608500D02*
X10923800Y-14633500D01*
X10923800Y-14608500D02*
X10898800Y-14633500D01*
X11152800Y-7750500D02*
X11177800Y-7775500D01*
X11177800Y-7750500D02*
X11152800Y-7775500D01*
X11152800Y-8004500D02*
X11177800Y-8029500D01*
X11177800Y-8004500D02*
X11152800Y-8029500D01*
X11152800Y-8258500D02*
X11177800Y-8283500D01*
X11177800Y-8258500D02*
X11152800Y-8283500D01*
X11152800Y-8512500D02*
X11177800Y-8537500D01*
X11177800Y-8512500D02*
X11152800Y-8537500D01*
X11152800Y-8766500D02*
X11177800Y-8791500D01*
X11177800Y-8766500D02*
X11152800Y-8791500D01*
X11152800Y-9020500D02*
X11177800Y-9045500D01*
X11177800Y-9020500D02*
X11152800Y-9045500D01*
X11152800Y-9274500D02*
X11177800Y-9299500D01*
X11177800Y-9274500D02*
X11152800Y-9299500D01*
X11152800Y-9782500D02*
X11177800Y-9807500D01*
X11177800Y-9782500D02*
X11152800Y-9807500D01*
X11152800Y-10544500D02*
X11177800Y-10569500D01*
X11177800Y-10544500D02*
X11152800Y-10569500D01*
X11152800Y-10798500D02*
X11177800Y-10823500D01*
X11177800Y-10798500D02*
X11152800Y-10823500D01*
X11152800Y-11306500D02*
X11177800Y-11331500D01*
X11177800Y-11306500D02*
X11152800Y-11331500D01*
X11152800Y-11560500D02*
X11177800Y-11585500D01*
X11177800Y-11560500D02*
X11152800Y-11585500D01*
X11152800Y-11814500D02*
X11177800Y-11839500D01*
X11177800Y-11814500D02*
X11152800Y-11839500D01*
X11152800Y-12068500D02*
X11177800Y-12093500D01*
X11177800Y-12068500D02*
X11152800Y-12093500D01*
X11152800Y-12322500D02*
X11177800Y-12347500D01*
X11177800Y-12322500D02*
X11152800Y-12347500D01*
X11152800Y-12576500D02*
X11177800Y-12601500D01*
X11177800Y-12576500D02*
X11152800Y-12601500D01*
X11152800Y-14354500D02*
X11177800Y-14379500D01*
X11177800Y-14354500D02*
X11152800Y-14379500D01*
X11152800Y-14608500D02*
X11177800Y-14633500D01*
X11177800Y-14608500D02*
X11152800Y-14633500D01*
X11406800Y-7750500D02*
X11431800Y-7775500D01*
X11431800Y-7750500D02*
X11406800Y-7775500D01*
X11406800Y-8004500D02*
X11431800Y-8029500D01*
X11431800Y-8004500D02*
X11406800Y-8029500D01*
X11406800Y-8258500D02*
X11431800Y-8283500D01*
X11431800Y-8258500D02*
X11406800Y-8283500D01*
X11406800Y-9274500D02*
X11431800Y-9299500D01*
X11431800Y-9274500D02*
X11406800Y-9299500D01*
X11406800Y-9782500D02*
X11431800Y-9807500D01*
X11431800Y-9782500D02*
X11406800Y-9807500D01*
X11406800Y-10036500D02*
X11431800Y-10061500D01*
X11431800Y-10036500D02*
X11406800Y-10061500D01*
X11406800Y-10544500D02*
X11431800Y-10569500D01*
X11431800Y-10544500D02*
X11406800Y-10569500D01*
X11406800Y-10798500D02*
X11431800Y-10823500D01*
X11431800Y-10798500D02*
X11406800Y-10823500D01*
X11406800Y-11052500D02*
X11431800Y-11077500D01*
X11431800Y-11052500D02*
X11406800Y-11077500D01*
X11406800Y-11306500D02*
X11431800Y-11331500D01*
X11431800Y-11306500D02*
X11406800Y-11331500D01*
X11406800Y-11560500D02*
X11431800Y-11585500D01*
X11431800Y-11560500D02*
X11406800Y-11585500D01*
X11406800Y-11814500D02*
X11431800Y-11839500D01*
X11431800Y-11814500D02*
X11406800Y-11839500D01*
X11406800Y-12068500D02*
X11431800Y-12093500D01*
X11431800Y-12068500D02*
X11406800Y-12093500D01*
X11406800Y-12322500D02*
X11431800Y-12347500D01*
X11431800Y-12322500D02*
X11406800Y-12347500D01*
X11406800Y-12576500D02*
X11431800Y-12601500D01*
X11431800Y-12576500D02*
X11406800Y-12601500D01*
X11406800Y-12830500D02*
X11431800Y-12855500D01*
X11431800Y-12830500D02*
X11406800Y-12855500D01*
X11406800Y-13084500D02*
X11431800Y-13109500D01*
X11431800Y-13084500D02*
X11406800Y-13109500D01*
X11406800Y-14354500D02*
X11431800Y-14379500D01*
X11431800Y-14354500D02*
X11406800Y-14379500D01*
X11406800Y-14608500D02*
X11431800Y-14633500D01*
X11431800Y-14608500D02*
X11406800Y-14633500D01*
X11660800Y-6226500D02*
X11685800Y-6251500D01*
X11685800Y-6226500D02*
X11660800Y-6251500D01*
X11660800Y-6480500D02*
X11685800Y-6505500D01*
X11685800Y-6480500D02*
X11660800Y-6505500D01*
X11660800Y-6734500D02*
X11685800Y-6759500D01*
X11685800Y-6734500D02*
X11660800Y-6759500D01*
X11660800Y-6988500D02*
X11685800Y-7013500D01*
X11685800Y-6988500D02*
X11660800Y-7013500D01*
X11660800Y-7242500D02*
X11685800Y-7267500D01*
X11685800Y-7242500D02*
X11660800Y-7267500D01*
X11660800Y-7496500D02*
X11685800Y-7521500D01*
X11685800Y-7496500D02*
X11660800Y-7521500D01*
X11660800Y-7750500D02*
X11685800Y-7775500D01*
X11685800Y-7750500D02*
X11660800Y-7775500D01*
X11660800Y-8004500D02*
X11685800Y-8029500D01*
X11685800Y-8004500D02*
X11660800Y-8029500D01*
X11660800Y-8258500D02*
X11685800Y-8283500D01*
X11685800Y-8258500D02*
X11660800Y-8283500D01*
X11660800Y-9782500D02*
X11685800Y-9807500D01*
X11685800Y-9782500D02*
X11660800Y-9807500D01*
X11660800Y-10544500D02*
X11685800Y-10569500D01*
X11685800Y-10544500D02*
X11660800Y-10569500D01*
X11660800Y-10798500D02*
X11685800Y-10823500D01*
X11685800Y-10798500D02*
X11660800Y-10823500D01*
X11660800Y-11306500D02*
X11685800Y-11331500D01*
X11685800Y-11306500D02*
X11660800Y-11331500D01*
X11660800Y-11560500D02*
X11685800Y-11585500D01*
X11685800Y-11560500D02*
X11660800Y-11585500D01*
X11660800Y-12576500D02*
X11685800Y-12601500D01*
X11685800Y-12576500D02*
X11660800Y-12601500D01*
X11660800Y-12830500D02*
X11685800Y-12855500D01*
X11685800Y-12830500D02*
X11660800Y-12855500D01*
X11660800Y-13084500D02*
X11685800Y-13109500D01*
X11685800Y-13084500D02*
X11660800Y-13109500D01*
X11660800Y-13338500D02*
X11685800Y-13363500D01*
X11685800Y-13338500D02*
X11660800Y-13363500D01*
X11660800Y-13592500D02*
X11685800Y-13617500D01*
X11685800Y-13592500D02*
X11660800Y-13617500D01*
X11660800Y-13846500D02*
X11685800Y-13871500D01*
X11685800Y-13846500D02*
X11660800Y-13871500D01*
X11660800Y-14100500D02*
X11685800Y-14125500D01*
X11685800Y-14100500D02*
X11660800Y-14125500D01*
X11660800Y-14354500D02*
X11685800Y-14379500D01*
X11685800Y-14354500D02*
X11660800Y-14379500D01*
X11660800Y-14608500D02*
X11685800Y-14633500D01*
X11685800Y-14608500D02*
X11660800Y-14633500D01*
X11914800Y-6226500D02*
X11939800Y-6251500D01*
X11939800Y-6226500D02*
X11914800Y-6251500D01*
X11914800Y-6480500D02*
X11939800Y-6505500D01*
X11939800Y-6480500D02*
X11914800Y-6505500D01*
X11914800Y-6734500D02*
X11939800Y-6759500D01*
X11939800Y-6734500D02*
X11914800Y-6759500D01*
X11914800Y-6988500D02*
X11939800Y-7013500D01*
X11939800Y-6988500D02*
X11914800Y-7013500D01*
X11914800Y-7242500D02*
X11939800Y-7267500D01*
X11939800Y-7242500D02*
X11914800Y-7267500D01*
X11914800Y-7496500D02*
X11939800Y-7521500D01*
X11939800Y-7496500D02*
X11914800Y-7521500D01*
X11914800Y-7750500D02*
X11939800Y-7775500D01*
X11939800Y-7750500D02*
X11914800Y-7775500D01*
X11914800Y-8004500D02*
X11939800Y-8029500D01*
X11939800Y-8004500D02*
X11914800Y-8029500D01*
X11914800Y-10036500D02*
X11939800Y-10061500D01*
X11939800Y-10036500D02*
X11914800Y-10061500D01*
X11914800Y-10544500D02*
X11939800Y-10569500D01*
X11939800Y-10544500D02*
X11914800Y-10569500D01*
X11914800Y-10798500D02*
X11939800Y-10823500D01*
X11939800Y-10798500D02*
X11914800Y-10823500D01*
X11914800Y-11306500D02*
X11939800Y-11331500D01*
X11939800Y-11306500D02*
X11914800Y-11331500D01*
X11914800Y-11560500D02*
X11939800Y-11585500D01*
X11939800Y-11560500D02*
X11914800Y-11585500D01*
X11914800Y-12576500D02*
X11939800Y-12601500D01*
X11939800Y-12576500D02*
X11914800Y-12601500D01*
X11914800Y-12830500D02*
X11939800Y-12855500D01*
X11939800Y-12830500D02*
X11914800Y-12855500D01*
X11914800Y-13084500D02*
X11939800Y-13109500D01*
X11939800Y-13084500D02*
X11914800Y-13109500D01*
X11914800Y-13338500D02*
X11939800Y-13363500D01*
X11939800Y-13338500D02*
X11914800Y-13363500D01*
X11914800Y-13592500D02*
X11939800Y-13617500D01*
X11939800Y-13592500D02*
X11914800Y-13617500D01*
X11914800Y-13846500D02*
X11939800Y-13871500D01*
X11939800Y-13846500D02*
X11914800Y-13871500D01*
X11914800Y-14100500D02*
X11939800Y-14125500D01*
X11939800Y-14100500D02*
X11914800Y-14125500D01*
X11914800Y-14354500D02*
X11939800Y-14379500D01*
X11939800Y-14354500D02*
X11914800Y-14379500D01*
X11914800Y-14608500D02*
X11939800Y-14633500D01*
X11939800Y-14608500D02*
X11914800Y-14633500D01*
X12168800Y-6226500D02*
X12193800Y-6251500D01*
X12193800Y-6226500D02*
X12168800Y-6251500D01*
X12168800Y-6480500D02*
X12193800Y-6505500D01*
X12193800Y-6480500D02*
X12168800Y-6505500D01*
X12168800Y-6734500D02*
X12193800Y-6759500D01*
X12193800Y-6734500D02*
X12168800Y-6759500D01*
X12168800Y-6988500D02*
X12193800Y-7013500D01*
X12193800Y-6988500D02*
X12168800Y-7013500D01*
X12168800Y-7242500D02*
X12193800Y-7267500D01*
X12193800Y-7242500D02*
X12168800Y-7267500D01*
X12168800Y-7496500D02*
X12193800Y-7521500D01*
X12193800Y-7496500D02*
X12168800Y-7521500D01*
X12168800Y-8766500D02*
X12193800Y-8791500D01*
X12193800Y-8766500D02*
X12168800Y-8791500D01*
X12168800Y-9020500D02*
X12193800Y-9045500D01*
X12193800Y-9020500D02*
X12168800Y-9045500D01*
X12168800Y-10544500D02*
X12193800Y-10569500D01*
X12193800Y-10544500D02*
X12168800Y-10569500D01*
X12168800Y-10798500D02*
X12193800Y-10823500D01*
X12193800Y-10798500D02*
X12168800Y-10823500D01*
X12168800Y-11306500D02*
X12193800Y-11331500D01*
X12193800Y-11306500D02*
X12168800Y-11331500D01*
X12168800Y-11560500D02*
X12193800Y-11585500D01*
X12193800Y-11560500D02*
X12168800Y-11585500D01*
X12168800Y-11814500D02*
X12193800Y-11839500D01*
X12193800Y-11814500D02*
X12168800Y-11839500D01*
X12168800Y-12068500D02*
X12193800Y-12093500D01*
X12193800Y-12068500D02*
X12168800Y-12093500D01*
X12168800Y-12322500D02*
X12193800Y-12347500D01*
X12193800Y-12322500D02*
X12168800Y-12347500D01*
X12168800Y-12576500D02*
X12193800Y-12601500D01*
X12193800Y-12576500D02*
X12168800Y-12601500D01*
X12168800Y-14100500D02*
X12193800Y-14125500D01*
X12193800Y-14100500D02*
X12168800Y-14125500D01*
X12168800Y-14354500D02*
X12193800Y-14379500D01*
X12193800Y-14354500D02*
X12168800Y-14379500D01*
X12168800Y-14608500D02*
X12193800Y-14633500D01*
X12193800Y-14608500D02*
X12168800Y-14633500D01*
X12422800Y-6226500D02*
X12447800Y-6251500D01*
X12447800Y-6226500D02*
X12422800Y-6251500D01*
X12422800Y-6480500D02*
X12447800Y-6505500D01*
X12447800Y-6480500D02*
X12422800Y-6505500D01*
X12422800Y-6734500D02*
X12447800Y-6759500D01*
X12447800Y-6734500D02*
X12422800Y-6759500D01*
X12422800Y-6988500D02*
X12447800Y-7013500D01*
X12447800Y-6988500D02*
X12422800Y-7013500D01*
X12422800Y-7242500D02*
X12447800Y-7267500D01*
X12447800Y-7242500D02*
X12422800Y-7267500D01*
X12422800Y-7496500D02*
X12447800Y-7521500D01*
X12447800Y-7496500D02*
X12422800Y-7521500D01*
X12422800Y-8766500D02*
X12447800Y-8791500D01*
X12447800Y-8766500D02*
X12422800Y-8791500D01*
X12422800Y-9020500D02*
X12447800Y-9045500D01*
X12447800Y-9020500D02*
X12422800Y-9045500D01*
X12422800Y-9274500D02*
X12447800Y-9299500D01*
X12447800Y-9274500D02*
X12422800Y-9299500D01*
X12422800Y-10544500D02*
X12447800Y-10569500D01*
X12447800Y-10544500D02*
X12422800Y-10569500D01*
X12422800Y-10798500D02*
X12447800Y-10823500D01*
X12447800Y-10798500D02*
X12422800Y-10823500D01*
X12422800Y-11306500D02*
X12447800Y-11331500D01*
X12447800Y-11306500D02*
X12422800Y-11331500D01*
X12422800Y-11560500D02*
X12447800Y-11585500D01*
X12447800Y-11560500D02*
X12422800Y-11585500D01*
X12422800Y-11814500D02*
X12447800Y-11839500D01*
X12447800Y-11814500D02*
X12422800Y-11839500D01*
X12422800Y-12068500D02*
X12447800Y-12093500D01*
X12447800Y-12068500D02*
X12422800Y-12093500D01*
X12422800Y-12322500D02*
X12447800Y-12347500D01*
X12447800Y-12322500D02*
X12422800Y-12347500D01*
X12422800Y-12576500D02*
X12447800Y-12601500D01*
X12447800Y-12576500D02*
X12422800Y-12601500D01*
X12422800Y-14100500D02*
X12447800Y-14125500D01*
X12447800Y-14100500D02*
X12422800Y-14125500D01*
X12422800Y-14354500D02*
X12447800Y-14379500D01*
X12447800Y-14354500D02*
X12422800Y-14379500D01*
X12422800Y-14608500D02*
X12447800Y-14633500D01*
X12447800Y-14608500D02*
X12422800Y-14633500D01*
X12676800Y-6226500D02*
X12701800Y-6251500D01*
X12701800Y-6226500D02*
X12676800Y-6251500D01*
X12676800Y-6480500D02*
X12701800Y-6505500D01*
X12701800Y-6480500D02*
X12676800Y-6505500D01*
X12676800Y-6734500D02*
X12701800Y-6759500D01*
X12701800Y-6734500D02*
X12676800Y-6759500D01*
X12676800Y-6988500D02*
X12701800Y-7013500D01*
X12701800Y-6988500D02*
X12676800Y-7013500D01*
X12676800Y-7242500D02*
X12701800Y-7267500D01*
X12701800Y-7242500D02*
X12676800Y-7267500D01*
X12676800Y-7496500D02*
X12701800Y-7521500D01*
X12701800Y-7496500D02*
X12676800Y-7521500D01*
X12676800Y-8766500D02*
X12701800Y-8791500D01*
X12701800Y-8766500D02*
X12676800Y-8791500D01*
X12676800Y-9020500D02*
X12701800Y-9045500D01*
X12701800Y-9020500D02*
X12676800Y-9045500D01*
X12676800Y-9274500D02*
X12701800Y-9299500D01*
X12701800Y-9274500D02*
X12676800Y-9299500D01*
X12676800Y-10036500D02*
X12701800Y-10061500D01*
X12701800Y-10036500D02*
X12676800Y-10061500D01*
X12676800Y-10290500D02*
X12701800Y-10315500D01*
X12701800Y-10290500D02*
X12676800Y-10315500D01*
X12676800Y-10544500D02*
X12701800Y-10569500D01*
X12701800Y-10544500D02*
X12676800Y-10569500D01*
X12676800Y-10798500D02*
X12701800Y-10823500D01*
X12701800Y-10798500D02*
X12676800Y-10823500D01*
X12676800Y-11052500D02*
X12701800Y-11077500D01*
X12701800Y-11052500D02*
X12676800Y-11077500D01*
X12676800Y-11306500D02*
X12701800Y-11331500D01*
X12701800Y-11306500D02*
X12676800Y-11331500D01*
X12676800Y-11560500D02*
X12701800Y-11585500D01*
X12701800Y-11560500D02*
X12676800Y-11585500D01*
X12676800Y-12576500D02*
X12701800Y-12601500D01*
X12701800Y-12576500D02*
X12676800Y-12601500D01*
X12676800Y-12830500D02*
X12701800Y-12855500D01*
X12701800Y-12830500D02*
X12676800Y-12855500D01*
X12676800Y-13084500D02*
X12701800Y-13109500D01*
X12701800Y-13084500D02*
X12676800Y-13109500D01*
X12676800Y-13338500D02*
X12701800Y-13363500D01*
X12701800Y-13338500D02*
X12676800Y-13363500D01*
X12676800Y-13592500D02*
X12701800Y-13617500D01*
X12701800Y-13592500D02*
X12676800Y-13617500D01*
X12676800Y-13846500D02*
X12701800Y-13871500D01*
X12701800Y-13846500D02*
X12676800Y-13871500D01*
X12676800Y-14100500D02*
X12701800Y-14125500D01*
X12701800Y-14100500D02*
X12676800Y-14125500D01*
X12676800Y-14354500D02*
X12701800Y-14379500D01*
X12701800Y-14354500D02*
X12676800Y-14379500D01*
X12676800Y-14608500D02*
X12701800Y-14633500D01*
X12701800Y-14608500D02*
X12676800Y-14633500D01*
X12930800Y-8766500D02*
X12955800Y-8791500D01*
X12955800Y-8766500D02*
X12930800Y-8791500D01*
X12930800Y-9020500D02*
X12955800Y-9045500D01*
X12955800Y-9020500D02*
X12930800Y-9045500D01*
X12930800Y-9274500D02*
X12955800Y-9299500D01*
X12955800Y-9274500D02*
X12930800Y-9299500D01*
X12930800Y-10290500D02*
X12955800Y-10315500D01*
X12955800Y-10290500D02*
X12930800Y-10315500D01*
X12930800Y-10544500D02*
X12955800Y-10569500D01*
X12955800Y-10544500D02*
X12930800Y-10569500D01*
X12930800Y-10798500D02*
X12955800Y-10823500D01*
X12955800Y-10798500D02*
X12930800Y-10823500D01*
X12930800Y-11306500D02*
X12955800Y-11331500D01*
X12955800Y-11306500D02*
X12930800Y-11331500D01*
X12930800Y-11560500D02*
X12955800Y-11585500D01*
X12955800Y-11560500D02*
X12930800Y-11585500D01*
X12930800Y-12322500D02*
X12955800Y-12347500D01*
X12955800Y-12322500D02*
X12930800Y-12347500D01*
X12930800Y-12576500D02*
X12955800Y-12601500D01*
X12955800Y-12576500D02*
X12930800Y-12601500D01*
X12930800Y-13846500D02*
X12955800Y-13871500D01*
X12955800Y-13846500D02*
X12930800Y-13871500D01*
X12930800Y-14100500D02*
X12955800Y-14125500D01*
X12955800Y-14100500D02*
X12930800Y-14125500D01*
X12930800Y-14354500D02*
X12955800Y-14379500D01*
X12955800Y-14354500D02*
X12930800Y-14379500D01*
X12930800Y-14608500D02*
X12955800Y-14633500D01*
X12955800Y-14608500D02*
X12930800Y-14633500D01*
X13184800Y-8766500D02*
X13209800Y-8791500D01*
X13209800Y-8766500D02*
X13184800Y-8791500D01*
X13184800Y-9020500D02*
X13209800Y-9045500D01*
X13209800Y-9020500D02*
X13184800Y-9045500D01*
X13184800Y-9274500D02*
X13209800Y-9299500D01*
X13209800Y-9274500D02*
X13184800Y-9299500D01*
X13184800Y-9782500D02*
X13209800Y-9807500D01*
X13209800Y-9782500D02*
X13184800Y-9807500D01*
X13184800Y-12576500D02*
X13209800Y-12601500D01*
X13209800Y-12576500D02*
X13184800Y-12601500D01*
X13184800Y-14354500D02*
X13209800Y-14379500D01*
X13209800Y-14354500D02*
X13184800Y-14379500D01*
X13184800Y-14608500D02*
X13209800Y-14633500D01*
X13209800Y-14608500D02*
X13184800Y-14633500D01*
X13438800Y-8004500D02*
X13463800Y-8029500D01*
X13463800Y-8004500D02*
X13438800Y-8029500D01*
X13438800Y-8258500D02*
X13463800Y-8283500D01*
X13463800Y-8258500D02*
X13438800Y-8283500D01*
X13438800Y-8512500D02*
X13463800Y-8537500D01*
X13463800Y-8512500D02*
X13438800Y-8537500D01*
X13438800Y-8766500D02*
X13463800Y-8791500D01*
X13463800Y-8766500D02*
X13438800Y-8791500D01*
X13438800Y-9020500D02*
X13463800Y-9045500D01*
X13463800Y-9020500D02*
X13438800Y-9045500D01*
X13438800Y-9274500D02*
X13463800Y-9299500D01*
X13463800Y-9274500D02*
X13438800Y-9299500D01*
X13438800Y-9782500D02*
X13463800Y-9807500D01*
X13463800Y-9782500D02*
X13438800Y-9807500D01*
X13438800Y-10290500D02*
X13463800Y-10315500D01*
X13463800Y-10290500D02*
X13438800Y-10315500D01*
X13438800Y-10544500D02*
X13463800Y-10569500D01*
X13463800Y-10544500D02*
X13438800Y-10569500D01*
X13438800Y-10798500D02*
X13463800Y-10823500D01*
X13463800Y-10798500D02*
X13438800Y-10823500D01*
X13438800Y-11306500D02*
X13463800Y-11331500D01*
X13463800Y-11306500D02*
X13438800Y-11331500D01*
X13438800Y-11560500D02*
X13463800Y-11585500D01*
X13463800Y-11560500D02*
X13438800Y-11585500D01*
X13438800Y-11814500D02*
X13463800Y-11839500D01*
X13463800Y-11814500D02*
X13438800Y-11839500D01*
X13438800Y-12068500D02*
X13463800Y-12093500D01*
X13463800Y-12068500D02*
X13438800Y-12093500D01*
X13438800Y-12322500D02*
X13463800Y-12347500D01*
X13463800Y-12322500D02*
X13438800Y-12347500D01*
X13438800Y-12576500D02*
X13463800Y-12601500D01*
X13463800Y-12576500D02*
X13438800Y-12601500D01*
X13438800Y-14354500D02*
X13463800Y-14379500D01*
X13463800Y-14354500D02*
X13438800Y-14379500D01*
X13438800Y-14608500D02*
X13463800Y-14633500D01*
X13463800Y-14608500D02*
X13438800Y-14633500D01*
X13692800Y-9782500D02*
X13717800Y-9807500D01*
X13717800Y-9782500D02*
X13692800Y-9807500D01*
X13692800Y-10290500D02*
X13717800Y-10315500D01*
X13717800Y-10290500D02*
X13692800Y-10315500D01*
X13692800Y-10544500D02*
X13717800Y-10569500D01*
X13717800Y-10544500D02*
X13692800Y-10569500D01*
X13692800Y-10798500D02*
X13717800Y-10823500D01*
X13717800Y-10798500D02*
X13692800Y-10823500D01*
X13692800Y-11052500D02*
X13717800Y-11077500D01*
X13717800Y-11052500D02*
X13692800Y-11077500D01*
X13692800Y-11306500D02*
X13717800Y-11331500D01*
X13717800Y-11306500D02*
X13692800Y-11331500D01*
X13692800Y-11560500D02*
X13717800Y-11585500D01*
X13717800Y-11560500D02*
X13692800Y-11585500D01*
X13692800Y-12576500D02*
X13717800Y-12601500D01*
X13717800Y-12576500D02*
X13692800Y-12601500D01*
X13692800Y-13846500D02*
X13717800Y-13871500D01*
X13717800Y-13846500D02*
X13692800Y-13871500D01*
X13692800Y-14100500D02*
X13717800Y-14125500D01*
X13717800Y-14100500D02*
X13692800Y-14125500D01*
X13692800Y-14354500D02*
X13717800Y-14379500D01*
X13717800Y-14354500D02*
X13692800Y-14379500D01*
X13692800Y-14608500D02*
X13717800Y-14633500D01*
X13717800Y-14608500D02*
X13692800Y-14633500D01*
X13946800Y-7750500D02*
X13971800Y-7775500D01*
X13971800Y-7750500D02*
X13946800Y-7775500D01*
X13946800Y-8004500D02*
X13971800Y-8029500D01*
X13971800Y-8004500D02*
X13946800Y-8029500D01*
X13946800Y-8258500D02*
X13971800Y-8283500D01*
X13971800Y-8258500D02*
X13946800Y-8283500D01*
X13946800Y-8512500D02*
X13971800Y-8537500D01*
X13971800Y-8512500D02*
X13946800Y-8537500D01*
X13946800Y-8766500D02*
X13971800Y-8791500D01*
X13971800Y-8766500D02*
X13946800Y-8791500D01*
X13946800Y-9020500D02*
X13971800Y-9045500D01*
X13971800Y-9020500D02*
X13946800Y-9045500D01*
X13946800Y-9274500D02*
X13971800Y-9299500D01*
X13971800Y-9274500D02*
X13946800Y-9299500D01*
X13946800Y-9528500D02*
X13971800Y-9553500D01*
X13971800Y-9528500D02*
X13946800Y-9553500D01*
X13946800Y-9782500D02*
X13971800Y-9807500D01*
X13971800Y-9782500D02*
X13946800Y-9807500D01*
X13946800Y-10290500D02*
X13971800Y-10315500D01*
X13971800Y-10290500D02*
X13946800Y-10315500D01*
X13946800Y-10544500D02*
X13971800Y-10569500D01*
X13971800Y-10544500D02*
X13946800Y-10569500D01*
X13946800Y-10798500D02*
X13971800Y-10823500D01*
X13971800Y-10798500D02*
X13946800Y-10823500D01*
X13946800Y-11052500D02*
X13971800Y-11077500D01*
X13971800Y-11052500D02*
X13946800Y-11077500D01*
X13946800Y-11306500D02*
X13971800Y-11331500D01*
X13971800Y-11306500D02*
X13946800Y-11331500D01*
X13946800Y-11560500D02*
X13971800Y-11585500D01*
X13971800Y-11560500D02*
X13946800Y-11585500D01*
X13946800Y-12576500D02*
X13971800Y-12601500D01*
X13971800Y-12576500D02*
X13946800Y-12601500D01*
X13946800Y-13338500D02*
X13971800Y-13363500D01*
X13971800Y-13338500D02*
X13946800Y-13363500D01*
X13946800Y-13846500D02*
X13971800Y-13871500D01*
X13971800Y-13846500D02*
X13946800Y-13871500D01*
X13946800Y-14100500D02*
X13971800Y-14125500D01*
X13971800Y-14100500D02*
X13946800Y-14125500D01*
X13946800Y-14354500D02*
X13971800Y-14379500D01*
X13971800Y-14354500D02*
X13946800Y-14379500D01*
X13946800Y-14608500D02*
X13971800Y-14633500D01*
X13971800Y-14608500D02*
X13946800Y-14633500D01*
X14200800Y-10290500D02*
X14225800Y-10315500D01*
X14225800Y-10290500D02*
X14200800Y-10315500D01*
X14200800Y-10544500D02*
X14225800Y-10569500D01*
X14225800Y-10544500D02*
X14200800Y-10569500D01*
X14200800Y-10798500D02*
X14225800Y-10823500D01*
X14225800Y-10798500D02*
X14200800Y-10823500D01*
X14200800Y-11052500D02*
X14225800Y-11077500D01*
X14225800Y-11052500D02*
X14200800Y-11077500D01*
X14200800Y-11306500D02*
X14225800Y-11331500D01*
X14225800Y-11306500D02*
X14200800Y-11331500D01*
X14200800Y-11560500D02*
X14225800Y-11585500D01*
X14225800Y-11560500D02*
X14200800Y-11585500D01*
X14200800Y-11814500D02*
X14225800Y-11839500D01*
X14225800Y-11814500D02*
X14200800Y-11839500D01*
X14200800Y-12068500D02*
X14225800Y-12093500D01*
X14225800Y-12068500D02*
X14200800Y-12093500D01*
X14200800Y-12322500D02*
X14225800Y-12347500D01*
X14225800Y-12322500D02*
X14200800Y-12347500D01*
X14200800Y-12576500D02*
X14225800Y-12601500D01*
X14225800Y-12576500D02*
X14200800Y-12601500D01*
X14200800Y-12830500D02*
X14225800Y-12855500D01*
X14225800Y-12830500D02*
X14200800Y-12855500D01*
X14200800Y-13084500D02*
X14225800Y-13109500D01*
X14225800Y-13084500D02*
X14200800Y-13109500D01*
X14200800Y-13338500D02*
X14225800Y-13363500D01*
X14225800Y-13338500D02*
X14200800Y-13363500D01*
X14200800Y-13592500D02*
X14225800Y-13617500D01*
X14225800Y-13592500D02*
X14200800Y-13617500D01*
X14200800Y-13846500D02*
X14225800Y-13871500D01*
X14225800Y-13846500D02*
X14200800Y-13871500D01*
X14200800Y-14100500D02*
X14225800Y-14125500D01*
X14225800Y-14100500D02*
X14200800Y-14125500D01*
X14200800Y-14354500D02*
X14225800Y-14379500D01*
X14225800Y-14354500D02*
X14200800Y-14379500D01*
X14200800Y-14608500D02*
X14225800Y-14633500D01*
X14225800Y-14608500D02*
X14200800Y-14633500D01*
D13*
X10649000Y-8935000D02*
G75*
G03*
X10649000Y-8935000I-35000J0D01*
G01*
X10649000Y-9460000D02*
G75*
G03*
X10649000Y-9460000I-35000J0D01*
G01*
X11270000Y-11070000D02*
G75*
G03*
X11270000Y-11070000I-35000J0D01*
G01*
X13370000Y-11095000D02*
G75*
G03*
X13370000Y-11095000I-35000J0D01*
G01*
D14*
X11039000Y-9962500D02*
X11039000Y-10052500D01*
X10994000Y-10007500D02*
X11084000Y-10007500D01*
X11039000Y-10216500D02*
X11039000Y-10306500D01*
X10994000Y-10261500D02*
X11084000Y-10261500D01*
X11389000Y-8663500D02*
X11389000Y-8753500D01*
X11344000Y-8708500D02*
X11434000Y-8708500D01*
X11389000Y-8917500D02*
X11389000Y-9007500D01*
X11344000Y-8962500D02*
X11434000Y-8962500D01*
D15*
X12527427Y-9882427D02*
X12527427Y-9797573D01*
X12442573Y-9797573D01*
X12442573Y-9882427D01*
X12527427Y-9882427D01*
X12781427Y-9882427D02*
X12781427Y-9797573D01*
X12696573Y-9797573D01*
X12696573Y-9882427D01*
X12781427Y-9882427D01*
X13035427Y-9882427D02*
X13035427Y-9797573D01*
X12950573Y-9797573D01*
X12950573Y-9882427D01*
X13035427Y-9882427D01*
D16*
X10740000Y-12131000D02*
X10815000Y-12056000D01*
X10740000Y-11981000D01*
X10665000Y-12056000D01*
X10740000Y-12131000D01*
X11830000Y-12131000D02*
X11905000Y-12056000D01*
X11830000Y-11981000D01*
X11755000Y-12056000D01*
X11830000Y-12131000D01*
X12790000Y-12131000D02*
X12865000Y-12056000D01*
X12790000Y-11981000D01*
X12715000Y-12056000D01*
X12790000Y-12131000D01*
X13880000Y-12131000D02*
X13955000Y-12056000D01*
X13880000Y-11981000D01*
X13805000Y-12056000D01*
X13880000Y-12131000D01*
D17*
X10686100Y-13336828D02*
X10942400Y-13593128D01*
X10942400Y-13336828D02*
X10686100Y-13593128D01*
X10942400Y-13464978D02*
G75*
G03*
X10942400Y-13464978I-128150J0D01*
G01*
X10971850Y-12841894D02*
X11228150Y-13098194D01*
X11228150Y-12841894D02*
X10971850Y-13098194D01*
X11228150Y-12970044D02*
G75*
G03*
X11228150Y-12970044I-128150J0D01*
G01*
X11257600Y-13336828D02*
X11513900Y-13593128D01*
X11513900Y-13336828D02*
X11257600Y-13593128D01*
X11513900Y-13464978D02*
G75*
G03*
X11513900Y-13464978I-128150J0D01*
G01*
X12171850Y-12887650D02*
X12428150Y-13143950D01*
X12428150Y-12887650D02*
X12171850Y-13143950D01*
X12428150Y-13015800D02*
G75*
G03*
X12428150Y-13015800I-128150J0D01*
G01*
X12171850Y-13471850D02*
X12428150Y-13728150D01*
X12428150Y-13471850D02*
X12171850Y-13728150D01*
X12428150Y-13600000D02*
G75*
G03*
X12428150Y-13600000I-128150J0D01*
G01*
X12988640Y-12833640D02*
X13244940Y-13089940D01*
X13244940Y-12833640D02*
X12988640Y-13089940D01*
X13244940Y-12961790D02*
G75*
G03*
X13244940Y-12961790I-128150J0D01*
G01*
X12988640Y-13400060D02*
X13244940Y-13656360D01*
X13244940Y-13400060D02*
X12988640Y-13656360D01*
X13244940Y-13528210D02*
G75*
G03*
X13244940Y-13528210I-128150J0D01*
G01*
X13555060Y-12833640D02*
X13811360Y-13089940D01*
X13811360Y-12833640D02*
X13555060Y-13089940D01*
X13811360Y-12961790D02*
G75*
G03*
X13811360Y-12961790I-128150J0D01*
G01*
X13555060Y-13400060D02*
X13811360Y-13656360D01*
X13811360Y-13400060D02*
X13555060Y-13656360D01*
X13811360Y-13528210D02*
G75*
G03*
X13811360Y-13528210I-128150J0D01*
G01*
D18*
X10535000Y-6570000D02*
X11035000Y-7070000D01*
X11035000Y-6570000D02*
X10535000Y-7070000D01*
X10785000Y-6570000D02*
X10785000Y-7070000D01*
X10535000Y-6820000D02*
X11035000Y-6820000D01*
X13385000Y-6570000D02*
X13885000Y-7070000D01*
X13885000Y-6570000D02*
X13385000Y-7070000D01*
X13635000Y-6570000D02*
X13635000Y-7070000D01*
X13385000Y-6820000D02*
X13885000Y-6820000D01*
D11*
X10207619Y-15205476D02*
X10207619Y-15005476D01*
X10255238Y-15005476D01*
X10283810Y-15015000D01*
X10302857Y-15034048D01*
X10312381Y-15053095D01*
X10321905Y-15091190D01*
X10321905Y-15119762D01*
X10312381Y-15157857D01*
X10302857Y-15176905D01*
X10283810Y-15195952D01*
X10255238Y-15205476D01*
X10207619Y-15205476D01*
X10407619Y-15205476D02*
X10407619Y-15072143D01*
X10407619Y-15110238D02*
X10417143Y-15091190D01*
X10426667Y-15081667D01*
X10445714Y-15072143D01*
X10464762Y-15072143D01*
X10531429Y-15205476D02*
X10531429Y-15072143D01*
X10531429Y-15005476D02*
X10521905Y-15015000D01*
X10531429Y-15024524D01*
X10540952Y-15015000D01*
X10531429Y-15005476D01*
X10531429Y-15024524D01*
X10655238Y-15205476D02*
X10636190Y-15195952D01*
X10626667Y-15176905D01*
X10626667Y-15005476D01*
X10760000Y-15205476D02*
X10740952Y-15195952D01*
X10731429Y-15176905D01*
X10731429Y-15005476D01*
X10988571Y-15205476D02*
X10988571Y-15005476D01*
X11055238Y-15148333D01*
X11121905Y-15005476D01*
X11121905Y-15205476D01*
X11302857Y-15205476D02*
X11302857Y-15100714D01*
X11293333Y-15081667D01*
X11274286Y-15072143D01*
X11236190Y-15072143D01*
X11217143Y-15081667D01*
X11302857Y-15195952D02*
X11283809Y-15205476D01*
X11236190Y-15205476D01*
X11217143Y-15195952D01*
X11207619Y-15176905D01*
X11207619Y-15157857D01*
X11217143Y-15138809D01*
X11236190Y-15129286D01*
X11283809Y-15129286D01*
X11302857Y-15119762D01*
X11398095Y-15072143D02*
X11398095Y-15272143D01*
X11398095Y-15081667D02*
X11417143Y-15072143D01*
X11455238Y-15072143D01*
X11474286Y-15081667D01*
X11483809Y-15091190D01*
X11493333Y-15110238D01*
X11493333Y-15167381D01*
X11483809Y-15186428D01*
X11474286Y-15195952D01*
X11455238Y-15205476D01*
X11417143Y-15205476D01*
X11398095Y-15195952D01*
X11579048Y-15186428D02*
X11588571Y-15195952D01*
X11579048Y-15205476D01*
X11569524Y-15195952D01*
X11579048Y-15186428D01*
X11579048Y-15205476D01*
X11579048Y-15081667D02*
X11588571Y-15091190D01*
X11579048Y-15100714D01*
X11569524Y-15091190D01*
X11579048Y-15081667D01*
X11579048Y-15100714D01*
D12*
X9925000Y-15522500D02*
X9950000Y-15547500D01*
X9950000Y-15522500D02*
X9925000Y-15547500D01*
D11*
X10245714Y-15425476D02*
X10264762Y-15425476D01*
X10283810Y-15435000D01*
X10293333Y-15444524D01*
X10302857Y-15463571D01*
X10312381Y-15501667D01*
X10312381Y-15549286D01*
X10302857Y-15587381D01*
X10293333Y-15606428D01*
X10283810Y-15615952D01*
X10264762Y-15625476D01*
X10245714Y-15625476D01*
X10226667Y-15615952D01*
X10217143Y-15606428D01*
X10207619Y-15587381D01*
X10198095Y-15549286D01*
X10198095Y-15501667D01*
X10207619Y-15463571D01*
X10217143Y-15444524D01*
X10226667Y-15435000D01*
X10245714Y-15425476D01*
X10398095Y-15606428D02*
X10407619Y-15615952D01*
X10398095Y-15625476D01*
X10388571Y-15615952D01*
X10398095Y-15606428D01*
X10398095Y-15625476D01*
X10483810Y-15444524D02*
X10493333Y-15435000D01*
X10512381Y-15425476D01*
X10560000Y-15425476D01*
X10579048Y-15435000D01*
X10588571Y-15444524D01*
X10598095Y-15463571D01*
X10598095Y-15482619D01*
X10588571Y-15511190D01*
X10474286Y-15625476D01*
X10598095Y-15625476D01*
X10779048Y-15425476D02*
X10683810Y-15425476D01*
X10674286Y-15520714D01*
X10683810Y-15511190D01*
X10702857Y-15501667D01*
X10750476Y-15501667D01*
X10769524Y-15511190D01*
X10779048Y-15520714D01*
X10788571Y-15539762D01*
X10788571Y-15587381D01*
X10779048Y-15606428D01*
X10769524Y-15615952D01*
X10750476Y-15625476D01*
X10702857Y-15625476D01*
X10683810Y-15615952D01*
X10674286Y-15606428D01*
X10912381Y-15425476D02*
X10931429Y-15425476D01*
X10950476Y-15435000D01*
X10960000Y-15444524D01*
X10969524Y-15463571D01*
X10979048Y-15501667D01*
X10979048Y-15549286D01*
X10969524Y-15587381D01*
X10960000Y-15606428D01*
X10950476Y-15615952D01*
X10931429Y-15625476D01*
X10912381Y-15625476D01*
X10893333Y-15615952D01*
X10883810Y-15606428D01*
X10874286Y-15587381D01*
X10864762Y-15549286D01*
X10864762Y-15501667D01*
X10874286Y-15463571D01*
X10883810Y-15444524D01*
X10893333Y-15435000D01*
X10912381Y-15425476D01*
X11064762Y-15625476D02*
X11064762Y-15492143D01*
X11064762Y-15511190D02*
X11074286Y-15501667D01*
X11093333Y-15492143D01*
X11121905Y-15492143D01*
X11140952Y-15501667D01*
X11150476Y-15520714D01*
X11150476Y-15625476D01*
X11150476Y-15520714D02*
X11160000Y-15501667D01*
X11179048Y-15492143D01*
X11207619Y-15492143D01*
X11226667Y-15501667D01*
X11236190Y-15520714D01*
X11236190Y-15625476D01*
X11331428Y-15625476D02*
X11331428Y-15492143D01*
X11331428Y-15511190D02*
X11340952Y-15501667D01*
X11360000Y-15492143D01*
X11388571Y-15492143D01*
X11407619Y-15501667D01*
X11417143Y-15520714D01*
X11417143Y-15625476D01*
X11417143Y-15520714D02*
X11426667Y-15501667D01*
X11445714Y-15492143D01*
X11474286Y-15492143D01*
X11493333Y-15501667D01*
X11502857Y-15520714D01*
X11502857Y-15625476D01*
X11893333Y-15415952D02*
X11721905Y-15673095D01*
X12150476Y-15425476D02*
X12169524Y-15425476D01*
X12188571Y-15435000D01*
X12198095Y-15444524D01*
X12207619Y-15463571D01*
X12217143Y-15501667D01*
X12217143Y-15549286D01*
X12207619Y-15587381D01*
X12198095Y-15606428D01*
X12188571Y-15615952D01*
X12169524Y-15625476D01*
X12150476Y-15625476D01*
X12131428Y-15615952D01*
X12121905Y-15606428D01*
X12112381Y-15587381D01*
X12102857Y-15549286D01*
X12102857Y-15501667D01*
X12112381Y-15463571D01*
X12121905Y-15444524D01*
X12131428Y-15435000D01*
X12150476Y-15425476D01*
X12302857Y-15606428D02*
X12312381Y-15615952D01*
X12302857Y-15625476D01*
X12293333Y-15615952D01*
X12302857Y-15606428D01*
X12302857Y-15625476D01*
X12436190Y-15425476D02*
X12455238Y-15425476D01*
X12474286Y-15435000D01*
X12483809Y-15444524D01*
X12493333Y-15463571D01*
X12502857Y-15501667D01*
X12502857Y-15549286D01*
X12493333Y-15587381D01*
X12483809Y-15606428D01*
X12474286Y-15615952D01*
X12455238Y-15625476D01*
X12436190Y-15625476D01*
X12417143Y-15615952D01*
X12407619Y-15606428D01*
X12398095Y-15587381D01*
X12388571Y-15549286D01*
X12388571Y-15501667D01*
X12398095Y-15463571D01*
X12407619Y-15444524D01*
X12417143Y-15435000D01*
X12436190Y-15425476D01*
X12626667Y-15425476D02*
X12645714Y-15425476D01*
X12664762Y-15435000D01*
X12674286Y-15444524D01*
X12683809Y-15463571D01*
X12693333Y-15501667D01*
X12693333Y-15549286D01*
X12683809Y-15587381D01*
X12674286Y-15606428D01*
X12664762Y-15615952D01*
X12645714Y-15625476D01*
X12626667Y-15625476D01*
X12607619Y-15615952D01*
X12598095Y-15606428D01*
X12588571Y-15587381D01*
X12579048Y-15549286D01*
X12579048Y-15501667D01*
X12588571Y-15463571D01*
X12598095Y-15444524D01*
X12607619Y-15435000D01*
X12626667Y-15425476D01*
X12788571Y-15625476D02*
X12826667Y-15625476D01*
X12845714Y-15615952D01*
X12855238Y-15606428D01*
X12874286Y-15577857D01*
X12883809Y-15539762D01*
X12883809Y-15463571D01*
X12874286Y-15444524D01*
X12864762Y-15435000D01*
X12845714Y-15425476D01*
X12807619Y-15425476D01*
X12788571Y-15435000D01*
X12779048Y-15444524D01*
X12769524Y-15463571D01*
X12769524Y-15511190D01*
X12779048Y-15530238D01*
X12788571Y-15539762D01*
X12807619Y-15549286D01*
X12845714Y-15549286D01*
X12864762Y-15539762D01*
X12874286Y-15530238D01*
X12883809Y-15511190D01*
X12998095Y-15511190D02*
X12979048Y-15501667D01*
X12969524Y-15492143D01*
X12960000Y-15473095D01*
X12960000Y-15463571D01*
X12969524Y-15444524D01*
X12979048Y-15435000D01*
X12998095Y-15425476D01*
X13036190Y-15425476D01*
X13055238Y-15435000D01*
X13064762Y-15444524D01*
X13074286Y-15463571D01*
X13074286Y-15473095D01*
X13064762Y-15492143D01*
X13055238Y-15501667D01*
X13036190Y-15511190D01*
X12998095Y-15511190D01*
X12979048Y-15520714D01*
X12969524Y-15530238D01*
X12960000Y-15549286D01*
X12960000Y-15587381D01*
X12969524Y-15606428D01*
X12979048Y-15615952D01*
X12998095Y-15625476D01*
X13036190Y-15625476D01*
X13055238Y-15615952D01*
X13064762Y-15606428D01*
X13074286Y-15587381D01*
X13074286Y-15549286D01*
X13064762Y-15530238D01*
X13055238Y-15520714D01*
X13036190Y-15511190D01*
X13150476Y-15425476D02*
X13150476Y-15463571D01*
X13226667Y-15425476D02*
X13226667Y-15463571D01*
X13521905Y-15701667D02*
X13512381Y-15692143D01*
X13493333Y-15663571D01*
X13483809Y-15644524D01*
X13474286Y-15615952D01*
X13464762Y-15568333D01*
X13464762Y-15530238D01*
X13474286Y-15482619D01*
X13483809Y-15454048D01*
X13493333Y-15435000D01*
X13512381Y-15406428D01*
X13521905Y-15396905D01*
X13579048Y-15425476D02*
X13702857Y-15425476D01*
X13636190Y-15501667D01*
X13664762Y-15501667D01*
X13683809Y-15511190D01*
X13693333Y-15520714D01*
X13702857Y-15539762D01*
X13702857Y-15587381D01*
X13693333Y-15606428D01*
X13683809Y-15615952D01*
X13664762Y-15625476D01*
X13607619Y-15625476D01*
X13588571Y-15615952D01*
X13579048Y-15606428D01*
X13769524Y-15425476D02*
X13893333Y-15425476D01*
X13826667Y-15501667D01*
X13855238Y-15501667D01*
X13874286Y-15511190D01*
X13883809Y-15520714D01*
X13893333Y-15539762D01*
X13893333Y-15587381D01*
X13883809Y-15606428D01*
X13874286Y-15615952D01*
X13855238Y-15625476D01*
X13798095Y-15625476D01*
X13779048Y-15615952D01*
X13769524Y-15606428D01*
X14017143Y-15425476D02*
X14036190Y-15425476D01*
X14055238Y-15435000D01*
X14064762Y-15444524D01*
X14074286Y-15463571D01*
X14083809Y-15501667D01*
X14083809Y-15549286D01*
X14074286Y-15587381D01*
X14064762Y-15606428D01*
X14055238Y-15615952D01*
X14036190Y-15625476D01*
X14017143Y-15625476D01*
X13998095Y-15615952D01*
X13988571Y-15606428D01*
X13979048Y-15587381D01*
X13969524Y-15549286D01*
X13969524Y-15501667D01*
X13979048Y-15463571D01*
X13988571Y-15444524D01*
X13998095Y-15435000D01*
X14017143Y-15425476D01*
X14321905Y-15625476D02*
X14321905Y-15425476D01*
X14407619Y-15625476D02*
X14407619Y-15520714D01*
X14398095Y-15501667D01*
X14379048Y-15492143D01*
X14350476Y-15492143D01*
X14331428Y-15501667D01*
X14321905Y-15511190D01*
X14531428Y-15625476D02*
X14512381Y-15615952D01*
X14502857Y-15606428D01*
X14493333Y-15587381D01*
X14493333Y-15530238D01*
X14502857Y-15511190D01*
X14512381Y-15501667D01*
X14531428Y-15492143D01*
X14560000Y-15492143D01*
X14579048Y-15501667D01*
X14588571Y-15511190D01*
X14598095Y-15530238D01*
X14598095Y-15587381D01*
X14588571Y-15606428D01*
X14579048Y-15615952D01*
X14560000Y-15625476D01*
X14531428Y-15625476D01*
X14712381Y-15625476D02*
X14693333Y-15615952D01*
X14683809Y-15596905D01*
X14683809Y-15425476D01*
X14864762Y-15615952D02*
X14845714Y-15625476D01*
X14807619Y-15625476D01*
X14788571Y-15615952D01*
X14779048Y-15596905D01*
X14779048Y-15520714D01*
X14788571Y-15501667D01*
X14807619Y-15492143D01*
X14845714Y-15492143D01*
X14864762Y-15501667D01*
X14874286Y-15520714D01*
X14874286Y-15539762D01*
X14779048Y-15558809D01*
X14950476Y-15615952D02*
X14969524Y-15625476D01*
X15007619Y-15625476D01*
X15026667Y-15615952D01*
X15036190Y-15596905D01*
X15036190Y-15587381D01*
X15026667Y-15568333D01*
X15007619Y-15558809D01*
X14979048Y-15558809D01*
X14960000Y-15549286D01*
X14950476Y-15530238D01*
X14950476Y-15520714D01*
X14960000Y-15501667D01*
X14979048Y-15492143D01*
X15007619Y-15492143D01*
X15026667Y-15501667D01*
X15102857Y-15701667D02*
X15112381Y-15692143D01*
X15131428Y-15663571D01*
X15140952Y-15644524D01*
X15150476Y-15615952D01*
X15160000Y-15568333D01*
X15160000Y-15530238D01*
X15150476Y-15482619D01*
X15140952Y-15454048D01*
X15131428Y-15435000D01*
X15112381Y-15406428D01*
X15102857Y-15396905D01*
D13*
X9950000Y-15799000D02*
G75*
G03*
X9950000Y-15799000I-35000J0D01*
G01*
D11*
X10245714Y-15689476D02*
X10264762Y-15689476D01*
X10283810Y-15699000D01*
X10293333Y-15708524D01*
X10302857Y-15727571D01*
X10312381Y-15765667D01*
X10312381Y-15813286D01*
X10302857Y-15851381D01*
X10293333Y-15870428D01*
X10283810Y-15879952D01*
X10264762Y-15889476D01*
X10245714Y-15889476D01*
X10226667Y-15879952D01*
X10217143Y-15870428D01*
X10207619Y-15851381D01*
X10198095Y-15813286D01*
X10198095Y-15765667D01*
X10207619Y-15727571D01*
X10217143Y-15708524D01*
X10226667Y-15699000D01*
X10245714Y-15689476D01*
X10398095Y-15870428D02*
X10407619Y-15879952D01*
X10398095Y-15889476D01*
X10388571Y-15879952D01*
X10398095Y-15870428D01*
X10398095Y-15889476D01*
X10474286Y-15689476D02*
X10607619Y-15689476D01*
X10521905Y-15889476D01*
X10721905Y-15689476D02*
X10740952Y-15689476D01*
X10760000Y-15699000D01*
X10769524Y-15708524D01*
X10779048Y-15727571D01*
X10788571Y-15765667D01*
X10788571Y-15813286D01*
X10779048Y-15851381D01*
X10769524Y-15870428D01*
X10760000Y-15879952D01*
X10740952Y-15889476D01*
X10721905Y-15889476D01*
X10702857Y-15879952D01*
X10693333Y-15870428D01*
X10683810Y-15851381D01*
X10674286Y-15813286D01*
X10674286Y-15765667D01*
X10683810Y-15727571D01*
X10693333Y-15708524D01*
X10702857Y-15699000D01*
X10721905Y-15689476D01*
X10912381Y-15689476D02*
X10931429Y-15689476D01*
X10950476Y-15699000D01*
X10960000Y-15708524D01*
X10969524Y-15727571D01*
X10979048Y-15765667D01*
X10979048Y-15813286D01*
X10969524Y-15851381D01*
X10960000Y-15870428D01*
X10950476Y-15879952D01*
X10931429Y-15889476D01*
X10912381Y-15889476D01*
X10893333Y-15879952D01*
X10883810Y-15870428D01*
X10874286Y-15851381D01*
X10864762Y-15813286D01*
X10864762Y-15765667D01*
X10874286Y-15727571D01*
X10883810Y-15708524D01*
X10893333Y-15699000D01*
X10912381Y-15689476D01*
X11064762Y-15889476D02*
X11064762Y-15756143D01*
X11064762Y-15775190D02*
X11074286Y-15765667D01*
X11093333Y-15756143D01*
X11121905Y-15756143D01*
X11140952Y-15765667D01*
X11150476Y-15784714D01*
X11150476Y-15889476D01*
X11150476Y-15784714D02*
X11160000Y-15765667D01*
X11179048Y-15756143D01*
X11207619Y-15756143D01*
X11226667Y-15765667D01*
X11236190Y-15784714D01*
X11236190Y-15889476D01*
X11331428Y-15889476D02*
X11331428Y-15756143D01*
X11331428Y-15775190D02*
X11340952Y-15765667D01*
X11360000Y-15756143D01*
X11388571Y-15756143D01*
X11407619Y-15765667D01*
X11417143Y-15784714D01*
X11417143Y-15889476D01*
X11417143Y-15784714D02*
X11426667Y-15765667D01*
X11445714Y-15756143D01*
X11474286Y-15756143D01*
X11493333Y-15765667D01*
X11502857Y-15784714D01*
X11502857Y-15889476D01*
X11893333Y-15679952D02*
X11721905Y-15937095D01*
X12150476Y-15689476D02*
X12169524Y-15689476D01*
X12188571Y-15699000D01*
X12198095Y-15708524D01*
X12207619Y-15727571D01*
X12217143Y-15765667D01*
X12217143Y-15813286D01*
X12207619Y-15851381D01*
X12198095Y-15870428D01*
X12188571Y-15879952D01*
X12169524Y-15889476D01*
X12150476Y-15889476D01*
X12131428Y-15879952D01*
X12121905Y-15870428D01*
X12112381Y-15851381D01*
X12102857Y-15813286D01*
X12102857Y-15765667D01*
X12112381Y-15727571D01*
X12121905Y-15708524D01*
X12131428Y-15699000D01*
X12150476Y-15689476D01*
X12302857Y-15870428D02*
X12312381Y-15879952D01*
X12302857Y-15889476D01*
X12293333Y-15879952D01*
X12302857Y-15870428D01*
X12302857Y-15889476D01*
X12436190Y-15689476D02*
X12455238Y-15689476D01*
X12474286Y-15699000D01*
X12483809Y-15708524D01*
X12493333Y-15727571D01*
X12502857Y-15765667D01*
X12502857Y-15813286D01*
X12493333Y-15851381D01*
X12483809Y-15870428D01*
X12474286Y-15879952D01*
X12455238Y-15889476D01*
X12436190Y-15889476D01*
X12417143Y-15879952D01*
X12407619Y-15870428D01*
X12398095Y-15851381D01*
X12388571Y-15813286D01*
X12388571Y-15765667D01*
X12398095Y-15727571D01*
X12407619Y-15708524D01*
X12417143Y-15699000D01*
X12436190Y-15689476D01*
X12579048Y-15708524D02*
X12588571Y-15699000D01*
X12607619Y-15689476D01*
X12655238Y-15689476D01*
X12674286Y-15699000D01*
X12683809Y-15708524D01*
X12693333Y-15727571D01*
X12693333Y-15746619D01*
X12683809Y-15775190D01*
X12569524Y-15889476D01*
X12693333Y-15889476D01*
X12760000Y-15689476D02*
X12893333Y-15689476D01*
X12807619Y-15889476D01*
X13055238Y-15689476D02*
X13017143Y-15689476D01*
X12998095Y-15699000D01*
X12988571Y-15708524D01*
X12969524Y-15737095D01*
X12960000Y-15775190D01*
X12960000Y-15851381D01*
X12969524Y-15870428D01*
X12979048Y-15879952D01*
X12998095Y-15889476D01*
X13036190Y-15889476D01*
X13055238Y-15879952D01*
X13064762Y-15870428D01*
X13074286Y-15851381D01*
X13074286Y-15803762D01*
X13064762Y-15784714D01*
X13055238Y-15775190D01*
X13036190Y-15765667D01*
X12998095Y-15765667D01*
X12979048Y-15775190D01*
X12969524Y-15784714D01*
X12960000Y-15803762D01*
X13150476Y-15689476D02*
X13150476Y-15727571D01*
X13226667Y-15689476D02*
X13226667Y-15727571D01*
X13521905Y-15965667D02*
X13512381Y-15956143D01*
X13493333Y-15927571D01*
X13483809Y-15908524D01*
X13474286Y-15879952D01*
X13464762Y-15832333D01*
X13464762Y-15794238D01*
X13474286Y-15746619D01*
X13483809Y-15718048D01*
X13493333Y-15699000D01*
X13512381Y-15670428D01*
X13521905Y-15660905D01*
X13683809Y-15756143D02*
X13683809Y-15889476D01*
X13636190Y-15679952D02*
X13588571Y-15822809D01*
X13712381Y-15822809D01*
X13940952Y-15889476D02*
X13940952Y-15689476D01*
X14026667Y-15889476D02*
X14026667Y-15784714D01*
X14017143Y-15765667D01*
X13998095Y-15756143D01*
X13969524Y-15756143D01*
X13950476Y-15765667D01*
X13940952Y-15775190D01*
X14150476Y-15889476D02*
X14131428Y-15879952D01*
X14121905Y-15870428D01*
X14112381Y-15851381D01*
X14112381Y-15794238D01*
X14121905Y-15775190D01*
X14131428Y-15765667D01*
X14150476Y-15756143D01*
X14179048Y-15756143D01*
X14198095Y-15765667D01*
X14207619Y-15775190D01*
X14217143Y-15794238D01*
X14217143Y-15851381D01*
X14207619Y-15870428D01*
X14198095Y-15879952D01*
X14179048Y-15889476D01*
X14150476Y-15889476D01*
X14331428Y-15889476D02*
X14312381Y-15879952D01*
X14302857Y-15860905D01*
X14302857Y-15689476D01*
X14483809Y-15879952D02*
X14464762Y-15889476D01*
X14426667Y-15889476D01*
X14407619Y-15879952D01*
X14398095Y-15860905D01*
X14398095Y-15784714D01*
X14407619Y-15765667D01*
X14426667Y-15756143D01*
X14464762Y-15756143D01*
X14483809Y-15765667D01*
X14493333Y-15784714D01*
X14493333Y-15803762D01*
X14398095Y-15822809D01*
X14569524Y-15879952D02*
X14588571Y-15889476D01*
X14626667Y-15889476D01*
X14645714Y-15879952D01*
X14655238Y-15860905D01*
X14655238Y-15851381D01*
X14645714Y-15832333D01*
X14626667Y-15822809D01*
X14598095Y-15822809D01*
X14579048Y-15813286D01*
X14569524Y-15794238D01*
X14569524Y-15784714D01*
X14579048Y-15765667D01*
X14598095Y-15756143D01*
X14626667Y-15756143D01*
X14645714Y-15765667D01*
X14721905Y-15965667D02*
X14731428Y-15956143D01*
X14750476Y-15927571D01*
X14760000Y-15908524D01*
X14769524Y-15879952D01*
X14779048Y-15832333D01*
X14779048Y-15794238D01*
X14769524Y-15746619D01*
X14760000Y-15718048D01*
X14750476Y-15699000D01*
X14731428Y-15670428D01*
X14721905Y-15660905D01*
D14*
X9905000Y-16018000D02*
X9905000Y-16108000D01*
X9860000Y-16063000D02*
X9950000Y-16063000D01*
D11*
X10245714Y-15953476D02*
X10264762Y-15953476D01*
X10283810Y-15963000D01*
X10293333Y-15972524D01*
X10302857Y-15991571D01*
X10312381Y-16029667D01*
X10312381Y-16077286D01*
X10302857Y-16115381D01*
X10293333Y-16134428D01*
X10283810Y-16143952D01*
X10264762Y-16153476D01*
X10245714Y-16153476D01*
X10226667Y-16143952D01*
X10217143Y-16134428D01*
X10207619Y-16115381D01*
X10198095Y-16077286D01*
X10198095Y-16029667D01*
X10207619Y-15991571D01*
X10217143Y-15972524D01*
X10226667Y-15963000D01*
X10245714Y-15953476D01*
X10398095Y-16134428D02*
X10407619Y-16143952D01*
X10398095Y-16153476D01*
X10388571Y-16143952D01*
X10398095Y-16134428D01*
X10398095Y-16153476D01*
X10502857Y-16153476D02*
X10540952Y-16153476D01*
X10560000Y-16143952D01*
X10569524Y-16134428D01*
X10588571Y-16105857D01*
X10598095Y-16067762D01*
X10598095Y-15991571D01*
X10588571Y-15972524D01*
X10579048Y-15963000D01*
X10560000Y-15953476D01*
X10521905Y-15953476D01*
X10502857Y-15963000D01*
X10493333Y-15972524D01*
X10483810Y-15991571D01*
X10483810Y-16039190D01*
X10493333Y-16058238D01*
X10502857Y-16067762D01*
X10521905Y-16077286D01*
X10560000Y-16077286D01*
X10579048Y-16067762D01*
X10588571Y-16058238D01*
X10598095Y-16039190D01*
X10721905Y-15953476D02*
X10740952Y-15953476D01*
X10760000Y-15963000D01*
X10769524Y-15972524D01*
X10779048Y-15991571D01*
X10788571Y-16029667D01*
X10788571Y-16077286D01*
X10779048Y-16115381D01*
X10769524Y-16134428D01*
X10760000Y-16143952D01*
X10740952Y-16153476D01*
X10721905Y-16153476D01*
X10702857Y-16143952D01*
X10693333Y-16134428D01*
X10683810Y-16115381D01*
X10674286Y-16077286D01*
X10674286Y-16029667D01*
X10683810Y-15991571D01*
X10693333Y-15972524D01*
X10702857Y-15963000D01*
X10721905Y-15953476D01*
X10912381Y-15953476D02*
X10931429Y-15953476D01*
X10950476Y-15963000D01*
X10960000Y-15972524D01*
X10969524Y-15991571D01*
X10979048Y-16029667D01*
X10979048Y-16077286D01*
X10969524Y-16115381D01*
X10960000Y-16134428D01*
X10950476Y-16143952D01*
X10931429Y-16153476D01*
X10912381Y-16153476D01*
X10893333Y-16143952D01*
X10883810Y-16134428D01*
X10874286Y-16115381D01*
X10864762Y-16077286D01*
X10864762Y-16029667D01*
X10874286Y-15991571D01*
X10883810Y-15972524D01*
X10893333Y-15963000D01*
X10912381Y-15953476D01*
X11064762Y-16153476D02*
X11064762Y-16020143D01*
X11064762Y-16039190D02*
X11074286Y-16029667D01*
X11093333Y-16020143D01*
X11121905Y-16020143D01*
X11140952Y-16029667D01*
X11150476Y-16048714D01*
X11150476Y-16153476D01*
X11150476Y-16048714D02*
X11160000Y-16029667D01*
X11179048Y-16020143D01*
X11207619Y-16020143D01*
X11226667Y-16029667D01*
X11236190Y-16048714D01*
X11236190Y-16153476D01*
X11331428Y-16153476D02*
X11331428Y-16020143D01*
X11331428Y-16039190D02*
X11340952Y-16029667D01*
X11360000Y-16020143D01*
X11388571Y-16020143D01*
X11407619Y-16029667D01*
X11417143Y-16048714D01*
X11417143Y-16153476D01*
X11417143Y-16048714D02*
X11426667Y-16029667D01*
X11445714Y-16020143D01*
X11474286Y-16020143D01*
X11493333Y-16029667D01*
X11502857Y-16048714D01*
X11502857Y-16153476D01*
X11893333Y-15943952D02*
X11721905Y-16201095D01*
X12150476Y-15953476D02*
X12169524Y-15953476D01*
X12188571Y-15963000D01*
X12198095Y-15972524D01*
X12207619Y-15991571D01*
X12217143Y-16029667D01*
X12217143Y-16077286D01*
X12207619Y-16115381D01*
X12198095Y-16134428D01*
X12188571Y-16143952D01*
X12169524Y-16153476D01*
X12150476Y-16153476D01*
X12131428Y-16143952D01*
X12121905Y-16134428D01*
X12112381Y-16115381D01*
X12102857Y-16077286D01*
X12102857Y-16029667D01*
X12112381Y-15991571D01*
X12121905Y-15972524D01*
X12131428Y-15963000D01*
X12150476Y-15953476D01*
X12302857Y-16134428D02*
X12312381Y-16143952D01*
X12302857Y-16153476D01*
X12293333Y-16143952D01*
X12302857Y-16134428D01*
X12302857Y-16153476D01*
X12436190Y-15953476D02*
X12455238Y-15953476D01*
X12474286Y-15963000D01*
X12483809Y-15972524D01*
X12493333Y-15991571D01*
X12502857Y-16029667D01*
X12502857Y-16077286D01*
X12493333Y-16115381D01*
X12483809Y-16134428D01*
X12474286Y-16143952D01*
X12455238Y-16153476D01*
X12436190Y-16153476D01*
X12417143Y-16143952D01*
X12407619Y-16134428D01*
X12398095Y-16115381D01*
X12388571Y-16077286D01*
X12388571Y-16029667D01*
X12398095Y-15991571D01*
X12407619Y-15972524D01*
X12417143Y-15963000D01*
X12436190Y-15953476D01*
X12569524Y-15953476D02*
X12693333Y-15953476D01*
X12626667Y-16029667D01*
X12655238Y-16029667D01*
X12674286Y-16039190D01*
X12683809Y-16048714D01*
X12693333Y-16067762D01*
X12693333Y-16115381D01*
X12683809Y-16134428D01*
X12674286Y-16143952D01*
X12655238Y-16153476D01*
X12598095Y-16153476D01*
X12579048Y-16143952D01*
X12569524Y-16134428D01*
X12874286Y-15953476D02*
X12779048Y-15953476D01*
X12769524Y-16048714D01*
X12779048Y-16039190D01*
X12798095Y-16029667D01*
X12845714Y-16029667D01*
X12864762Y-16039190D01*
X12874286Y-16048714D01*
X12883809Y-16067762D01*
X12883809Y-16115381D01*
X12874286Y-16134428D01*
X12864762Y-16143952D01*
X12845714Y-16153476D01*
X12798095Y-16153476D01*
X12779048Y-16143952D01*
X12769524Y-16134428D01*
X13055238Y-16020143D02*
X13055238Y-16153476D01*
X13007619Y-15943952D02*
X12960000Y-16086809D01*
X13083809Y-16086809D01*
X13150476Y-15953476D02*
X13150476Y-15991571D01*
X13226667Y-15953476D02*
X13226667Y-15991571D01*
X13521905Y-16229667D02*
X13512381Y-16220143D01*
X13493333Y-16191571D01*
X13483809Y-16172524D01*
X13474286Y-16143952D01*
X13464762Y-16096333D01*
X13464762Y-16058238D01*
X13474286Y-16010619D01*
X13483809Y-15982048D01*
X13493333Y-15963000D01*
X13512381Y-15934428D01*
X13521905Y-15924905D01*
X13683809Y-16020143D02*
X13683809Y-16153476D01*
X13636190Y-15943952D02*
X13588571Y-16086809D01*
X13712381Y-16086809D01*
X13940952Y-16153476D02*
X13940952Y-15953476D01*
X14026667Y-16153476D02*
X14026667Y-16048714D01*
X14017143Y-16029667D01*
X13998095Y-16020143D01*
X13969524Y-16020143D01*
X13950476Y-16029667D01*
X13940952Y-16039190D01*
X14150476Y-16153476D02*
X14131428Y-16143952D01*
X14121905Y-16134428D01*
X14112381Y-16115381D01*
X14112381Y-16058238D01*
X14121905Y-16039190D01*
X14131428Y-16029667D01*
X14150476Y-16020143D01*
X14179048Y-16020143D01*
X14198095Y-16029667D01*
X14207619Y-16039190D01*
X14217143Y-16058238D01*
X14217143Y-16115381D01*
X14207619Y-16134428D01*
X14198095Y-16143952D01*
X14179048Y-16153476D01*
X14150476Y-16153476D01*
X14331428Y-16153476D02*
X14312381Y-16143952D01*
X14302857Y-16124905D01*
X14302857Y-15953476D01*
X14483809Y-16143952D02*
X14464762Y-16153476D01*
X14426667Y-16153476D01*
X14407619Y-16143952D01*
X14398095Y-16124905D01*
X14398095Y-16048714D01*
X14407619Y-16029667D01*
X14426667Y-16020143D01*
X14464762Y-16020143D01*
X14483809Y-16029667D01*
X14493333Y-16048714D01*
X14493333Y-16067762D01*
X14398095Y-16086809D01*
X14569524Y-16143952D02*
X14588571Y-16153476D01*
X14626667Y-16153476D01*
X14645714Y-16143952D01*
X14655238Y-16124905D01*
X14655238Y-16115381D01*
X14645714Y-16096333D01*
X14626667Y-16086809D01*
X14598095Y-16086809D01*
X14579048Y-16077286D01*
X14569524Y-16058238D01*
X14569524Y-16048714D01*
X14579048Y-16029667D01*
X14598095Y-16020143D01*
X14626667Y-16020143D01*
X14645714Y-16029667D01*
X14721905Y-16229667D02*
X14731428Y-16220143D01*
X14750476Y-16191571D01*
X14760000Y-16172524D01*
X14769524Y-16143952D01*
X14779048Y-16096333D01*
X14779048Y-16058238D01*
X14769524Y-16010619D01*
X14760000Y-15982048D01*
X14750476Y-15963000D01*
X14731428Y-15934428D01*
X14721905Y-15924905D01*
D15*
X9932427Y-16369427D02*
X9932427Y-16284573D01*
X9847573Y-16284573D01*
X9847573Y-16369427D01*
X9932427Y-16369427D01*
D11*
X10312381Y-16417476D02*
X10198095Y-16417476D01*
X10255238Y-16417476D02*
X10255238Y-16217476D01*
X10236190Y-16246048D01*
X10217143Y-16265095D01*
X10198095Y-16274619D01*
X10398095Y-16398428D02*
X10407619Y-16407952D01*
X10398095Y-16417476D01*
X10388571Y-16407952D01*
X10398095Y-16398428D01*
X10398095Y-16417476D01*
X10483810Y-16236524D02*
X10493333Y-16227000D01*
X10512381Y-16217476D01*
X10560000Y-16217476D01*
X10579048Y-16227000D01*
X10588571Y-16236524D01*
X10598095Y-16255571D01*
X10598095Y-16274619D01*
X10588571Y-16303190D01*
X10474286Y-16417476D01*
X10598095Y-16417476D01*
X10721905Y-16217476D02*
X10740952Y-16217476D01*
X10760000Y-16227000D01*
X10769524Y-16236524D01*
X10779048Y-16255571D01*
X10788571Y-16293667D01*
X10788571Y-16341286D01*
X10779048Y-16379381D01*
X10769524Y-16398428D01*
X10760000Y-16407952D01*
X10740952Y-16417476D01*
X10721905Y-16417476D01*
X10702857Y-16407952D01*
X10693333Y-16398428D01*
X10683810Y-16379381D01*
X10674286Y-16341286D01*
X10674286Y-16293667D01*
X10683810Y-16255571D01*
X10693333Y-16236524D01*
X10702857Y-16227000D01*
X10721905Y-16217476D01*
X10912381Y-16217476D02*
X10931429Y-16217476D01*
X10950476Y-16227000D01*
X10960000Y-16236524D01*
X10969524Y-16255571D01*
X10979048Y-16293667D01*
X10979048Y-16341286D01*
X10969524Y-16379381D01*
X10960000Y-16398428D01*
X10950476Y-16407952D01*
X10931429Y-16417476D01*
X10912381Y-16417476D01*
X10893333Y-16407952D01*
X10883810Y-16398428D01*
X10874286Y-16379381D01*
X10864762Y-16341286D01*
X10864762Y-16293667D01*
X10874286Y-16255571D01*
X10883810Y-16236524D01*
X10893333Y-16227000D01*
X10912381Y-16217476D01*
X11064762Y-16417476D02*
X11064762Y-16284143D01*
X11064762Y-16303190D02*
X11074286Y-16293667D01*
X11093333Y-16284143D01*
X11121905Y-16284143D01*
X11140952Y-16293667D01*
X11150476Y-16312714D01*
X11150476Y-16417476D01*
X11150476Y-16312714D02*
X11160000Y-16293667D01*
X11179048Y-16284143D01*
X11207619Y-16284143D01*
X11226667Y-16293667D01*
X11236190Y-16312714D01*
X11236190Y-16417476D01*
X11331428Y-16417476D02*
X11331428Y-16284143D01*
X11331428Y-16303190D02*
X11340952Y-16293667D01*
X11360000Y-16284143D01*
X11388571Y-16284143D01*
X11407619Y-16293667D01*
X11417143Y-16312714D01*
X11417143Y-16417476D01*
X11417143Y-16312714D02*
X11426667Y-16293667D01*
X11445714Y-16284143D01*
X11474286Y-16284143D01*
X11493333Y-16293667D01*
X11502857Y-16312714D01*
X11502857Y-16417476D01*
X11893333Y-16207952D02*
X11721905Y-16465095D01*
X12150476Y-16217476D02*
X12169524Y-16217476D01*
X12188571Y-16227000D01*
X12198095Y-16236524D01*
X12207619Y-16255571D01*
X12217143Y-16293667D01*
X12217143Y-16341286D01*
X12207619Y-16379381D01*
X12198095Y-16398428D01*
X12188571Y-16407952D01*
X12169524Y-16417476D01*
X12150476Y-16417476D01*
X12131428Y-16407952D01*
X12121905Y-16398428D01*
X12112381Y-16379381D01*
X12102857Y-16341286D01*
X12102857Y-16293667D01*
X12112381Y-16255571D01*
X12121905Y-16236524D01*
X12131428Y-16227000D01*
X12150476Y-16217476D01*
X12302857Y-16398428D02*
X12312381Y-16407952D01*
X12302857Y-16417476D01*
X12293333Y-16407952D01*
X12302857Y-16398428D01*
X12302857Y-16417476D01*
X12436190Y-16217476D02*
X12455238Y-16217476D01*
X12474286Y-16227000D01*
X12483809Y-16236524D01*
X12493333Y-16255571D01*
X12502857Y-16293667D01*
X12502857Y-16341286D01*
X12493333Y-16379381D01*
X12483809Y-16398428D01*
X12474286Y-16407952D01*
X12455238Y-16417476D01*
X12436190Y-16417476D01*
X12417143Y-16407952D01*
X12407619Y-16398428D01*
X12398095Y-16379381D01*
X12388571Y-16341286D01*
X12388571Y-16293667D01*
X12398095Y-16255571D01*
X12407619Y-16236524D01*
X12417143Y-16227000D01*
X12436190Y-16217476D01*
X12674286Y-16284143D02*
X12674286Y-16417476D01*
X12626667Y-16207952D02*
X12579048Y-16350809D01*
X12702857Y-16350809D01*
X12760000Y-16217476D02*
X12893333Y-16217476D01*
X12807619Y-16417476D01*
X12960000Y-16236524D02*
X12969524Y-16227000D01*
X12988571Y-16217476D01*
X13036190Y-16217476D01*
X13055238Y-16227000D01*
X13064762Y-16236524D01*
X13074286Y-16255571D01*
X13074286Y-16274619D01*
X13064762Y-16303190D01*
X12950476Y-16417476D01*
X13074286Y-16417476D01*
X13150476Y-16217476D02*
X13150476Y-16255571D01*
X13226667Y-16217476D02*
X13226667Y-16255571D01*
X13521905Y-16493667D02*
X13512381Y-16484143D01*
X13493333Y-16455571D01*
X13483809Y-16436524D01*
X13474286Y-16407952D01*
X13464762Y-16360333D01*
X13464762Y-16322238D01*
X13474286Y-16274619D01*
X13483809Y-16246048D01*
X13493333Y-16227000D01*
X13512381Y-16198428D01*
X13521905Y-16188905D01*
X13579048Y-16217476D02*
X13702857Y-16217476D01*
X13636190Y-16293667D01*
X13664762Y-16293667D01*
X13683809Y-16303190D01*
X13693333Y-16312714D01*
X13702857Y-16331762D01*
X13702857Y-16379381D01*
X13693333Y-16398428D01*
X13683809Y-16407952D01*
X13664762Y-16417476D01*
X13607619Y-16417476D01*
X13588571Y-16407952D01*
X13579048Y-16398428D01*
X13940952Y-16417476D02*
X13940952Y-16217476D01*
X14026667Y-16417476D02*
X14026667Y-16312714D01*
X14017143Y-16293667D01*
X13998095Y-16284143D01*
X13969524Y-16284143D01*
X13950476Y-16293667D01*
X13940952Y-16303190D01*
X14150476Y-16417476D02*
X14131428Y-16407952D01*
X14121905Y-16398428D01*
X14112381Y-16379381D01*
X14112381Y-16322238D01*
X14121905Y-16303190D01*
X14131428Y-16293667D01*
X14150476Y-16284143D01*
X14179048Y-16284143D01*
X14198095Y-16293667D01*
X14207619Y-16303190D01*
X14217143Y-16322238D01*
X14217143Y-16379381D01*
X14207619Y-16398428D01*
X14198095Y-16407952D01*
X14179048Y-16417476D01*
X14150476Y-16417476D01*
X14331428Y-16417476D02*
X14312381Y-16407952D01*
X14302857Y-16388905D01*
X14302857Y-16217476D01*
X14483809Y-16407952D02*
X14464762Y-16417476D01*
X14426667Y-16417476D01*
X14407619Y-16407952D01*
X14398095Y-16388905D01*
X14398095Y-16312714D01*
X14407619Y-16293667D01*
X14426667Y-16284143D01*
X14464762Y-16284143D01*
X14483809Y-16293667D01*
X14493333Y-16312714D01*
X14493333Y-16331762D01*
X14398095Y-16350809D01*
X14569524Y-16407952D02*
X14588571Y-16417476D01*
X14626667Y-16417476D01*
X14645714Y-16407952D01*
X14655238Y-16388905D01*
X14655238Y-16379381D01*
X14645714Y-16360333D01*
X14626667Y-16350809D01*
X14598095Y-16350809D01*
X14579048Y-16341286D01*
X14569524Y-16322238D01*
X14569524Y-16312714D01*
X14579048Y-16293667D01*
X14598095Y-16284143D01*
X14626667Y-16284143D01*
X14645714Y-16293667D01*
X14721905Y-16493667D02*
X14731428Y-16484143D01*
X14750476Y-16455571D01*
X14760000Y-16436524D01*
X14769524Y-16407952D01*
X14779048Y-16360333D01*
X14779048Y-16322238D01*
X14769524Y-16274619D01*
X14760000Y-16246048D01*
X14750476Y-16227000D01*
X14731428Y-16198428D01*
X14721905Y-16188905D01*
D16*
X9875000Y-16666000D02*
X9950000Y-16591000D01*
X9875000Y-16516000D01*
X9800000Y-16591000D01*
X9875000Y-16666000D01*
D11*
X10312381Y-16681476D02*
X10198095Y-16681476D01*
X10255238Y-16681476D02*
X10255238Y-16481476D01*
X10236190Y-16510048D01*
X10217143Y-16529095D01*
X10198095Y-16538619D01*
X10398095Y-16662428D02*
X10407619Y-16671952D01*
X10398095Y-16681476D01*
X10388571Y-16671952D01*
X10398095Y-16662428D01*
X10398095Y-16681476D01*
X10588571Y-16481476D02*
X10493333Y-16481476D01*
X10483810Y-16576714D01*
X10493333Y-16567190D01*
X10512381Y-16557667D01*
X10560000Y-16557667D01*
X10579048Y-16567190D01*
X10588571Y-16576714D01*
X10598095Y-16595762D01*
X10598095Y-16643381D01*
X10588571Y-16662428D01*
X10579048Y-16671952D01*
X10560000Y-16681476D01*
X10512381Y-16681476D01*
X10493333Y-16671952D01*
X10483810Y-16662428D01*
X10721905Y-16481476D02*
X10740952Y-16481476D01*
X10760000Y-16491000D01*
X10769524Y-16500524D01*
X10779048Y-16519571D01*
X10788571Y-16557667D01*
X10788571Y-16605286D01*
X10779048Y-16643381D01*
X10769524Y-16662428D01*
X10760000Y-16671952D01*
X10740952Y-16681476D01*
X10721905Y-16681476D01*
X10702857Y-16671952D01*
X10693333Y-16662428D01*
X10683810Y-16643381D01*
X10674286Y-16605286D01*
X10674286Y-16557667D01*
X10683810Y-16519571D01*
X10693333Y-16500524D01*
X10702857Y-16491000D01*
X10721905Y-16481476D01*
X10912381Y-16481476D02*
X10931429Y-16481476D01*
X10950476Y-16491000D01*
X10960000Y-16500524D01*
X10969524Y-16519571D01*
X10979048Y-16557667D01*
X10979048Y-16605286D01*
X10969524Y-16643381D01*
X10960000Y-16662428D01*
X10950476Y-16671952D01*
X10931429Y-16681476D01*
X10912381Y-16681476D01*
X10893333Y-16671952D01*
X10883810Y-16662428D01*
X10874286Y-16643381D01*
X10864762Y-16605286D01*
X10864762Y-16557667D01*
X10874286Y-16519571D01*
X10883810Y-16500524D01*
X10893333Y-16491000D01*
X10912381Y-16481476D01*
X11064762Y-16681476D02*
X11064762Y-16548143D01*
X11064762Y-16567190D02*
X11074286Y-16557667D01*
X11093333Y-16548143D01*
X11121905Y-16548143D01*
X11140952Y-16557667D01*
X11150476Y-16576714D01*
X11150476Y-16681476D01*
X11150476Y-16576714D02*
X11160000Y-16557667D01*
X11179048Y-16548143D01*
X11207619Y-16548143D01*
X11226667Y-16557667D01*
X11236190Y-16576714D01*
X11236190Y-16681476D01*
X11331428Y-16681476D02*
X11331428Y-16548143D01*
X11331428Y-16567190D02*
X11340952Y-16557667D01*
X11360000Y-16548143D01*
X11388571Y-16548143D01*
X11407619Y-16557667D01*
X11417143Y-16576714D01*
X11417143Y-16681476D01*
X11417143Y-16576714D02*
X11426667Y-16557667D01*
X11445714Y-16548143D01*
X11474286Y-16548143D01*
X11493333Y-16557667D01*
X11502857Y-16576714D01*
X11502857Y-16681476D01*
X11893333Y-16471952D02*
X11721905Y-16729095D01*
X12150476Y-16481476D02*
X12169524Y-16481476D01*
X12188571Y-16491000D01*
X12198095Y-16500524D01*
X12207619Y-16519571D01*
X12217143Y-16557667D01*
X12217143Y-16605286D01*
X12207619Y-16643381D01*
X12198095Y-16662428D01*
X12188571Y-16671952D01*
X12169524Y-16681476D01*
X12150476Y-16681476D01*
X12131428Y-16671952D01*
X12121905Y-16662428D01*
X12112381Y-16643381D01*
X12102857Y-16605286D01*
X12102857Y-16557667D01*
X12112381Y-16519571D01*
X12121905Y-16500524D01*
X12131428Y-16491000D01*
X12150476Y-16481476D01*
X12302857Y-16662428D02*
X12312381Y-16671952D01*
X12302857Y-16681476D01*
X12293333Y-16671952D01*
X12302857Y-16662428D01*
X12302857Y-16681476D01*
X12436190Y-16481476D02*
X12455238Y-16481476D01*
X12474286Y-16491000D01*
X12483809Y-16500524D01*
X12493333Y-16519571D01*
X12502857Y-16557667D01*
X12502857Y-16605286D01*
X12493333Y-16643381D01*
X12483809Y-16662428D01*
X12474286Y-16671952D01*
X12455238Y-16681476D01*
X12436190Y-16681476D01*
X12417143Y-16671952D01*
X12407619Y-16662428D01*
X12398095Y-16643381D01*
X12388571Y-16605286D01*
X12388571Y-16557667D01*
X12398095Y-16519571D01*
X12407619Y-16500524D01*
X12417143Y-16491000D01*
X12436190Y-16481476D01*
X12683809Y-16481476D02*
X12588571Y-16481476D01*
X12579048Y-16576714D01*
X12588571Y-16567190D01*
X12607619Y-16557667D01*
X12655238Y-16557667D01*
X12674286Y-16567190D01*
X12683809Y-16576714D01*
X12693333Y-16595762D01*
X12693333Y-16643381D01*
X12683809Y-16662428D01*
X12674286Y-16671952D01*
X12655238Y-16681476D01*
X12607619Y-16681476D01*
X12588571Y-16671952D01*
X12579048Y-16662428D01*
X12788571Y-16681476D02*
X12826667Y-16681476D01*
X12845714Y-16671952D01*
X12855238Y-16662428D01*
X12874286Y-16633857D01*
X12883809Y-16595762D01*
X12883809Y-16519571D01*
X12874286Y-16500524D01*
X12864762Y-16491000D01*
X12845714Y-16481476D01*
X12807619Y-16481476D01*
X12788571Y-16491000D01*
X12779048Y-16500524D01*
X12769524Y-16519571D01*
X12769524Y-16567190D01*
X12779048Y-16586238D01*
X12788571Y-16595762D01*
X12807619Y-16605286D01*
X12845714Y-16605286D01*
X12864762Y-16595762D01*
X12874286Y-16586238D01*
X12883809Y-16567190D01*
X13074286Y-16681476D02*
X12960000Y-16681476D01*
X13017143Y-16681476D02*
X13017143Y-16481476D01*
X12998095Y-16510048D01*
X12979048Y-16529095D01*
X12960000Y-16538619D01*
X13150476Y-16481476D02*
X13150476Y-16519571D01*
X13226667Y-16481476D02*
X13226667Y-16519571D01*
X13521905Y-16757667D02*
X13512381Y-16748143D01*
X13493333Y-16719571D01*
X13483809Y-16700524D01*
X13474286Y-16671952D01*
X13464762Y-16624333D01*
X13464762Y-16586238D01*
X13474286Y-16538619D01*
X13483809Y-16510048D01*
X13493333Y-16491000D01*
X13512381Y-16462428D01*
X13521905Y-16452905D01*
X13683809Y-16548143D02*
X13683809Y-16681476D01*
X13636190Y-16471952D02*
X13588571Y-16614809D01*
X13712381Y-16614809D01*
X13940952Y-16681476D02*
X13940952Y-16481476D01*
X14026667Y-16681476D02*
X14026667Y-16576714D01*
X14017143Y-16557667D01*
X13998095Y-16548143D01*
X13969524Y-16548143D01*
X13950476Y-16557667D01*
X13940952Y-16567190D01*
X14150476Y-16681476D02*
X14131428Y-16671952D01*
X14121905Y-16662428D01*
X14112381Y-16643381D01*
X14112381Y-16586238D01*
X14121905Y-16567190D01*
X14131428Y-16557667D01*
X14150476Y-16548143D01*
X14179048Y-16548143D01*
X14198095Y-16557667D01*
X14207619Y-16567190D01*
X14217143Y-16586238D01*
X14217143Y-16643381D01*
X14207619Y-16662428D01*
X14198095Y-16671952D01*
X14179048Y-16681476D01*
X14150476Y-16681476D01*
X14331428Y-16681476D02*
X14312381Y-16671952D01*
X14302857Y-16652905D01*
X14302857Y-16481476D01*
X14483809Y-16671952D02*
X14464762Y-16681476D01*
X14426667Y-16681476D01*
X14407619Y-16671952D01*
X14398095Y-16652905D01*
X14398095Y-16576714D01*
X14407619Y-16557667D01*
X14426667Y-16548143D01*
X14464762Y-16548143D01*
X14483809Y-16557667D01*
X14493333Y-16576714D01*
X14493333Y-16595762D01*
X14398095Y-16614809D01*
X14569524Y-16671952D02*
X14588571Y-16681476D01*
X14626667Y-16681476D01*
X14645714Y-16671952D01*
X14655238Y-16652905D01*
X14655238Y-16643381D01*
X14645714Y-16624333D01*
X14626667Y-16614809D01*
X14598095Y-16614809D01*
X14579048Y-16605286D01*
X14569524Y-16586238D01*
X14569524Y-16576714D01*
X14579048Y-16557667D01*
X14598095Y-16548143D01*
X14626667Y-16548143D01*
X14645714Y-16557667D01*
X14721905Y-16757667D02*
X14731428Y-16748143D01*
X14750476Y-16719571D01*
X14760000Y-16700524D01*
X14769524Y-16671952D01*
X14779048Y-16624333D01*
X14779048Y-16586238D01*
X14769524Y-16538619D01*
X14760000Y-16510048D01*
X14750476Y-16491000D01*
X14731428Y-16462428D01*
X14721905Y-16452905D01*
X9750000Y-16761000D02*
X9950000Y-16961000D01*
X9950000Y-16761000D02*
X9750000Y-16961000D01*
X9950000Y-16861000D02*
G75*
G03*
X9950000Y-16861000I-100000J0D01*
G01*
X10198095Y-16770524D02*
X10207619Y-16761000D01*
X10226667Y-16751476D01*
X10274286Y-16751476D01*
X10293333Y-16761000D01*
X10302857Y-16770524D01*
X10312381Y-16789571D01*
X10312381Y-16808619D01*
X10302857Y-16837190D01*
X10188571Y-16951476D01*
X10312381Y-16951476D01*
X10398095Y-16932429D02*
X10407619Y-16941952D01*
X10398095Y-16951476D01*
X10388571Y-16941952D01*
X10398095Y-16932429D01*
X10398095Y-16951476D01*
X10588571Y-16751476D02*
X10493333Y-16751476D01*
X10483810Y-16846714D01*
X10493333Y-16837190D01*
X10512381Y-16827667D01*
X10560000Y-16827667D01*
X10579048Y-16837190D01*
X10588571Y-16846714D01*
X10598095Y-16865762D01*
X10598095Y-16913381D01*
X10588571Y-16932429D01*
X10579048Y-16941952D01*
X10560000Y-16951476D01*
X10512381Y-16951476D01*
X10493333Y-16941952D01*
X10483810Y-16932429D01*
X10769524Y-16751476D02*
X10731429Y-16751476D01*
X10712381Y-16761000D01*
X10702857Y-16770524D01*
X10683810Y-16799095D01*
X10674286Y-16837190D01*
X10674286Y-16913381D01*
X10683810Y-16932429D01*
X10693333Y-16941952D01*
X10712381Y-16951476D01*
X10750476Y-16951476D01*
X10769524Y-16941952D01*
X10779048Y-16932429D01*
X10788571Y-16913381D01*
X10788571Y-16865762D01*
X10779048Y-16846714D01*
X10769524Y-16837190D01*
X10750476Y-16827667D01*
X10712381Y-16827667D01*
X10693333Y-16837190D01*
X10683810Y-16846714D01*
X10674286Y-16865762D01*
X10855238Y-16751476D02*
X10979048Y-16751476D01*
X10912381Y-16827667D01*
X10940952Y-16827667D01*
X10960000Y-16837190D01*
X10969524Y-16846714D01*
X10979048Y-16865762D01*
X10979048Y-16913381D01*
X10969524Y-16932429D01*
X10960000Y-16941952D01*
X10940952Y-16951476D01*
X10883810Y-16951476D01*
X10864762Y-16941952D01*
X10855238Y-16932429D01*
X11064762Y-16951476D02*
X11064762Y-16818143D01*
X11064762Y-16837190D02*
X11074286Y-16827667D01*
X11093333Y-16818143D01*
X11121905Y-16818143D01*
X11140952Y-16827667D01*
X11150476Y-16846714D01*
X11150476Y-16951476D01*
X11150476Y-16846714D02*
X11160000Y-16827667D01*
X11179048Y-16818143D01*
X11207619Y-16818143D01*
X11226667Y-16827667D01*
X11236190Y-16846714D01*
X11236190Y-16951476D01*
X11331428Y-16951476D02*
X11331428Y-16818143D01*
X11331428Y-16837190D02*
X11340952Y-16827667D01*
X11360000Y-16818143D01*
X11388571Y-16818143D01*
X11407619Y-16827667D01*
X11417143Y-16846714D01*
X11417143Y-16951476D01*
X11417143Y-16846714D02*
X11426667Y-16827667D01*
X11445714Y-16818143D01*
X11474286Y-16818143D01*
X11493333Y-16827667D01*
X11502857Y-16846714D01*
X11502857Y-16951476D01*
X11893333Y-16741952D02*
X11721905Y-16999095D01*
X12150476Y-16751476D02*
X12169524Y-16751476D01*
X12188571Y-16761000D01*
X12198095Y-16770524D01*
X12207619Y-16789571D01*
X12217143Y-16827667D01*
X12217143Y-16875286D01*
X12207619Y-16913381D01*
X12198095Y-16932429D01*
X12188571Y-16941952D01*
X12169524Y-16951476D01*
X12150476Y-16951476D01*
X12131428Y-16941952D01*
X12121905Y-16932429D01*
X12112381Y-16913381D01*
X12102857Y-16875286D01*
X12102857Y-16827667D01*
X12112381Y-16789571D01*
X12121905Y-16770524D01*
X12131428Y-16761000D01*
X12150476Y-16751476D01*
X12302857Y-16932429D02*
X12312381Y-16941952D01*
X12302857Y-16951476D01*
X12293333Y-16941952D01*
X12302857Y-16932429D01*
X12302857Y-16951476D01*
X12502857Y-16951476D02*
X12388571Y-16951476D01*
X12445714Y-16951476D02*
X12445714Y-16751476D01*
X12426667Y-16780048D01*
X12407619Y-16799095D01*
X12388571Y-16808619D01*
X12626667Y-16751476D02*
X12645714Y-16751476D01*
X12664762Y-16761000D01*
X12674286Y-16770524D01*
X12683809Y-16789571D01*
X12693333Y-16827667D01*
X12693333Y-16875286D01*
X12683809Y-16913381D01*
X12674286Y-16932429D01*
X12664762Y-16941952D01*
X12645714Y-16951476D01*
X12626667Y-16951476D01*
X12607619Y-16941952D01*
X12598095Y-16932429D01*
X12588571Y-16913381D01*
X12579048Y-16875286D01*
X12579048Y-16827667D01*
X12588571Y-16789571D01*
X12598095Y-16770524D01*
X12607619Y-16761000D01*
X12626667Y-16751476D01*
X12817143Y-16751476D02*
X12836190Y-16751476D01*
X12855238Y-16761000D01*
X12864762Y-16770524D01*
X12874286Y-16789571D01*
X12883809Y-16827667D01*
X12883809Y-16875286D01*
X12874286Y-16913381D01*
X12864762Y-16932429D01*
X12855238Y-16941952D01*
X12836190Y-16951476D01*
X12817143Y-16951476D01*
X12798095Y-16941952D01*
X12788571Y-16932429D01*
X12779048Y-16913381D01*
X12769524Y-16875286D01*
X12769524Y-16827667D01*
X12779048Y-16789571D01*
X12788571Y-16770524D01*
X12798095Y-16761000D01*
X12817143Y-16751476D01*
X12979048Y-16951476D02*
X13017143Y-16951476D01*
X13036190Y-16941952D01*
X13045714Y-16932429D01*
X13064762Y-16903857D01*
X13074286Y-16865762D01*
X13074286Y-16789571D01*
X13064762Y-16770524D01*
X13055238Y-16761000D01*
X13036190Y-16751476D01*
X12998095Y-16751476D01*
X12979048Y-16761000D01*
X12969524Y-16770524D01*
X12960000Y-16789571D01*
X12960000Y-16837190D01*
X12969524Y-16856238D01*
X12979048Y-16865762D01*
X12998095Y-16875286D01*
X13036190Y-16875286D01*
X13055238Y-16865762D01*
X13064762Y-16856238D01*
X13074286Y-16837190D01*
X13150476Y-16751476D02*
X13150476Y-16789571D01*
X13226667Y-16751476D02*
X13226667Y-16789571D01*
X13521905Y-17027667D02*
X13512381Y-17018143D01*
X13493333Y-16989571D01*
X13483809Y-16970524D01*
X13474286Y-16941952D01*
X13464762Y-16894333D01*
X13464762Y-16856238D01*
X13474286Y-16808619D01*
X13483809Y-16780048D01*
X13493333Y-16761000D01*
X13512381Y-16732428D01*
X13521905Y-16722905D01*
X13607619Y-16951476D02*
X13645714Y-16951476D01*
X13664762Y-16941952D01*
X13674286Y-16932429D01*
X13693333Y-16903857D01*
X13702857Y-16865762D01*
X13702857Y-16789571D01*
X13693333Y-16770524D01*
X13683809Y-16761000D01*
X13664762Y-16751476D01*
X13626667Y-16751476D01*
X13607619Y-16761000D01*
X13598095Y-16770524D01*
X13588571Y-16789571D01*
X13588571Y-16837190D01*
X13598095Y-16856238D01*
X13607619Y-16865762D01*
X13626667Y-16875286D01*
X13664762Y-16875286D01*
X13683809Y-16865762D01*
X13693333Y-16856238D01*
X13702857Y-16837190D01*
X13940952Y-16951476D02*
X13940952Y-16751476D01*
X14026667Y-16951476D02*
X14026667Y-16846714D01*
X14017143Y-16827667D01*
X13998095Y-16818143D01*
X13969524Y-16818143D01*
X13950476Y-16827667D01*
X13940952Y-16837190D01*
X14150476Y-16951476D02*
X14131428Y-16941952D01*
X14121905Y-16932429D01*
X14112381Y-16913381D01*
X14112381Y-16856238D01*
X14121905Y-16837190D01*
X14131428Y-16827667D01*
X14150476Y-16818143D01*
X14179048Y-16818143D01*
X14198095Y-16827667D01*
X14207619Y-16837190D01*
X14217143Y-16856238D01*
X14217143Y-16913381D01*
X14207619Y-16932429D01*
X14198095Y-16941952D01*
X14179048Y-16951476D01*
X14150476Y-16951476D01*
X14331428Y-16951476D02*
X14312381Y-16941952D01*
X14302857Y-16922905D01*
X14302857Y-16751476D01*
X14483809Y-16941952D02*
X14464762Y-16951476D01*
X14426667Y-16951476D01*
X14407619Y-16941952D01*
X14398095Y-16922905D01*
X14398095Y-16846714D01*
X14407619Y-16827667D01*
X14426667Y-16818143D01*
X14464762Y-16818143D01*
X14483809Y-16827667D01*
X14493333Y-16846714D01*
X14493333Y-16865762D01*
X14398095Y-16884810D01*
X14569524Y-16941952D02*
X14588571Y-16951476D01*
X14626667Y-16951476D01*
X14645714Y-16941952D01*
X14655238Y-16922905D01*
X14655238Y-16913381D01*
X14645714Y-16894333D01*
X14626667Y-16884810D01*
X14598095Y-16884810D01*
X14579048Y-16875286D01*
X14569524Y-16856238D01*
X14569524Y-16846714D01*
X14579048Y-16827667D01*
X14598095Y-16818143D01*
X14626667Y-16818143D01*
X14645714Y-16827667D01*
X14721905Y-17027667D02*
X14731428Y-17018143D01*
X14750476Y-16989571D01*
X14760000Y-16970524D01*
X14769524Y-16941952D01*
X14779048Y-16894333D01*
X14779048Y-16856238D01*
X14769524Y-16808619D01*
X14760000Y-16780048D01*
X14750476Y-16761000D01*
X14731428Y-16732428D01*
X14721905Y-16722905D01*
X9750000Y-17081000D02*
X9950000Y-17281000D01*
X9950000Y-17081000D02*
X9750000Y-17281000D01*
X9850000Y-17081000D02*
X9850000Y-17281000D01*
X9750000Y-17181000D02*
X9950000Y-17181000D01*
X10302857Y-17071476D02*
X10207619Y-17071476D01*
X10198095Y-17166714D01*
X10207619Y-17157190D01*
X10226667Y-17147667D01*
X10274286Y-17147667D01*
X10293333Y-17157190D01*
X10302857Y-17166714D01*
X10312381Y-17185762D01*
X10312381Y-17233381D01*
X10302857Y-17252429D01*
X10293333Y-17261952D01*
X10274286Y-17271476D01*
X10226667Y-17271476D01*
X10207619Y-17261952D01*
X10198095Y-17252429D01*
X10398095Y-17252429D02*
X10407619Y-17261952D01*
X10398095Y-17271476D01*
X10388571Y-17261952D01*
X10398095Y-17252429D01*
X10398095Y-17271476D01*
X10531429Y-17071476D02*
X10550476Y-17071476D01*
X10569524Y-17081000D01*
X10579048Y-17090524D01*
X10588571Y-17109571D01*
X10598095Y-17147667D01*
X10598095Y-17195286D01*
X10588571Y-17233381D01*
X10579048Y-17252429D01*
X10569524Y-17261952D01*
X10550476Y-17271476D01*
X10531429Y-17271476D01*
X10512381Y-17261952D01*
X10502857Y-17252429D01*
X10493333Y-17233381D01*
X10483810Y-17195286D01*
X10483810Y-17147667D01*
X10493333Y-17109571D01*
X10502857Y-17090524D01*
X10512381Y-17081000D01*
X10531429Y-17071476D01*
X10721905Y-17071476D02*
X10740952Y-17071476D01*
X10760000Y-17081000D01*
X10769524Y-17090524D01*
X10779048Y-17109571D01*
X10788571Y-17147667D01*
X10788571Y-17195286D01*
X10779048Y-17233381D01*
X10769524Y-17252429D01*
X10760000Y-17261952D01*
X10740952Y-17271476D01*
X10721905Y-17271476D01*
X10702857Y-17261952D01*
X10693333Y-17252429D01*
X10683810Y-17233381D01*
X10674286Y-17195286D01*
X10674286Y-17147667D01*
X10683810Y-17109571D01*
X10693333Y-17090524D01*
X10702857Y-17081000D01*
X10721905Y-17071476D01*
X10912381Y-17071476D02*
X10931429Y-17071476D01*
X10950476Y-17081000D01*
X10960000Y-17090524D01*
X10969524Y-17109571D01*
X10979048Y-17147667D01*
X10979048Y-17195286D01*
X10969524Y-17233381D01*
X10960000Y-17252429D01*
X10950476Y-17261952D01*
X10931429Y-17271476D01*
X10912381Y-17271476D01*
X10893333Y-17261952D01*
X10883810Y-17252429D01*
X10874286Y-17233381D01*
X10864762Y-17195286D01*
X10864762Y-17147667D01*
X10874286Y-17109571D01*
X10883810Y-17090524D01*
X10893333Y-17081000D01*
X10912381Y-17071476D01*
X11064762Y-17271476D02*
X11064762Y-17138143D01*
X11064762Y-17157190D02*
X11074286Y-17147667D01*
X11093333Y-17138143D01*
X11121905Y-17138143D01*
X11140952Y-17147667D01*
X11150476Y-17166714D01*
X11150476Y-17271476D01*
X11150476Y-17166714D02*
X11160000Y-17147667D01*
X11179048Y-17138143D01*
X11207619Y-17138143D01*
X11226667Y-17147667D01*
X11236190Y-17166714D01*
X11236190Y-17271476D01*
X11331428Y-17271476D02*
X11331428Y-17138143D01*
X11331428Y-17157190D02*
X11340952Y-17147667D01*
X11360000Y-17138143D01*
X11388571Y-17138143D01*
X11407619Y-17147667D01*
X11417143Y-17166714D01*
X11417143Y-17271476D01*
X11417143Y-17166714D02*
X11426667Y-17147667D01*
X11445714Y-17138143D01*
X11474286Y-17138143D01*
X11493333Y-17147667D01*
X11502857Y-17166714D01*
X11502857Y-17271476D01*
X11893333Y-17061952D02*
X11721905Y-17319095D01*
X12150476Y-17071476D02*
X12169524Y-17071476D01*
X12188571Y-17081000D01*
X12198095Y-17090524D01*
X12207619Y-17109571D01*
X12217143Y-17147667D01*
X12217143Y-17195286D01*
X12207619Y-17233381D01*
X12198095Y-17252429D01*
X12188571Y-17261952D01*
X12169524Y-17271476D01*
X12150476Y-17271476D01*
X12131428Y-17261952D01*
X12121905Y-17252429D01*
X12112381Y-17233381D01*
X12102857Y-17195286D01*
X12102857Y-17147667D01*
X12112381Y-17109571D01*
X12121905Y-17090524D01*
X12131428Y-17081000D01*
X12150476Y-17071476D01*
X12302857Y-17252429D02*
X12312381Y-17261952D01*
X12302857Y-17271476D01*
X12293333Y-17261952D01*
X12302857Y-17252429D01*
X12302857Y-17271476D01*
X12502857Y-17271476D02*
X12388571Y-17271476D01*
X12445714Y-17271476D02*
X12445714Y-17071476D01*
X12426667Y-17100048D01*
X12407619Y-17119095D01*
X12388571Y-17128619D01*
X12598095Y-17271476D02*
X12636190Y-17271476D01*
X12655238Y-17261952D01*
X12664762Y-17252429D01*
X12683809Y-17223857D01*
X12693333Y-17185762D01*
X12693333Y-17109571D01*
X12683809Y-17090524D01*
X12674286Y-17081000D01*
X12655238Y-17071476D01*
X12617143Y-17071476D01*
X12598095Y-17081000D01*
X12588571Y-17090524D01*
X12579048Y-17109571D01*
X12579048Y-17157190D01*
X12588571Y-17176238D01*
X12598095Y-17185762D01*
X12617143Y-17195286D01*
X12655238Y-17195286D01*
X12674286Y-17185762D01*
X12683809Y-17176238D01*
X12693333Y-17157190D01*
X12864762Y-17071476D02*
X12826667Y-17071476D01*
X12807619Y-17081000D01*
X12798095Y-17090524D01*
X12779048Y-17119095D01*
X12769524Y-17157190D01*
X12769524Y-17233381D01*
X12779048Y-17252429D01*
X12788571Y-17261952D01*
X12807619Y-17271476D01*
X12845714Y-17271476D01*
X12864762Y-17261952D01*
X12874286Y-17252429D01*
X12883809Y-17233381D01*
X12883809Y-17185762D01*
X12874286Y-17166714D01*
X12864762Y-17157190D01*
X12845714Y-17147667D01*
X12807619Y-17147667D01*
X12788571Y-17157190D01*
X12779048Y-17166714D01*
X12769524Y-17185762D01*
X12979048Y-17271476D02*
X13017143Y-17271476D01*
X13036190Y-17261952D01*
X13045714Y-17252429D01*
X13064762Y-17223857D01*
X13074286Y-17185762D01*
X13074286Y-17109571D01*
X13064762Y-17090524D01*
X13055238Y-17081000D01*
X13036190Y-17071476D01*
X12998095Y-17071476D01*
X12979048Y-17081000D01*
X12969524Y-17090524D01*
X12960000Y-17109571D01*
X12960000Y-17157190D01*
X12969524Y-17176238D01*
X12979048Y-17185762D01*
X12998095Y-17195286D01*
X13036190Y-17195286D01*
X13055238Y-17185762D01*
X13064762Y-17176238D01*
X13074286Y-17157190D01*
X13150476Y-17071476D02*
X13150476Y-17109571D01*
X13226667Y-17071476D02*
X13226667Y-17109571D01*
X13521905Y-17347667D02*
X13512381Y-17338143D01*
X13493333Y-17309571D01*
X13483809Y-17290524D01*
X13474286Y-17261952D01*
X13464762Y-17214333D01*
X13464762Y-17176238D01*
X13474286Y-17128619D01*
X13483809Y-17100048D01*
X13493333Y-17081000D01*
X13512381Y-17052429D01*
X13521905Y-17042905D01*
X13588571Y-17090524D02*
X13598095Y-17081000D01*
X13617143Y-17071476D01*
X13664762Y-17071476D01*
X13683809Y-17081000D01*
X13693333Y-17090524D01*
X13702857Y-17109571D01*
X13702857Y-17128619D01*
X13693333Y-17157190D01*
X13579048Y-17271476D01*
X13702857Y-17271476D01*
X13940952Y-17271476D02*
X13940952Y-17071476D01*
X14026667Y-17271476D02*
X14026667Y-17166714D01*
X14017143Y-17147667D01*
X13998095Y-17138143D01*
X13969524Y-17138143D01*
X13950476Y-17147667D01*
X13940952Y-17157190D01*
X14150476Y-17271476D02*
X14131428Y-17261952D01*
X14121905Y-17252429D01*
X14112381Y-17233381D01*
X14112381Y-17176238D01*
X14121905Y-17157190D01*
X14131428Y-17147667D01*
X14150476Y-17138143D01*
X14179048Y-17138143D01*
X14198095Y-17147667D01*
X14207619Y-17157190D01*
X14217143Y-17176238D01*
X14217143Y-17233381D01*
X14207619Y-17252429D01*
X14198095Y-17261952D01*
X14179048Y-17271476D01*
X14150476Y-17271476D01*
X14331428Y-17271476D02*
X14312381Y-17261952D01*
X14302857Y-17242905D01*
X14302857Y-17071476D01*
X14483809Y-17261952D02*
X14464762Y-17271476D01*
X14426667Y-17271476D01*
X14407619Y-17261952D01*
X14398095Y-17242905D01*
X14398095Y-17166714D01*
X14407619Y-17147667D01*
X14426667Y-17138143D01*
X14464762Y-17138143D01*
X14483809Y-17147667D01*
X14493333Y-17166714D01*
X14493333Y-17185762D01*
X14398095Y-17204810D01*
X14569524Y-17261952D02*
X14588571Y-17271476D01*
X14626667Y-17271476D01*
X14645714Y-17261952D01*
X14655238Y-17242905D01*
X14655238Y-17233381D01*
X14645714Y-17214333D01*
X14626667Y-17204810D01*
X14598095Y-17204810D01*
X14579048Y-17195286D01*
X14569524Y-17176238D01*
X14569524Y-17166714D01*
X14579048Y-17147667D01*
X14598095Y-17138143D01*
X14626667Y-17138143D01*
X14645714Y-17147667D01*
X14721905Y-17347667D02*
X14731428Y-17338143D01*
X14750476Y-17309571D01*
X14760000Y-17290524D01*
X14769524Y-17261952D01*
X14779048Y-17214333D01*
X14779048Y-17176238D01*
X14769524Y-17128619D01*
X14760000Y-17100048D01*
X14750476Y-17081000D01*
X14731428Y-17052429D01*
X14721905Y-17042905D01*
M02*
