M48
; DRILL file {KiCad (6.0.5)} date Sun Jul 17 15:42:21 2022
; FORMAT={-:-/ absolute / metric / decimal}
; #@! TF.CreationDate,2022-07-17T15:42:21-06:00
; #@! TF.GenerationSoftware,Kicad,Pcbnew,(6.0.5)
; #@! TF.FileFunction,Plated,1,2,PTH
FMAT,2
METRIC
; #@! TA.AperFunction,Plated,PTH,ViaDrill
T1C0.250
; #@! TA.AperFunction,Plated,PTH,ComponentDrill
T2C0.700
; #@! TA.AperFunction,Plated,PTH,ComponentDrill
T3C0.900
; #@! TA.AperFunction,Plated,PTH,ComponentDrill
T4C1.200
; #@! TA.AperFunction,Plated,PTH,ComponentDrill
T5C1.500
; #@! TA.AperFunction,Plated,PTH,ComponentDrill
T6C5.000
%
G90
G05
T1
X101.493Y-77.63
X101.493Y-80.17
X101.493Y-82.71
X101.493Y-85.25
X101.493Y-87.79
X101.493Y-90.33
X101.493Y-92.87
X101.493Y-95.41
X101.493Y-97.95
X101.493Y-100.49
X101.493Y-103.03
X101.493Y-105.57
X101.493Y-108.11
X101.493Y-110.65
X101.493Y-113.19
X101.493Y-115.73
X101.493Y-118.27
X101.493Y-120.81
X101.493Y-123.35
X101.493Y-125.89
X101.493Y-128.43
X101.493Y-130.97
X101.493Y-133.51
X101.493Y-136.05
X101.493Y-138.59
X101.493Y-141.13
X101.493Y-143.67
X101.493Y-146.21
X104.033Y-77.63
X104.033Y-80.17
X104.033Y-82.71
X104.033Y-85.25
X104.033Y-87.79
X104.033Y-90.33
X104.033Y-92.87
X104.033Y-95.41
X104.033Y-97.95
X104.033Y-100.49
X104.033Y-103.03
X104.033Y-105.57
X104.033Y-108.11
X104.033Y-110.65
X104.033Y-113.19
X104.033Y-115.73
X104.033Y-118.27
X104.033Y-120.81
X104.033Y-123.35
X104.033Y-125.89
X104.033Y-128.43
X104.033Y-130.97
X104.033Y-133.51
X104.033Y-136.05
X104.033Y-138.59
X104.033Y-141.13
X104.033Y-143.67
X104.033Y-146.21
X106.573Y-77.63
X106.573Y-80.17
X106.573Y-82.71
X106.573Y-85.25
X106.573Y-87.79
X106.573Y-92.87
X106.573Y-97.95
X106.573Y-100.49
X106.573Y-103.03
X106.573Y-105.57
X106.573Y-108.11
X106.573Y-110.65
X106.573Y-113.19
X106.573Y-115.73
X106.573Y-125.89
X106.573Y-128.43
X106.573Y-130.97
X106.573Y-133.51
X106.573Y-136.05
X106.573Y-138.59
X106.573Y-141.13
X106.573Y-143.67
X106.573Y-146.21
X109.113Y-77.63
X109.113Y-80.17
X109.113Y-82.71
X109.113Y-85.25
X109.113Y-87.79
X109.113Y-90.33
X109.113Y-92.87
X109.113Y-97.95
X109.113Y-105.57
X109.113Y-108.11
X109.113Y-110.65
X109.113Y-113.19
X109.113Y-115.73
X109.113Y-123.35
X109.113Y-125.89
X109.113Y-128.43
X109.113Y-130.97
X109.113Y-133.51
X109.113Y-136.05
X109.113Y-138.59
X109.113Y-141.13
X109.113Y-143.67
X109.113Y-146.21
X111.653Y-77.63
X111.653Y-80.17
X111.653Y-82.71
X111.653Y-85.25
X111.653Y-87.79
X111.653Y-90.33
X111.653Y-92.87
X111.653Y-97.95
X111.653Y-105.57
X111.653Y-108.11
X111.653Y-113.19
X111.653Y-115.73
X111.653Y-118.27
X111.653Y-120.81
X111.653Y-123.35
X111.653Y-125.89
X111.653Y-128.43
X111.653Y-130.97
X111.653Y-133.51
X111.653Y-136.05
X111.653Y-143.67
X111.653Y-146.21
X114.193Y-77.63
X114.193Y-80.17
X114.193Y-82.71
X114.193Y-92.87
X114.193Y-97.95
X114.193Y-100.49
X114.193Y-105.57
X114.193Y-108.11
X114.193Y-110.65
X114.193Y-113.19
X114.193Y-115.73
X114.193Y-118.27
X114.193Y-120.81
X114.193Y-123.35
X114.193Y-125.89
X114.193Y-128.43
X114.193Y-130.97
X114.193Y-133.51
X114.193Y-136.05
X114.193Y-143.67
X114.193Y-146.21
X116.733Y-62.39
X116.733Y-64.93
X116.733Y-67.47
X116.733Y-70.01
X116.733Y-72.55
X116.733Y-75.09
X116.733Y-77.63
X116.733Y-80.17
X116.733Y-82.71
X116.733Y-97.95
X116.733Y-100.49
X116.733Y-105.57
X116.733Y-108.11
X116.733Y-113.19
X116.733Y-115.73
X116.733Y-125.89
X116.733Y-128.43
X116.733Y-130.97
X116.733Y-133.51
X116.733Y-136.05
X116.733Y-138.59
X116.733Y-141.13
X116.733Y-143.67
X116.733Y-146.21
X119.273Y-62.39
X119.273Y-64.93
X119.273Y-67.47
X119.273Y-70.01
X119.273Y-72.55
X119.273Y-75.09
X119.273Y-77.63
X119.273Y-80.17
X119.273Y-100.49
X119.273Y-105.57
X119.273Y-108.11
X119.273Y-113.19
X119.273Y-115.73
X119.273Y-125.89
X119.273Y-128.43
X119.273Y-130.97
X119.273Y-133.51
X119.273Y-136.05
X119.273Y-138.59
X119.273Y-141.13
X119.273Y-143.67
X119.273Y-146.21
X121.813Y-62.39
X121.813Y-64.93
X121.813Y-67.47
X121.813Y-70.01
X121.813Y-72.55
X121.813Y-75.09
X121.813Y-87.79
X121.813Y-90.33
X121.813Y-105.57
X121.813Y-108.11
X121.813Y-113.19
X121.813Y-115.73
X121.813Y-118.27
X121.813Y-120.81
X121.813Y-123.35
X121.813Y-125.89
X121.813Y-128.43
X121.813Y-130.97
X121.813Y-133.51
X121.813Y-136.05
X121.813Y-138.59
X121.813Y-141.13
X121.813Y-143.67
X121.813Y-146.21
X124.353Y-62.39
X124.353Y-64.93
X124.353Y-67.47
X124.353Y-70.01
X124.353Y-72.55
X124.353Y-75.09
X124.353Y-87.79
X124.353Y-90.33
X124.353Y-92.87
X124.353Y-105.57
X124.353Y-108.11
X124.353Y-113.19
X124.353Y-115.73
X124.353Y-118.27
X124.353Y-120.81
X124.353Y-123.35
X124.353Y-125.89
X124.353Y-128.43
X124.353Y-130.97
X124.353Y-133.51
X124.353Y-136.05
X124.353Y-138.59
X124.353Y-141.13
X124.353Y-143.67
X124.353Y-146.21
X126.893Y-62.39
X126.893Y-64.93
X126.893Y-67.47
X126.893Y-70.01
X126.893Y-72.55
X126.893Y-75.09
X126.893Y-87.79
X126.893Y-90.33
X126.893Y-92.87
X126.893Y-100.49
X126.893Y-103.03
X126.893Y-105.57
X126.893Y-108.11
X126.893Y-110.65
X126.893Y-113.19
X126.893Y-115.73
X126.893Y-125.89
X126.893Y-128.43
X126.893Y-130.97
X126.893Y-133.51
X126.893Y-136.05
X126.893Y-138.59
X126.893Y-141.13
X126.893Y-143.67
X126.893Y-146.21
X129.433Y-87.79
X129.433Y-90.33
X129.433Y-92.87
X129.433Y-103.03
X129.433Y-105.57
X129.433Y-108.11
X129.433Y-113.19
X129.433Y-115.73
X129.433Y-123.35
X129.433Y-125.89
X129.433Y-128.43
X129.433Y-130.97
X129.433Y-133.51
X129.433Y-136.05
X129.433Y-138.59
X129.433Y-141.13
X129.433Y-143.67
X129.433Y-146.21
X131.973Y-87.79
X131.973Y-90.33
X131.973Y-92.87
X131.973Y-97.95
X131.973Y-103.03
X131.973Y-105.57
X131.973Y-108.11
X131.973Y-113.19
X131.973Y-115.73
X131.973Y-118.27
X131.973Y-120.81
X131.973Y-123.35
X131.973Y-125.89
X131.973Y-128.43
X131.973Y-130.97
X131.973Y-133.51
X131.973Y-136.05
X131.973Y-143.67
X131.973Y-146.21
X134.513Y-80.17
X134.513Y-82.71
X134.513Y-85.25
X134.513Y-87.79
X134.513Y-90.33
X134.513Y-92.87
X134.513Y-97.95
X134.513Y-103.03
X134.513Y-105.57
X134.513Y-108.11
X134.513Y-113.19
X134.513Y-115.73
X134.513Y-118.27
X134.513Y-120.81
X134.513Y-123.35
X134.513Y-125.89
X134.513Y-128.43
X134.513Y-130.97
X134.513Y-133.51
X134.513Y-136.05
X134.513Y-143.67
X134.513Y-146.21
X137.053Y-97.95
X137.053Y-103.03
X137.053Y-105.57
X137.053Y-108.11
X137.053Y-110.65
X137.053Y-113.19
X137.053Y-115.73
X137.053Y-125.89
X137.053Y-128.43
X137.053Y-130.97
X137.053Y-133.51
X137.053Y-136.05
X137.053Y-138.59
X137.053Y-141.13
X137.053Y-143.67
X137.053Y-146.21
X139.593Y-77.63
X139.593Y-80.17
X139.593Y-82.71
X139.593Y-85.25
X139.593Y-87.79
X139.593Y-90.33
X139.593Y-92.87
X139.593Y-95.41
X139.593Y-97.95
X139.593Y-103.03
X139.593Y-105.57
X139.593Y-108.11
X139.593Y-110.65
X139.593Y-113.19
X139.593Y-115.73
X139.593Y-125.89
X139.593Y-128.43
X139.593Y-130.97
X139.593Y-133.51
X139.593Y-136.05
X139.593Y-138.59
X139.593Y-141.13
X139.593Y-143.67
X139.593Y-146.21
X142.133Y-103.03
X142.133Y-105.57
X142.133Y-108.11
X142.133Y-110.65
X142.133Y-113.19
X142.133Y-115.73
X142.133Y-118.27
X142.133Y-120.81
X142.133Y-123.35
X142.133Y-125.89
X142.133Y-128.43
X142.133Y-130.97
X142.133Y-133.51
X142.133Y-136.05
X142.133Y-138.59
X142.133Y-141.13
X142.133Y-143.67
X142.133Y-146.21
T2
X106.14Y-89.35
X106.14Y-94.6
X112.35Y-110.7
X133.35Y-110.95
T3
X110.39Y-100.075
X110.39Y-102.615
X113.89Y-87.085
X113.89Y-89.625
T4
X124.85Y-98.4
X127.39Y-98.4
X129.93Y-98.4
T5
X107.4Y-120.56
X118.3Y-120.56
X127.9Y-120.56
X138.8Y-120.56
T6
X107.85Y-68.2
X136.35Y-68.2
T0
M30
