%TF.GenerationSoftware,KiCad,Pcbnew,(6.0.5)*%
%TF.CreationDate,2022-08-02T11:39:28-06:00*%
%TF.ProjectId,fet_stress_test,6665745f-7374-4726-9573-735f74657374,rev?*%
%TF.SameCoordinates,Original*%
%TF.FileFunction,Soldermask,Top*%
%TF.FilePolarity,Negative*%
%FSLAX46Y46*%
G04 Gerber Fmt 4.6, Leading zero omitted, Abs format (unit mm)*
G04 Created by KiCad (PCBNEW (6.0.5)) date 2022-08-02 11:39:28*
%MOMM*%
%LPD*%
G01*
G04 APERTURE LIST*
G04 Aperture macros list*
%AMRoundRect*
0 Rectangle with rounded corners*
0 $1 Rounding radius*
0 $2 $3 $4 $5 $6 $7 $8 $9 X,Y pos of 4 corners*
0 Add a 4 corners polygon primitive as box body*
4,1,4,$2,$3,$4,$5,$6,$7,$8,$9,$2,$3,0*
0 Add four circle primitives for the rounded corners*
1,1,$1+$1,$2,$3*
1,1,$1+$1,$4,$5*
1,1,$1+$1,$6,$7*
1,1,$1+$1,$8,$9*
0 Add four rect primitives between the rounded corners*
20,1,$1+$1,$2,$3,$4,$5,0*
20,1,$1+$1,$4,$5,$6,$7,0*
20,1,$1+$1,$6,$7,$8,$9,0*
20,1,$1+$1,$8,$9,$2,$3,0*%
G04 Aperture macros list end*
%ADD10R,1.200000X0.900000*%
%ADD11R,2.500000X1.800000*%
%ADD12R,1.905000X2.000000*%
%ADD13O,1.905000X2.000000*%
%ADD14RoundRect,0.705882X-4.294118X-2.294118X4.294118X-2.294118X4.294118X2.294118X-4.294118X2.294118X0*%
%ADD15O,3.600000X3.600000*%
%ADD16R,2.500000X4.500000*%
%ADD17O,2.500000X4.500000*%
%ADD18RoundRect,0.237500X-0.237500X0.250000X-0.237500X-0.250000X0.237500X-0.250000X0.237500X0.250000X0*%
%ADD19R,1.800000X1.800000*%
%ADD20C,1.800000*%
%ADD21RoundRect,0.237500X0.237500X-0.250000X0.237500X0.250000X-0.237500X0.250000X-0.237500X-0.250000X0*%
%ADD22C,4.000000*%
%ADD23RoundRect,0.750000X-6.750000X-6.750000X6.750000X-6.750000X6.750000X6.750000X-6.750000X6.750000X0*%
%ADD24C,1.500000*%
%ADD25RoundRect,0.150000X-0.587500X-0.150000X0.587500X-0.150000X0.587500X0.150000X-0.587500X0.150000X0*%
G04 APERTURE END LIST*
D10*
%TO.C,D2*%
X118550000Y-99050000D03*
X118550000Y-95750000D03*
%TD*%
D11*
%TO.C,D3*%
X121100000Y-110700000D03*
X117100000Y-110700000D03*
%TD*%
D12*
%TO.C,Q2*%
X124850000Y-98400000D03*
D13*
X127390000Y-98400000D03*
D14*
X127350000Y-82700000D03*
D13*
X129930000Y-98400000D03*
%TD*%
D15*
%TO.C,R7*%
X112850000Y-140420000D03*
D16*
X118300000Y-120560000D03*
D17*
X107400000Y-120560000D03*
%TD*%
D18*
%TO.C,R6*%
X115390000Y-101937500D03*
X115390000Y-103762500D03*
%TD*%
D19*
%TO.C,D4*%
X110390000Y-100075000D03*
D20*
X110390000Y-102615000D03*
%TD*%
D21*
%TO.C,R3*%
X119390000Y-85687500D03*
X119390000Y-83862500D03*
%TD*%
D19*
%TO.C,D1*%
X113890000Y-89625000D03*
D20*
X113890000Y-87085000D03*
%TD*%
D15*
%TO.C,R8*%
X133350000Y-140420000D03*
D16*
X138800000Y-120560000D03*
D17*
X127900000Y-120560000D03*
%TD*%
D22*
%TO.C,J2*%
X111000000Y-129700440D03*
X108142500Y-134649780D03*
X113857500Y-134649780D03*
%TD*%
D23*
%TO.C,TP1*%
X107850000Y-68200000D03*
%TD*%
D21*
%TO.C,R5*%
X117390000Y-103675000D03*
X117390000Y-101850000D03*
%TD*%
D24*
%TO.C,TP5*%
X133350000Y-110950000D03*
%TD*%
D25*
%TO.C,Q1*%
X113452500Y-94400000D03*
X113452500Y-96300000D03*
X115327500Y-95350000D03*
%TD*%
D22*
%TO.C,J1*%
X123000000Y-136000000D03*
X123000000Y-130158000D03*
%TD*%
D24*
%TO.C,TP3*%
X112350000Y-110700000D03*
%TD*%
D18*
%TO.C,R1*%
X110890000Y-94437500D03*
X110890000Y-96262500D03*
%TD*%
D22*
%TO.C,J3*%
X131167900Y-129617900D03*
X131167900Y-135282100D03*
X136832100Y-135282100D03*
X136832100Y-129617900D03*
%TD*%
D24*
%TO.C,TP6*%
X106140000Y-89350000D03*
%TD*%
D21*
%TO.C,R2*%
X119390000Y-89762500D03*
X119390000Y-87937500D03*
%TD*%
D24*
%TO.C,TP4*%
X106140000Y-94600000D03*
%TD*%
D23*
%TO.C,TP2*%
X136350000Y-68200000D03*
%TD*%
D18*
%TO.C,R4*%
X119390000Y-91937500D03*
X119390000Y-93762500D03*
%TD*%
M02*
