%TF.GenerationSoftware,KiCad,Pcbnew,(6.0.5)*%
%TF.CreationDate,2022-08-02T11:39:28-06:00*%
%TF.ProjectId,fet_stress_test,6665745f-7374-4726-9573-735f74657374,rev?*%
%TF.SameCoordinates,Original*%
%TF.FileFunction,Copper,L2,Bot*%
%TF.FilePolarity,Positive*%
%FSLAX46Y46*%
G04 Gerber Fmt 4.6, Leading zero omitted, Abs format (unit mm)*
G04 Created by KiCad (PCBNEW (6.0.5)) date 2022-08-02 11:39:28*
%MOMM*%
%LPD*%
G01*
G04 APERTURE LIST*
G04 Aperture macros list*
%AMRoundRect*
0 Rectangle with rounded corners*
0 $1 Rounding radius*
0 $2 $3 $4 $5 $6 $7 $8 $9 X,Y pos of 4 corners*
0 Add a 4 corners polygon primitive as box body*
4,1,4,$2,$3,$4,$5,$6,$7,$8,$9,$2,$3,0*
0 Add four circle primitives for the rounded corners*
1,1,$1+$1,$2,$3*
1,1,$1+$1,$4,$5*
1,1,$1+$1,$6,$7*
1,1,$1+$1,$8,$9*
0 Add four rect primitives between the rounded corners*
20,1,$1+$1,$2,$3,$4,$5,0*
20,1,$1+$1,$4,$5,$6,$7,0*
20,1,$1+$1,$6,$7,$8,$9,0*
20,1,$1+$1,$8,$9,$2,$3,0*%
G04 Aperture macros list end*
%TA.AperFunction,ComponentPad*%
%ADD10R,1.905000X2.000000*%
%TD*%
%TA.AperFunction,ComponentPad*%
%ADD11O,1.905000X2.000000*%
%TD*%
%TA.AperFunction,ComponentPad*%
%ADD12R,2.500000X4.500000*%
%TD*%
%TA.AperFunction,ComponentPad*%
%ADD13O,2.500000X4.500000*%
%TD*%
%TA.AperFunction,ComponentPad*%
%ADD14R,1.800000X1.800000*%
%TD*%
%TA.AperFunction,ComponentPad*%
%ADD15C,1.800000*%
%TD*%
%TA.AperFunction,ComponentPad*%
%ADD16C,4.000000*%
%TD*%
%TA.AperFunction,ComponentPad*%
%ADD17RoundRect,0.750000X-6.750000X-6.750000X6.750000X-6.750000X6.750000X6.750000X-6.750000X6.750000X0*%
%TD*%
%TA.AperFunction,ComponentPad*%
%ADD18C,1.500000*%
%TD*%
%TA.AperFunction,ViaPad*%
%ADD19C,0.750000*%
%TD*%
%TA.AperFunction,ViaPad*%
%ADD20C,0.510000*%
%TD*%
G04 APERTURE END LIST*
D10*
%TO.P,Q2,1,G*%
%TO.N,Net-(D2-Pad1)*%
X124850000Y-98400000D03*
D11*
%TO.P,Q2,2,D*%
%TO.N,/OUTPUT*%
X127390000Y-98400000D03*
%TO.P,Q2,3,S*%
%TO.N,/24V*%
X129930000Y-98400000D03*
%TD*%
D12*
%TO.P,R7,1*%
%TO.N,/OUTPUT*%
X118300000Y-120560000D03*
D13*
%TO.P,R7,2*%
%TO.N,GND*%
X107400000Y-120560000D03*
%TD*%
D14*
%TO.P,D4,1,K*%
%TO.N,GND*%
X110390000Y-100075000D03*
D15*
%TO.P,D4,2,A*%
%TO.N,Net-(D4-Pad2)*%
X110390000Y-102615000D03*
%TD*%
D14*
%TO.P,D1,1,K*%
%TO.N,Net-(D1-Pad1)*%
X113890000Y-89625000D03*
D15*
%TO.P,D1,2,A*%
%TO.N,Net-(D1-Pad2)*%
X113890000Y-87085000D03*
%TD*%
D12*
%TO.P,R8,1*%
%TO.N,GND*%
X138800000Y-120560000D03*
D13*
%TO.P,R8,2*%
%TO.N,/OUTPUT*%
X127900000Y-120560000D03*
%TD*%
D16*
%TO.P,J2,1,Pin_1*%
%TO.N,GND*%
X111000000Y-129700440D03*
%TO.P,J2,2,Pin_2*%
X108142500Y-134649780D03*
%TO.P,J2,3,Pin_3*%
X113857500Y-134649780D03*
%TD*%
D17*
%TO.P,TP1,1,1*%
%TO.N,GND*%
X107850000Y-68200000D03*
%TD*%
D18*
%TO.P,TP5,1,1*%
%TO.N,/OUTPUT*%
X133350000Y-110950000D03*
%TD*%
D16*
%TO.P,J1,1,Pin_1*%
%TO.N,GND*%
X123000000Y-136000000D03*
%TO.P,J1,2,Pin_2*%
X123000000Y-130158000D03*
%TD*%
D18*
%TO.P,TP3,1,1*%
%TO.N,GND*%
X112350000Y-110700000D03*
%TD*%
D16*
%TO.P,J3,1,Pin_1*%
%TO.N,GND*%
X131167900Y-129617900D03*
%TO.P,J3,2,Pin_2*%
X131167900Y-135282100D03*
%TO.P,J3,3,Pin_3*%
X136832100Y-135282100D03*
%TO.P,J3,4,Pin_4*%
X136832100Y-129617900D03*
%TD*%
D18*
%TO.P,TP6,1,1*%
%TO.N,GND*%
X106140000Y-89350000D03*
%TD*%
%TO.P,TP4,1,1*%
%TO.N,Net-(R1-Pad2)*%
X106140000Y-94600000D03*
%TD*%
D17*
%TO.P,TP2,1,1*%
%TO.N,/24V*%
X136350000Y-68200000D03*
%TD*%
D19*
%TO.N,GND*%
X104033000Y-115730000D03*
X142133000Y-146210000D03*
X106573000Y-100490000D03*
X109113000Y-115730000D03*
X126893000Y-125890000D03*
X104033000Y-108110000D03*
X114193000Y-130970000D03*
X129433000Y-143670000D03*
X106573000Y-115730000D03*
X111653000Y-118270000D03*
X104033000Y-105570000D03*
X116733000Y-138590000D03*
X114193000Y-128430000D03*
X131973000Y-125890000D03*
X124353000Y-146210000D03*
X109113000Y-80170000D03*
X101493000Y-80170000D03*
X101493000Y-128430000D03*
X126893000Y-143670000D03*
X101493000Y-123350000D03*
X111653000Y-97950000D03*
X119273000Y-105570000D03*
X126893000Y-138590000D03*
X104033000Y-146210000D03*
X139593000Y-108110000D03*
X114193000Y-82710000D03*
X109113000Y-77630000D03*
X101493000Y-87790000D03*
X101493000Y-120810000D03*
X114193000Y-97950000D03*
X129433000Y-125890000D03*
X101493000Y-108110000D03*
X111653000Y-115730000D03*
X114193000Y-143670000D03*
X106573000Y-80170000D03*
X116733000Y-67470000D03*
X139593000Y-110650000D03*
X121813000Y-143670000D03*
X134513000Y-118270000D03*
X101493000Y-105570000D03*
X142133000Y-130970000D03*
X116733000Y-64930000D03*
X126893000Y-133510000D03*
X126893000Y-64930000D03*
X137053000Y-108110000D03*
X111653000Y-146210000D03*
X139593000Y-133510000D03*
X109113000Y-90330000D03*
X104033000Y-143670000D03*
X121813000Y-75090000D03*
X101493000Y-130970000D03*
X121813000Y-64930000D03*
X121813000Y-72550000D03*
X104033000Y-113190000D03*
X101493000Y-103030000D03*
X106573000Y-92870000D03*
X109113000Y-85250000D03*
X104033000Y-128430000D03*
X104033000Y-130970000D03*
X142133000Y-113190000D03*
X116733000Y-128430000D03*
X104033000Y-103030000D03*
X111653000Y-143670000D03*
X142133000Y-123350000D03*
X119273000Y-113190000D03*
X111653000Y-80170000D03*
X119273000Y-130970000D03*
X111653000Y-108110000D03*
X111653000Y-85250000D03*
X121813000Y-62390000D03*
X101493000Y-95410000D03*
X119273000Y-141130000D03*
X139593000Y-143670000D03*
X111653000Y-120810000D03*
X106573000Y-77630000D03*
X116733000Y-113190000D03*
X124353000Y-143670000D03*
X111653000Y-92870000D03*
X119273000Y-146210000D03*
X137053000Y-125890000D03*
X114193000Y-113190000D03*
X119273000Y-80170000D03*
X101493000Y-118270000D03*
X139593000Y-103030000D03*
X104033000Y-123350000D03*
X119273000Y-77630000D03*
X116733000Y-70010000D03*
X109113000Y-108110000D03*
X106573000Y-113190000D03*
X139593000Y-115730000D03*
X126893000Y-130970000D03*
X119273000Y-67470000D03*
X142133000Y-125890000D03*
X114193000Y-123350000D03*
X114193000Y-100490000D03*
X109113000Y-82710000D03*
X142133000Y-141130000D03*
X129433000Y-138590000D03*
X104033000Y-125890000D03*
X134513000Y-123350000D03*
X119273000Y-128430000D03*
X126893000Y-146210000D03*
X106573000Y-103030000D03*
X139593000Y-105570000D03*
X114193000Y-80170000D03*
X114193000Y-118270000D03*
X104033000Y-77630000D03*
X126893000Y-70010000D03*
X121813000Y-146210000D03*
X124353000Y-64930000D03*
X104033000Y-136050000D03*
X137053000Y-105570000D03*
X109113000Y-125890000D03*
X116733000Y-97950000D03*
X101493000Y-133510000D03*
X119273000Y-125890000D03*
X134513000Y-113190000D03*
X134513000Y-108110000D03*
X137053000Y-115730000D03*
X101493000Y-138590000D03*
X124353000Y-125890000D03*
X137053000Y-110650000D03*
X137053000Y-141130000D03*
X116733000Y-143670000D03*
X119273000Y-70010000D03*
X134513000Y-103030000D03*
X101493000Y-146210000D03*
X114193000Y-77630000D03*
X109113000Y-146210000D03*
X104033000Y-118270000D03*
X111653000Y-123350000D03*
X116733000Y-141130000D03*
X106573000Y-146210000D03*
X104033000Y-110650000D03*
X119273000Y-143670000D03*
X101493000Y-115730000D03*
X116733000Y-108110000D03*
X101493000Y-92870000D03*
X114193000Y-108110000D03*
X116733000Y-130970000D03*
X139593000Y-125890000D03*
X101493000Y-85250000D03*
X134513000Y-146210000D03*
X116733000Y-125890000D03*
X137053000Y-103030000D03*
X101493000Y-143670000D03*
X101493000Y-97950000D03*
X139593000Y-138590000D03*
X114193000Y-105570000D03*
X106573000Y-108110000D03*
X104033000Y-95410000D03*
X106573000Y-97950000D03*
X104033000Y-138590000D03*
X101493000Y-82710000D03*
X134513000Y-120810000D03*
X119273000Y-62390000D03*
X106573000Y-130970000D03*
X111653000Y-125890000D03*
X116733000Y-82710000D03*
X109113000Y-97950000D03*
X142133000Y-118270000D03*
X101493000Y-136050000D03*
X137053000Y-146210000D03*
X126893000Y-72550000D03*
X121813000Y-108110000D03*
X134513000Y-143670000D03*
X119273000Y-138590000D03*
X142133000Y-136050000D03*
X109113000Y-143670000D03*
X104033000Y-80170000D03*
X124353000Y-70010000D03*
X101493000Y-113190000D03*
X111653000Y-113190000D03*
X106573000Y-138590000D03*
X121813000Y-67470000D03*
X129433000Y-146210000D03*
X116733000Y-146210000D03*
X142133000Y-115730000D03*
X119273000Y-108110000D03*
X139593000Y-146210000D03*
X104033000Y-141130000D03*
X116733000Y-77630000D03*
X106573000Y-125890000D03*
X134513000Y-105570000D03*
X109113000Y-105570000D03*
X109113000Y-92870000D03*
X106573000Y-143670000D03*
X106573000Y-85250000D03*
X126893000Y-75090000D03*
X124353000Y-67470000D03*
X119273000Y-75090000D03*
X116733000Y-62390000D03*
X104033000Y-120810000D03*
X142133000Y-105570000D03*
X121813000Y-141130000D03*
X119273000Y-133510000D03*
X126893000Y-67470000D03*
X109113000Y-138590000D03*
X114193000Y-115730000D03*
X142133000Y-120810000D03*
X116733000Y-133510000D03*
X134513000Y-115730000D03*
X139593000Y-141130000D03*
X142133000Y-108110000D03*
X121813000Y-125890000D03*
X104033000Y-85250000D03*
X104033000Y-92870000D03*
X116733000Y-80170000D03*
X106573000Y-141130000D03*
X101493000Y-77630000D03*
X101493000Y-100490000D03*
X126893000Y-62390000D03*
X104033000Y-90330000D03*
X137053000Y-138590000D03*
X131973000Y-143670000D03*
X111653000Y-82710000D03*
X142133000Y-128430000D03*
X109113000Y-87790000D03*
X126893000Y-128430000D03*
X139593000Y-113190000D03*
X114193000Y-146210000D03*
X121813000Y-105570000D03*
X116733000Y-115730000D03*
X104033000Y-133510000D03*
X111653000Y-87790000D03*
X109113000Y-141130000D03*
X126893000Y-136050000D03*
X106573000Y-128430000D03*
X114193000Y-92870000D03*
X124353000Y-72550000D03*
X126893000Y-141130000D03*
X137053000Y-143670000D03*
X124353000Y-141130000D03*
X109113000Y-110650000D03*
X121813000Y-70010000D03*
X142133000Y-103030000D03*
X121813000Y-115730000D03*
X119273000Y-64930000D03*
X116733000Y-136050000D03*
X119273000Y-136050000D03*
X101493000Y-90330000D03*
X124353000Y-62390000D03*
X119273000Y-115730000D03*
X114193000Y-110650000D03*
X142133000Y-138590000D03*
X109113000Y-113190000D03*
X111653000Y-105570000D03*
X111653000Y-77630000D03*
X116733000Y-72550000D03*
X134513000Y-125890000D03*
X142133000Y-143670000D03*
X101493000Y-125890000D03*
X121813000Y-113190000D03*
X104033000Y-97950000D03*
X114193000Y-125890000D03*
X101493000Y-141130000D03*
X114193000Y-120810000D03*
X104033000Y-82710000D03*
X124353000Y-75090000D03*
X104033000Y-87790000D03*
X131973000Y-146210000D03*
X116733000Y-75090000D03*
X111653000Y-90330000D03*
X137053000Y-113190000D03*
X119273000Y-100490000D03*
X116733000Y-105570000D03*
X106573000Y-105570000D03*
X106573000Y-110650000D03*
X104033000Y-100490000D03*
X101493000Y-110650000D03*
X119273000Y-72550000D03*
X142133000Y-133510000D03*
X129433000Y-141130000D03*
X142133000Y-110650000D03*
X106573000Y-82710000D03*
D20*
%TO.N,/24V*%
X139593000Y-82710000D03*
X139593000Y-77630000D03*
X139593000Y-80170000D03*
X131973000Y-97950000D03*
X139593000Y-87790000D03*
X139593000Y-85250000D03*
X137053000Y-97950000D03*
X134513000Y-97950000D03*
X139593000Y-95410000D03*
X139593000Y-92870000D03*
X139593000Y-97950000D03*
X139593000Y-90330000D03*
%TO.N,/OUTPUT*%
X129433000Y-108110000D03*
X131973000Y-90330000D03*
X124353000Y-118270000D03*
X126893000Y-108110000D03*
X129433000Y-123350000D03*
X134513000Y-85250000D03*
X124353000Y-90330000D03*
X129433000Y-115730000D03*
X129433000Y-105570000D03*
X134513000Y-90330000D03*
X121813000Y-90330000D03*
X124353000Y-120810000D03*
X134513000Y-92870000D03*
X134513000Y-87790000D03*
X124353000Y-115730000D03*
X126893000Y-103030000D03*
X124353000Y-123350000D03*
X126893000Y-113190000D03*
X124353000Y-108110000D03*
X129433000Y-113190000D03*
X134513000Y-80170000D03*
X126893000Y-87790000D03*
X121813000Y-87790000D03*
X131973000Y-87790000D03*
X126893000Y-105570000D03*
X126893000Y-110650000D03*
X134513000Y-82710000D03*
X126893000Y-100490000D03*
X124353000Y-105570000D03*
X129433000Y-103030000D03*
X126893000Y-115730000D03*
X121813000Y-120810000D03*
X124353000Y-87790000D03*
X129433000Y-92870000D03*
X124353000Y-113190000D03*
X131973000Y-92870000D03*
X124353000Y-92870000D03*
X126893000Y-90330000D03*
X129433000Y-90330000D03*
X126893000Y-92870000D03*
X121813000Y-123350000D03*
X121813000Y-118270000D03*
X129433000Y-87790000D03*
%TD*%
%TA.AperFunction,Conductor*%
%TO.N,/OUTPUT*%
G36*
X128350000Y-103950000D02*
G01*
X126350000Y-103950000D01*
X126350000Y-95700000D01*
X128350000Y-95700000D01*
X128350000Y-103950000D01*
G37*
%TD.AperFunction*%
%TD*%
%TA.AperFunction,Conductor*%
%TO.N,/OUTPUT*%
G36*
X130106163Y-101050607D02*
G01*
X130282740Y-101067999D01*
X130306957Y-101072815D01*
X130470809Y-101122518D01*
X130493629Y-101131971D01*
X130644631Y-101212683D01*
X130665158Y-101226399D01*
X130797521Y-101335026D01*
X130814974Y-101352479D01*
X130923601Y-101484842D01*
X130937319Y-101505372D01*
X131018029Y-101656371D01*
X131027482Y-101679190D01*
X131077185Y-101843043D01*
X131082002Y-101867263D01*
X131099393Y-102043837D01*
X131100000Y-102056187D01*
X131100000Y-122943813D01*
X131099393Y-122956163D01*
X131082002Y-123132737D01*
X131077185Y-123156957D01*
X131027482Y-123320809D01*
X131018029Y-123343629D01*
X130937319Y-123494628D01*
X130923601Y-123515158D01*
X130814974Y-123647521D01*
X130797521Y-123664974D01*
X130665158Y-123773601D01*
X130644631Y-123787317D01*
X130552417Y-123836607D01*
X130493629Y-123868029D01*
X130470810Y-123877482D01*
X130306957Y-123927185D01*
X130282740Y-123932001D01*
X130106163Y-123949393D01*
X130093813Y-123950000D01*
X116606187Y-123950000D01*
X116593837Y-123949393D01*
X116417260Y-123932001D01*
X116393043Y-123927185D01*
X116229190Y-123877482D01*
X116206371Y-123868029D01*
X116147583Y-123836607D01*
X116055369Y-123787317D01*
X116034842Y-123773601D01*
X115902479Y-123664974D01*
X115885026Y-123647521D01*
X115776399Y-123515158D01*
X115762681Y-123494628D01*
X115681971Y-123343629D01*
X115672518Y-123320809D01*
X115622815Y-123156957D01*
X115617998Y-123132737D01*
X115600607Y-122956163D01*
X115600000Y-122943813D01*
X115600000Y-117956187D01*
X115600607Y-117943837D01*
X115617998Y-117767263D01*
X115622815Y-117743043D01*
X115672518Y-117579190D01*
X115681971Y-117556371D01*
X115762681Y-117405372D01*
X115776399Y-117384842D01*
X115885026Y-117252479D01*
X115902479Y-117235026D01*
X116034842Y-117126399D01*
X116055369Y-117112683D01*
X116206371Y-117031971D01*
X116229191Y-117022518D01*
X116393043Y-116972815D01*
X116417260Y-116967999D01*
X116593837Y-116950607D01*
X116606187Y-116950000D01*
X123350000Y-116950000D01*
X123350000Y-101050000D01*
X130093813Y-101050000D01*
X130106163Y-101050607D01*
G37*
%TD.AperFunction*%
%TD*%
%TA.AperFunction,Conductor*%
%TO.N,/24V*%
G36*
X141606163Y-72700607D02*
G01*
X141782740Y-72717999D01*
X141806957Y-72722815D01*
X141970809Y-72772518D01*
X141993629Y-72781971D01*
X142144631Y-72862683D01*
X142165158Y-72876399D01*
X142297521Y-72985026D01*
X142314974Y-73002479D01*
X142423601Y-73134842D01*
X142437319Y-73155372D01*
X142518029Y-73306371D01*
X142527482Y-73329190D01*
X142577185Y-73493043D01*
X142582002Y-73517263D01*
X142599393Y-73693837D01*
X142600000Y-73706187D01*
X142600000Y-98943813D01*
X142599393Y-98956163D01*
X142582002Y-99132737D01*
X142577185Y-99156957D01*
X142527482Y-99320809D01*
X142518029Y-99343629D01*
X142437319Y-99494628D01*
X142423601Y-99515158D01*
X142314974Y-99647521D01*
X142297521Y-99664974D01*
X142165158Y-99773601D01*
X142144631Y-99787317D01*
X142052417Y-99836607D01*
X141993629Y-99868029D01*
X141970810Y-99877482D01*
X141806957Y-99927185D01*
X141782740Y-99932001D01*
X141606163Y-99949393D01*
X141593813Y-99950000D01*
X130106187Y-99950000D01*
X130093837Y-99949393D01*
X129917260Y-99932001D01*
X129893043Y-99927185D01*
X129729190Y-99877482D01*
X129706371Y-99868029D01*
X129647583Y-99836607D01*
X129555369Y-99787317D01*
X129534842Y-99773601D01*
X129402479Y-99664974D01*
X129385026Y-99647521D01*
X129276399Y-99515158D01*
X129262681Y-99494628D01*
X129181971Y-99343629D01*
X129172518Y-99320809D01*
X129122815Y-99156957D01*
X129117998Y-99132737D01*
X129100607Y-98956163D01*
X129100000Y-98943813D01*
X129100000Y-97456187D01*
X129100607Y-97443837D01*
X129117998Y-97267263D01*
X129122815Y-97243043D01*
X129172518Y-97079190D01*
X129181971Y-97056371D01*
X129262681Y-96905372D01*
X129276399Y-96884842D01*
X129385026Y-96752479D01*
X129402479Y-96735026D01*
X129534842Y-96626399D01*
X129555369Y-96612683D01*
X129706371Y-96531971D01*
X129729191Y-96522518D01*
X129893043Y-96472815D01*
X129917260Y-96467999D01*
X130093837Y-96450607D01*
X130106187Y-96450000D01*
X137600000Y-96450000D01*
X137600000Y-73706187D01*
X137600607Y-73693837D01*
X137617998Y-73517263D01*
X137622815Y-73493043D01*
X137672518Y-73329190D01*
X137681971Y-73306371D01*
X137762681Y-73155372D01*
X137776399Y-73134842D01*
X137885026Y-73002479D01*
X137902479Y-72985026D01*
X138034842Y-72876399D01*
X138055369Y-72862683D01*
X138206371Y-72781971D01*
X138229191Y-72772518D01*
X138393043Y-72722815D01*
X138417260Y-72717999D01*
X138593837Y-72700607D01*
X138606187Y-72700000D01*
X141593813Y-72700000D01*
X141606163Y-72700607D01*
G37*
%TD.AperFunction*%
%TD*%
%TA.AperFunction,Conductor*%
%TO.N,/OUTPUT*%
G36*
X135106163Y-77200607D02*
G01*
X135282740Y-77217999D01*
X135306957Y-77222815D01*
X135470809Y-77272518D01*
X135493629Y-77281971D01*
X135644631Y-77362683D01*
X135665158Y-77376399D01*
X135797521Y-77485026D01*
X135814974Y-77502479D01*
X135923601Y-77634842D01*
X135937319Y-77655372D01*
X136018029Y-77806371D01*
X136027482Y-77829190D01*
X136077185Y-77993043D01*
X136082002Y-78017263D01*
X136099393Y-78193837D01*
X136100000Y-78206187D01*
X136100000Y-94693813D01*
X136099393Y-94706163D01*
X136082002Y-94882737D01*
X136077185Y-94906957D01*
X136027482Y-95070809D01*
X136018029Y-95093629D01*
X135937319Y-95244628D01*
X135923601Y-95265158D01*
X135814974Y-95397521D01*
X135797521Y-95414974D01*
X135665158Y-95523601D01*
X135644631Y-95537317D01*
X135552417Y-95586607D01*
X135493629Y-95618029D01*
X135470810Y-95627482D01*
X135306957Y-95677185D01*
X135282740Y-95682001D01*
X135106163Y-95699393D01*
X135093813Y-95700000D01*
X121356187Y-95700000D01*
X121343837Y-95699393D01*
X121167260Y-95682001D01*
X121143043Y-95677185D01*
X120979190Y-95627482D01*
X120956371Y-95618029D01*
X120897583Y-95586607D01*
X120805369Y-95537317D01*
X120784842Y-95523601D01*
X120652479Y-95414974D01*
X120635026Y-95397521D01*
X120526399Y-95265158D01*
X120512681Y-95244628D01*
X120431971Y-95093629D01*
X120422518Y-95070809D01*
X120372815Y-94906957D01*
X120367998Y-94882737D01*
X120350607Y-94706163D01*
X120350000Y-94693813D01*
X120350000Y-78206187D01*
X120350607Y-78193837D01*
X120367998Y-78017263D01*
X120372815Y-77993043D01*
X120422518Y-77829190D01*
X120431971Y-77806371D01*
X120512681Y-77655372D01*
X120526399Y-77634842D01*
X120635026Y-77502479D01*
X120652479Y-77485026D01*
X120784842Y-77376399D01*
X120805369Y-77362683D01*
X120956371Y-77281971D01*
X120979191Y-77272518D01*
X121143043Y-77222815D01*
X121167260Y-77217999D01*
X121343837Y-77200607D01*
X121356187Y-77200000D01*
X135093813Y-77200000D01*
X135106163Y-77200607D01*
G37*
%TD.AperFunction*%
%TD*%
%TA.AperFunction,Conductor*%
%TO.N,GND*%
G36*
X128347490Y-60920002D02*
G01*
X128393983Y-60973658D01*
X128404087Y-61043932D01*
X128401411Y-61057335D01*
X128353022Y-61245800D01*
X128352587Y-61251151D01*
X128345780Y-61334842D01*
X128341500Y-61387458D01*
X128341500Y-75012542D01*
X128353022Y-75154200D01*
X128408890Y-75371794D01*
X128502409Y-75576055D01*
X128630620Y-75760527D01*
X128789473Y-75919380D01*
X128973945Y-76047591D01*
X129178206Y-76141110D01*
X129395800Y-76196978D01*
X129449705Y-76201362D01*
X129534908Y-76208293D01*
X129534918Y-76208293D01*
X129537458Y-76208500D01*
X136960500Y-76208500D01*
X137028621Y-76228502D01*
X137075114Y-76282158D01*
X137086500Y-76334500D01*
X137086500Y-95810500D01*
X137066498Y-95878621D01*
X137012842Y-95925114D01*
X136960500Y-95936500D01*
X136302918Y-95936500D01*
X136234797Y-95916498D01*
X136188304Y-95862842D01*
X136178200Y-95792568D01*
X136209551Y-95725892D01*
X136210874Y-95724432D01*
X136210899Y-95724403D01*
X136211916Y-95723281D01*
X136250994Y-95675664D01*
X136319562Y-95592114D01*
X136319572Y-95592101D01*
X136320543Y-95590918D01*
X136350558Y-95550448D01*
X136364276Y-95529918D01*
X136390186Y-95486689D01*
X136390911Y-95485333D01*
X136390921Y-95485315D01*
X136470160Y-95337067D01*
X136470160Y-95337066D01*
X136470896Y-95335690D01*
X136492436Y-95290148D01*
X136501889Y-95267328D01*
X136514655Y-95231653D01*
X136518344Y-95221344D01*
X136518346Y-95221338D01*
X136518872Y-95219868D01*
X136568575Y-95056016D01*
X136580821Y-95007123D01*
X136585638Y-94982903D01*
X136593029Y-94933069D01*
X136603705Y-94824681D01*
X136610345Y-94757260D01*
X136610347Y-94757232D01*
X136610420Y-94756495D01*
X136612274Y-94731371D01*
X136612881Y-94719021D01*
X136613500Y-94693813D01*
X136613500Y-78206187D01*
X136612881Y-78180979D01*
X136612274Y-78168629D01*
X136610420Y-78143505D01*
X136593029Y-77966931D01*
X136585638Y-77917097D01*
X136580821Y-77892877D01*
X136568575Y-77843985D01*
X136518872Y-77680132D01*
X136501886Y-77632663D01*
X136492433Y-77609844D01*
X136470896Y-77564310D01*
X136450715Y-77526554D01*
X136390921Y-77414685D01*
X136390911Y-77414667D01*
X136390186Y-77413311D01*
X136364276Y-77370082D01*
X136350558Y-77349552D01*
X136320543Y-77309082D01*
X136319572Y-77307899D01*
X136319562Y-77307886D01*
X136212880Y-77177894D01*
X136211916Y-77176719D01*
X136178073Y-77139380D01*
X136160620Y-77121927D01*
X136123281Y-77088084D01*
X136075664Y-77049006D01*
X135992114Y-76980438D01*
X135992101Y-76980428D01*
X135990918Y-76979457D01*
X135950448Y-76949442D01*
X135929921Y-76935726D01*
X135914753Y-76926635D01*
X135888035Y-76910620D01*
X135888024Y-76910614D01*
X135886693Y-76909816D01*
X135823726Y-76876160D01*
X135737065Y-76829838D01*
X135737052Y-76829831D01*
X135735691Y-76829104D01*
X135710507Y-76817193D01*
X135691523Y-76808214D01*
X135691512Y-76808209D01*
X135690148Y-76807564D01*
X135667328Y-76798111D01*
X135619868Y-76781128D01*
X135618391Y-76780680D01*
X135618376Y-76780675D01*
X135525250Y-76752427D01*
X135456016Y-76731425D01*
X135454537Y-76731055D01*
X135454524Y-76731051D01*
X135408605Y-76719551D01*
X135408599Y-76719550D01*
X135407115Y-76719178D01*
X135382898Y-76714362D01*
X135381384Y-76714138D01*
X135381370Y-76714135D01*
X135360958Y-76711108D01*
X135333074Y-76706972D01*
X135331513Y-76706818D01*
X135331511Y-76706818D01*
X135157290Y-76689658D01*
X135157282Y-76689657D01*
X135156497Y-76689580D01*
X135131371Y-76687726D01*
X135125090Y-76687417D01*
X135119763Y-76687155D01*
X135119726Y-76687154D01*
X135119021Y-76687119D01*
X135099782Y-76686647D01*
X135094548Y-76686518D01*
X135094544Y-76686518D01*
X135093813Y-76686500D01*
X121356187Y-76686500D01*
X121355456Y-76686518D01*
X121355452Y-76686518D01*
X121350218Y-76686647D01*
X121330979Y-76687119D01*
X121330274Y-76687154D01*
X121330237Y-76687155D01*
X121324910Y-76687417D01*
X121318629Y-76687726D01*
X121293503Y-76689580D01*
X121292718Y-76689657D01*
X121292710Y-76689658D01*
X121118489Y-76706818D01*
X121118487Y-76706818D01*
X121116926Y-76706972D01*
X121089042Y-76711108D01*
X121068630Y-76714135D01*
X121068616Y-76714138D01*
X121067102Y-76714362D01*
X121042885Y-76719178D01*
X121041401Y-76719550D01*
X121041395Y-76719551D01*
X120995476Y-76731051D01*
X120995463Y-76731055D01*
X120993984Y-76731425D01*
X120924750Y-76752427D01*
X120831624Y-76780675D01*
X120831609Y-76780680D01*
X120830132Y-76781128D01*
X120782672Y-76798111D01*
X120759852Y-76807564D01*
X120758488Y-76808209D01*
X120758477Y-76808214D01*
X120739493Y-76817193D01*
X120714309Y-76829104D01*
X120712948Y-76829831D01*
X120712935Y-76829838D01*
X120626274Y-76876160D01*
X120563307Y-76909816D01*
X120561976Y-76910614D01*
X120561965Y-76910620D01*
X120535247Y-76926635D01*
X120520079Y-76935726D01*
X120499552Y-76949442D01*
X120459082Y-76979457D01*
X120457899Y-76980428D01*
X120457886Y-76980438D01*
X120374336Y-77049006D01*
X120326719Y-77088084D01*
X120289380Y-77121927D01*
X120271927Y-77139380D01*
X120238084Y-77176719D01*
X120237120Y-77177894D01*
X120130438Y-77307886D01*
X120130428Y-77307899D01*
X120129457Y-77309082D01*
X120099442Y-77349552D01*
X120085724Y-77370082D01*
X120059814Y-77413311D01*
X120059089Y-77414667D01*
X120059079Y-77414685D01*
X119999285Y-77526554D01*
X119979104Y-77564310D01*
X119957567Y-77609844D01*
X119948114Y-77632663D01*
X119931128Y-77680132D01*
X119881425Y-77843985D01*
X119869179Y-77892877D01*
X119864362Y-77917097D01*
X119856971Y-77966931D01*
X119839580Y-78143505D01*
X119837726Y-78168629D01*
X119837119Y-78180979D01*
X119836500Y-78206187D01*
X119836500Y-94693813D01*
X119837119Y-94719021D01*
X119837726Y-94731371D01*
X119839580Y-94756495D01*
X119839653Y-94757232D01*
X119839655Y-94757260D01*
X119846296Y-94824681D01*
X119856971Y-94933069D01*
X119864362Y-94982903D01*
X119869179Y-95007123D01*
X119881425Y-95056016D01*
X119931128Y-95219868D01*
X119931654Y-95221338D01*
X119931656Y-95221344D01*
X119935345Y-95231653D01*
X119948111Y-95267328D01*
X119957564Y-95290148D01*
X119979104Y-95335690D01*
X119979840Y-95337066D01*
X119979840Y-95337067D01*
X120059079Y-95485315D01*
X120059089Y-95485333D01*
X120059814Y-95486689D01*
X120085724Y-95529918D01*
X120099442Y-95550448D01*
X120129457Y-95590918D01*
X120130428Y-95592101D01*
X120130438Y-95592114D01*
X120199006Y-95675664D01*
X120238084Y-95723281D01*
X120271927Y-95760620D01*
X120289380Y-95778073D01*
X120290521Y-95779107D01*
X120290525Y-95779111D01*
X120295120Y-95783276D01*
X120332159Y-95843845D01*
X120336500Y-95876633D01*
X120336500Y-102943813D01*
X120337119Y-102969021D01*
X120337726Y-102981371D01*
X120339580Y-103006495D01*
X120339653Y-103007232D01*
X120339655Y-103007260D01*
X120351777Y-103130329D01*
X120356971Y-103183069D01*
X120364362Y-103232903D01*
X120369179Y-103257123D01*
X120381425Y-103306016D01*
X120431128Y-103469868D01*
X120448111Y-103517328D01*
X120457564Y-103540148D01*
X120479104Y-103585690D01*
X120479840Y-103587066D01*
X120479840Y-103587067D01*
X120559079Y-103735315D01*
X120559089Y-103735333D01*
X120559814Y-103736689D01*
X120585724Y-103779918D01*
X120599442Y-103800448D01*
X120600353Y-103801676D01*
X120600357Y-103801682D01*
X120628538Y-103839679D01*
X120629457Y-103840918D01*
X120630428Y-103842101D01*
X120630438Y-103842114D01*
X120667256Y-103886977D01*
X120738084Y-103973281D01*
X120771927Y-104010620D01*
X120789380Y-104028073D01*
X120826719Y-104061916D01*
X120827894Y-104062880D01*
X120957886Y-104169562D01*
X120957899Y-104169572D01*
X120959082Y-104170543D01*
X120999552Y-104200558D01*
X121020079Y-104214274D01*
X121063305Y-104240182D01*
X121155519Y-104289472D01*
X121155526Y-104289476D01*
X121214314Y-104320898D01*
X121259844Y-104342433D01*
X121282663Y-104351886D01*
X121330132Y-104368872D01*
X121493985Y-104418575D01*
X121495465Y-104418946D01*
X121495477Y-104418949D01*
X121541395Y-104430449D01*
X121541402Y-104430450D01*
X121542885Y-104430822D01*
X121567102Y-104435638D01*
X121568616Y-104435862D01*
X121568630Y-104435865D01*
X121589042Y-104438892D01*
X121616926Y-104443028D01*
X121618487Y-104443182D01*
X121618489Y-104443182D01*
X121792710Y-104460342D01*
X121792718Y-104460343D01*
X121793503Y-104460420D01*
X121818629Y-104462274D01*
X121824910Y-104462583D01*
X121830237Y-104462845D01*
X121830274Y-104462846D01*
X121830979Y-104462881D01*
X121850218Y-104463353D01*
X121855452Y-104463482D01*
X121855456Y-104463482D01*
X121856187Y-104463500D01*
X122710500Y-104463500D01*
X122778621Y-104483502D01*
X122825114Y-104537158D01*
X122836500Y-104589500D01*
X122836500Y-116310500D01*
X122816498Y-116378621D01*
X122762842Y-116425114D01*
X122710500Y-116436500D01*
X116606187Y-116436500D01*
X116605456Y-116436518D01*
X116605452Y-116436518D01*
X116600218Y-116436647D01*
X116580979Y-116437119D01*
X116580274Y-116437154D01*
X116580237Y-116437155D01*
X116574910Y-116437417D01*
X116568629Y-116437726D01*
X116543503Y-116439580D01*
X116542718Y-116439657D01*
X116542710Y-116439658D01*
X116368489Y-116456818D01*
X116368487Y-116456818D01*
X116366926Y-116456972D01*
X116339042Y-116461108D01*
X116318630Y-116464135D01*
X116318616Y-116464138D01*
X116317102Y-116464362D01*
X116292885Y-116469178D01*
X116291401Y-116469550D01*
X116291395Y-116469551D01*
X116245476Y-116481051D01*
X116245463Y-116481055D01*
X116243984Y-116481425D01*
X116174750Y-116502427D01*
X116081624Y-116530675D01*
X116081609Y-116530680D01*
X116080132Y-116531128D01*
X116032672Y-116548111D01*
X116009852Y-116557564D01*
X116008488Y-116558209D01*
X116008477Y-116558214D01*
X115989493Y-116567193D01*
X115964309Y-116579104D01*
X115962948Y-116579831D01*
X115962935Y-116579838D01*
X115876274Y-116626160D01*
X115813307Y-116659816D01*
X115811976Y-116660614D01*
X115811965Y-116660620D01*
X115785247Y-116676635D01*
X115770079Y-116685726D01*
X115749552Y-116699442D01*
X115709082Y-116729457D01*
X115707899Y-116730428D01*
X115707886Y-116730438D01*
X115624336Y-116799006D01*
X115576719Y-116838084D01*
X115539380Y-116871927D01*
X115521927Y-116889380D01*
X115488084Y-116926719D01*
X115487120Y-116927894D01*
X115380438Y-117057886D01*
X115380428Y-117057899D01*
X115379457Y-117059082D01*
X115349442Y-117099552D01*
X115335724Y-117120082D01*
X115309814Y-117163311D01*
X115309089Y-117164667D01*
X115309079Y-117164685D01*
X115249285Y-117276554D01*
X115229104Y-117314310D01*
X115207567Y-117359844D01*
X115198114Y-117382663D01*
X115181128Y-117430132D01*
X115131425Y-117593985D01*
X115119179Y-117642877D01*
X115114362Y-117667097D01*
X115106971Y-117716931D01*
X115089580Y-117893505D01*
X115087726Y-117918629D01*
X115087119Y-117930979D01*
X115086500Y-117956187D01*
X115086500Y-122943813D01*
X115087119Y-122969021D01*
X115087726Y-122981371D01*
X115089580Y-123006495D01*
X115106971Y-123183069D01*
X115114362Y-123232903D01*
X115119179Y-123257123D01*
X115131425Y-123306016D01*
X115181128Y-123469868D01*
X115198111Y-123517328D01*
X115207564Y-123540148D01*
X115229104Y-123585690D01*
X115229840Y-123587066D01*
X115229840Y-123587067D01*
X115309079Y-123735315D01*
X115309089Y-123735333D01*
X115309814Y-123736689D01*
X115335724Y-123779918D01*
X115349442Y-123800448D01*
X115379457Y-123840918D01*
X115380428Y-123842101D01*
X115380438Y-123842114D01*
X115449006Y-123925664D01*
X115488084Y-123973281D01*
X115521927Y-124010620D01*
X115539380Y-124028073D01*
X115576719Y-124061916D01*
X115577894Y-124062880D01*
X115707886Y-124169562D01*
X115707899Y-124169572D01*
X115709082Y-124170543D01*
X115749552Y-124200558D01*
X115770079Y-124214274D01*
X115813305Y-124240182D01*
X115905519Y-124289472D01*
X115905526Y-124289476D01*
X115964314Y-124320898D01*
X116009844Y-124342433D01*
X116032663Y-124351886D01*
X116080132Y-124368872D01*
X116243985Y-124418575D01*
X116245465Y-124418946D01*
X116245477Y-124418949D01*
X116291395Y-124430449D01*
X116291402Y-124430450D01*
X116292885Y-124430822D01*
X116317102Y-124435638D01*
X116318616Y-124435862D01*
X116318630Y-124435865D01*
X116339042Y-124438892D01*
X116366926Y-124443028D01*
X116368487Y-124443182D01*
X116368489Y-124443182D01*
X116542710Y-124460342D01*
X116542718Y-124460343D01*
X116543503Y-124460420D01*
X116568629Y-124462274D01*
X116574910Y-124462583D01*
X116580237Y-124462845D01*
X116580274Y-124462846D01*
X116580979Y-124462881D01*
X116600218Y-124463353D01*
X116605452Y-124463482D01*
X116605456Y-124463482D01*
X116606187Y-124463500D01*
X130093813Y-124463500D01*
X130094544Y-124463482D01*
X130094548Y-124463482D01*
X130099782Y-124463353D01*
X130119021Y-124462881D01*
X130119726Y-124462846D01*
X130119763Y-124462845D01*
X130125090Y-124462583D01*
X130131371Y-124462274D01*
X130156497Y-124460420D01*
X130157282Y-124460343D01*
X130157290Y-124460342D01*
X130331511Y-124443182D01*
X130331513Y-124443182D01*
X130333074Y-124443028D01*
X130360958Y-124438892D01*
X130381370Y-124435865D01*
X130381384Y-124435862D01*
X130382898Y-124435638D01*
X130407115Y-124430822D01*
X130408598Y-124430450D01*
X130408605Y-124430449D01*
X130454523Y-124418949D01*
X130454535Y-124418946D01*
X130456015Y-124418575D01*
X130619868Y-124368872D01*
X130667337Y-124351886D01*
X130688727Y-124343025D01*
X130688754Y-124343014D01*
X130688761Y-124343011D01*
X130690156Y-124342433D01*
X130704036Y-124335868D01*
X130734282Y-124321563D01*
X130734301Y-124321553D01*
X130735691Y-124320896D01*
X130737052Y-124320169D01*
X130737065Y-124320162D01*
X130823726Y-124273840D01*
X130886693Y-124240184D01*
X130888024Y-124239386D01*
X130888035Y-124239380D01*
X130928616Y-124215056D01*
X130929921Y-124214274D01*
X130950448Y-124200558D01*
X130990918Y-124170543D01*
X130992101Y-124169572D01*
X130992114Y-124169562D01*
X131122106Y-124062880D01*
X131123281Y-124061916D01*
X131160620Y-124028073D01*
X131178073Y-124010620D01*
X131211916Y-123973281D01*
X131250994Y-123925664D01*
X131319562Y-123842114D01*
X131319572Y-123842101D01*
X131320543Y-123840918D01*
X131350558Y-123800448D01*
X131364276Y-123779918D01*
X131390186Y-123736689D01*
X131390911Y-123735333D01*
X131390921Y-123735315D01*
X131470160Y-123587067D01*
X131470160Y-123587066D01*
X131470896Y-123585690D01*
X131492436Y-123540148D01*
X131501889Y-123517328D01*
X131518872Y-123469868D01*
X131568575Y-123306016D01*
X131580821Y-123257123D01*
X131585638Y-123232903D01*
X131593029Y-123183069D01*
X131610420Y-123006495D01*
X131612274Y-122981371D01*
X131612881Y-122969021D01*
X131613500Y-122943813D01*
X131613500Y-110950000D01*
X132086693Y-110950000D01*
X132105885Y-111169371D01*
X132162880Y-111382076D01*
X132165205Y-111387061D01*
X132253618Y-111576666D01*
X132253621Y-111576671D01*
X132255944Y-111581653D01*
X132382251Y-111762038D01*
X132537962Y-111917749D01*
X132718346Y-112044056D01*
X132917924Y-112137120D01*
X133130629Y-112194115D01*
X133350000Y-112213307D01*
X133569371Y-112194115D01*
X133782076Y-112137120D01*
X133981654Y-112044056D01*
X134162038Y-111917749D01*
X134317749Y-111762038D01*
X134444056Y-111581653D01*
X134446379Y-111576671D01*
X134446382Y-111576666D01*
X134534795Y-111387061D01*
X134537120Y-111382076D01*
X134594115Y-111169371D01*
X134613307Y-110950000D01*
X134594115Y-110730629D01*
X134537120Y-110517924D01*
X134493585Y-110424562D01*
X134446382Y-110323334D01*
X134446379Y-110323329D01*
X134444056Y-110318347D01*
X134317749Y-110137962D01*
X134162038Y-109982251D01*
X133981654Y-109855944D01*
X133782076Y-109762880D01*
X133569371Y-109705885D01*
X133350000Y-109686693D01*
X133130629Y-109705885D01*
X132917924Y-109762880D01*
X132824562Y-109806415D01*
X132723334Y-109853618D01*
X132723329Y-109853621D01*
X132718347Y-109855944D01*
X132713840Y-109859100D01*
X132713838Y-109859101D01*
X132542473Y-109979092D01*
X132542470Y-109979094D01*
X132537962Y-109982251D01*
X132382251Y-110137962D01*
X132255944Y-110318347D01*
X132253621Y-110323329D01*
X132253618Y-110323334D01*
X132206415Y-110424562D01*
X132162880Y-110517924D01*
X132105885Y-110730629D01*
X132086693Y-110950000D01*
X131613500Y-110950000D01*
X131613500Y-102056187D01*
X131612881Y-102030979D01*
X131612274Y-102018629D01*
X131610420Y-101993505D01*
X131605853Y-101947131D01*
X131593181Y-101818470D01*
X131593179Y-101818453D01*
X131593029Y-101816931D01*
X131585638Y-101767097D01*
X131580821Y-101742877D01*
X131568575Y-101693985D01*
X131518872Y-101530132D01*
X131501886Y-101482663D01*
X131492433Y-101459844D01*
X131470896Y-101414310D01*
X131424962Y-101328373D01*
X131390921Y-101264685D01*
X131390911Y-101264667D01*
X131390186Y-101263311D01*
X131364276Y-101220082D01*
X131350558Y-101199552D01*
X131320543Y-101159082D01*
X131319572Y-101157899D01*
X131319562Y-101157886D01*
X131212880Y-101027894D01*
X131211916Y-101026719D01*
X131178073Y-100989380D01*
X131160620Y-100971927D01*
X131123281Y-100938084D01*
X131075664Y-100899006D01*
X130992114Y-100830438D01*
X130992101Y-100830428D01*
X130990918Y-100829457D01*
X130950448Y-100799442D01*
X130929921Y-100785726D01*
X130914753Y-100776635D01*
X130888035Y-100760620D01*
X130888024Y-100760614D01*
X130886693Y-100759816D01*
X130775947Y-100700621D01*
X130725300Y-100650870D01*
X130709590Y-100581634D01*
X130733806Y-100514895D01*
X130790259Y-100471842D01*
X130835344Y-100463500D01*
X141593813Y-100463500D01*
X141594544Y-100463482D01*
X141594548Y-100463482D01*
X141599782Y-100463353D01*
X141619021Y-100462881D01*
X141619726Y-100462846D01*
X141619763Y-100462845D01*
X141625090Y-100462583D01*
X141631371Y-100462274D01*
X141656497Y-100460420D01*
X141657282Y-100460343D01*
X141657290Y-100460342D01*
X141831511Y-100443182D01*
X141831513Y-100443182D01*
X141833074Y-100443028D01*
X141860958Y-100438892D01*
X141881370Y-100435865D01*
X141881384Y-100435862D01*
X141882898Y-100435638D01*
X141907115Y-100430822D01*
X141908598Y-100430450D01*
X141908605Y-100430449D01*
X141954523Y-100418949D01*
X141954535Y-100418946D01*
X141956015Y-100418575D01*
X142119868Y-100368872D01*
X142167337Y-100351886D01*
X142176195Y-100348217D01*
X142188754Y-100343014D01*
X142188761Y-100343011D01*
X142190156Y-100342433D01*
X142204036Y-100335868D01*
X142234282Y-100321563D01*
X142234301Y-100321553D01*
X142235691Y-100320896D01*
X142237052Y-100320169D01*
X142237065Y-100320162D01*
X142323726Y-100273840D01*
X142386693Y-100240184D01*
X142388024Y-100239386D01*
X142388035Y-100239380D01*
X142428616Y-100215056D01*
X142429921Y-100214274D01*
X142450448Y-100200558D01*
X142490918Y-100170543D01*
X142492101Y-100169572D01*
X142492114Y-100169562D01*
X142622106Y-100062880D01*
X142623281Y-100061916D01*
X142660620Y-100028073D01*
X142678073Y-100010620D01*
X142711916Y-99973281D01*
X142765080Y-99908500D01*
X142819562Y-99842114D01*
X142819572Y-99842101D01*
X142820543Y-99840918D01*
X142850558Y-99800448D01*
X142864276Y-99779918D01*
X142890186Y-99736689D01*
X142890911Y-99735333D01*
X142890921Y-99735315D01*
X142970160Y-99587067D01*
X142970160Y-99587066D01*
X142970896Y-99585690D01*
X142992436Y-99540148D01*
X143001889Y-99517328D01*
X143018872Y-99469868D01*
X143068575Y-99306016D01*
X143080821Y-99257123D01*
X143085638Y-99232903D01*
X143093029Y-99183069D01*
X143110420Y-99006495D01*
X143112274Y-98981371D01*
X143112881Y-98969021D01*
X143113500Y-98943813D01*
X143113500Y-76328656D01*
X143133502Y-76260535D01*
X143187158Y-76214042D01*
X143229285Y-76203071D01*
X143304200Y-76196978D01*
X143521794Y-76141110D01*
X143526889Y-76138777D01*
X143531939Y-76136989D01*
X143602830Y-76133104D01*
X143664567Y-76168161D01*
X143697549Y-76231032D01*
X143700000Y-76255761D01*
X143700000Y-146293813D01*
X143699393Y-146306163D01*
X143682002Y-146482737D01*
X143677185Y-146506957D01*
X143627482Y-146670809D01*
X143618029Y-146693629D01*
X143537319Y-146844628D01*
X143523601Y-146865158D01*
X143414974Y-146997521D01*
X143397521Y-147014974D01*
X143265158Y-147123601D01*
X143244631Y-147137317D01*
X143152417Y-147186607D01*
X143093629Y-147218029D01*
X143070810Y-147227482D01*
X142906957Y-147277185D01*
X142882740Y-147282001D01*
X142706163Y-147299393D01*
X142693813Y-147300000D01*
X101506187Y-147300000D01*
X101493837Y-147299393D01*
X101317260Y-147282001D01*
X101293043Y-147277185D01*
X101129190Y-147227482D01*
X101106371Y-147218029D01*
X101047583Y-147186607D01*
X100955369Y-147137317D01*
X100934842Y-147123601D01*
X100802479Y-147014974D01*
X100785026Y-146997521D01*
X100676399Y-146865158D01*
X100662681Y-146844628D01*
X100581971Y-146693629D01*
X100572518Y-146670809D01*
X100522815Y-146506957D01*
X100517998Y-146482737D01*
X100500607Y-146306163D01*
X100500000Y-146293813D01*
X100500000Y-140420000D01*
X110536547Y-140420000D01*
X110556339Y-140721966D01*
X110615376Y-141018766D01*
X110712648Y-141305320D01*
X110846491Y-141576726D01*
X111014614Y-141828341D01*
X111017328Y-141831435D01*
X111017332Y-141831441D01*
X111211433Y-142052769D01*
X111214142Y-142055858D01*
X111217231Y-142058567D01*
X111438559Y-142252668D01*
X111438565Y-142252672D01*
X111441659Y-142255386D01*
X111445085Y-142257675D01*
X111445090Y-142257679D01*
X111633371Y-142383484D01*
X111693273Y-142423509D01*
X111696972Y-142425333D01*
X111696977Y-142425336D01*
X111836308Y-142494046D01*
X111964680Y-142557352D01*
X111968585Y-142558677D01*
X111968586Y-142558678D01*
X112247327Y-142653298D01*
X112247330Y-142653299D01*
X112251234Y-142654624D01*
X112255273Y-142655427D01*
X112255279Y-142655429D01*
X112543991Y-142712857D01*
X112543994Y-142712857D01*
X112548034Y-142713661D01*
X112552145Y-142713930D01*
X112552149Y-142713931D01*
X112845881Y-142733183D01*
X112850000Y-142733453D01*
X112854119Y-142733183D01*
X113147851Y-142713931D01*
X113147855Y-142713930D01*
X113151966Y-142713661D01*
X113156006Y-142712857D01*
X113156009Y-142712857D01*
X113444721Y-142655429D01*
X113444727Y-142655427D01*
X113448766Y-142654624D01*
X113452670Y-142653299D01*
X113452673Y-142653298D01*
X113731414Y-142558678D01*
X113731415Y-142558677D01*
X113735320Y-142557352D01*
X113863692Y-142494046D01*
X114003023Y-142425336D01*
X114003028Y-142425333D01*
X114006727Y-142423509D01*
X114066629Y-142383484D01*
X114254910Y-142257679D01*
X114254915Y-142257675D01*
X114258341Y-142255386D01*
X114261435Y-142252672D01*
X114261441Y-142252668D01*
X114482769Y-142058567D01*
X114485858Y-142055858D01*
X114488567Y-142052769D01*
X114682668Y-141831441D01*
X114682672Y-141831435D01*
X114685386Y-141828341D01*
X114853509Y-141576726D01*
X114987352Y-141305320D01*
X115084624Y-141018766D01*
X115143661Y-140721966D01*
X115163453Y-140420000D01*
X131036547Y-140420000D01*
X131056339Y-140721966D01*
X131115376Y-141018766D01*
X131212648Y-141305320D01*
X131346491Y-141576726D01*
X131514614Y-141828341D01*
X131517328Y-141831435D01*
X131517332Y-141831441D01*
X131711433Y-142052769D01*
X131714142Y-142055858D01*
X131717231Y-142058567D01*
X131938559Y-142252668D01*
X131938565Y-142252672D01*
X131941659Y-142255386D01*
X131945085Y-142257675D01*
X131945090Y-142257679D01*
X132133371Y-142383484D01*
X132193273Y-142423509D01*
X132196972Y-142425333D01*
X132196977Y-142425336D01*
X132336308Y-142494046D01*
X132464680Y-142557352D01*
X132468585Y-142558677D01*
X132468586Y-142558678D01*
X132747327Y-142653298D01*
X132747330Y-142653299D01*
X132751234Y-142654624D01*
X132755273Y-142655427D01*
X132755279Y-142655429D01*
X133043991Y-142712857D01*
X133043994Y-142712857D01*
X133048034Y-142713661D01*
X133052145Y-142713930D01*
X133052149Y-142713931D01*
X133345881Y-142733183D01*
X133350000Y-142733453D01*
X133354119Y-142733183D01*
X133647851Y-142713931D01*
X133647855Y-142713930D01*
X133651966Y-142713661D01*
X133656006Y-142712857D01*
X133656009Y-142712857D01*
X133944721Y-142655429D01*
X133944727Y-142655427D01*
X133948766Y-142654624D01*
X133952670Y-142653299D01*
X133952673Y-142653298D01*
X134231414Y-142558678D01*
X134231415Y-142558677D01*
X134235320Y-142557352D01*
X134363692Y-142494046D01*
X134503023Y-142425336D01*
X134503028Y-142425333D01*
X134506727Y-142423509D01*
X134566629Y-142383484D01*
X134754910Y-142257679D01*
X134754915Y-142257675D01*
X134758341Y-142255386D01*
X134761435Y-142252672D01*
X134761441Y-142252668D01*
X134982769Y-142058567D01*
X134985858Y-142055858D01*
X134988567Y-142052769D01*
X135182668Y-141831441D01*
X135182672Y-141831435D01*
X135185386Y-141828341D01*
X135353509Y-141576726D01*
X135487352Y-141305320D01*
X135584624Y-141018766D01*
X135643661Y-140721966D01*
X135663453Y-140420000D01*
X135643661Y-140118034D01*
X135584624Y-139821234D01*
X135487352Y-139534680D01*
X135353509Y-139263274D01*
X135185386Y-139011659D01*
X135182672Y-139008565D01*
X135182668Y-139008559D01*
X134988567Y-138787231D01*
X134985858Y-138784142D01*
X134982769Y-138781433D01*
X134761441Y-138587332D01*
X134761435Y-138587328D01*
X134758341Y-138584614D01*
X134754911Y-138582322D01*
X134754910Y-138582321D01*
X134510160Y-138418785D01*
X134506727Y-138416491D01*
X134503028Y-138414667D01*
X134503023Y-138414664D01*
X134363692Y-138345954D01*
X134235320Y-138282648D01*
X134231414Y-138281322D01*
X133952673Y-138186702D01*
X133952670Y-138186701D01*
X133948766Y-138185376D01*
X133944727Y-138184573D01*
X133944721Y-138184571D01*
X133656009Y-138127143D01*
X133656006Y-138127143D01*
X133651966Y-138126339D01*
X133647855Y-138126070D01*
X133647851Y-138126069D01*
X133354119Y-138106817D01*
X133350000Y-138106547D01*
X133345881Y-138106817D01*
X133052149Y-138126069D01*
X133052145Y-138126070D01*
X133048034Y-138126339D01*
X133043994Y-138127143D01*
X133043991Y-138127143D01*
X132755279Y-138184571D01*
X132755273Y-138184573D01*
X132751234Y-138185376D01*
X132747330Y-138186701D01*
X132747327Y-138186702D01*
X132468586Y-138281322D01*
X132464680Y-138282648D01*
X132336442Y-138345888D01*
X132196978Y-138414664D01*
X132196973Y-138414667D01*
X132193274Y-138416491D01*
X131941659Y-138584614D01*
X131938565Y-138587328D01*
X131938559Y-138587332D01*
X131717231Y-138781433D01*
X131714142Y-138784142D01*
X131711433Y-138787231D01*
X131517332Y-139008559D01*
X131517328Y-139008565D01*
X131514614Y-139011659D01*
X131346491Y-139263274D01*
X131212648Y-139534680D01*
X131115376Y-139821234D01*
X131056339Y-140118034D01*
X131036547Y-140420000D01*
X115163453Y-140420000D01*
X115143661Y-140118034D01*
X115084624Y-139821234D01*
X114987352Y-139534680D01*
X114853509Y-139263274D01*
X114685386Y-139011659D01*
X114682672Y-139008565D01*
X114682668Y-139008559D01*
X114488567Y-138787231D01*
X114485858Y-138784142D01*
X114482769Y-138781433D01*
X114261441Y-138587332D01*
X114261435Y-138587328D01*
X114258341Y-138584614D01*
X114254911Y-138582322D01*
X114254910Y-138582321D01*
X114010160Y-138418785D01*
X114006727Y-138416491D01*
X114003028Y-138414667D01*
X114003023Y-138414664D01*
X113863692Y-138345954D01*
X113735320Y-138282648D01*
X113731414Y-138281322D01*
X113452673Y-138186702D01*
X113452670Y-138186701D01*
X113448766Y-138185376D01*
X113444727Y-138184573D01*
X113444721Y-138184571D01*
X113156009Y-138127143D01*
X113156006Y-138127143D01*
X113151966Y-138126339D01*
X113147855Y-138126070D01*
X113147851Y-138126069D01*
X112854119Y-138106817D01*
X112850000Y-138106547D01*
X112845881Y-138106817D01*
X112552149Y-138126069D01*
X112552145Y-138126070D01*
X112548034Y-138126339D01*
X112543994Y-138127143D01*
X112543991Y-138127143D01*
X112255279Y-138184571D01*
X112255273Y-138184573D01*
X112251234Y-138185376D01*
X112247330Y-138186701D01*
X112247327Y-138186702D01*
X111968586Y-138281322D01*
X111964680Y-138282648D01*
X111836442Y-138345888D01*
X111696978Y-138414664D01*
X111696973Y-138414667D01*
X111693274Y-138416491D01*
X111441659Y-138584614D01*
X111438565Y-138587328D01*
X111438559Y-138587332D01*
X111217231Y-138781433D01*
X111214142Y-138784142D01*
X111211433Y-138787231D01*
X111017332Y-139008559D01*
X111017328Y-139008565D01*
X111014614Y-139011659D01*
X110846491Y-139263274D01*
X110712648Y-139534680D01*
X110615376Y-139821234D01*
X110556339Y-140118034D01*
X110536547Y-140420000D01*
X100500000Y-140420000D01*
X100500000Y-102580469D01*
X108977095Y-102580469D01*
X108977392Y-102585622D01*
X108977392Y-102585625D01*
X108983067Y-102684041D01*
X108990427Y-102811697D01*
X108991564Y-102816743D01*
X108991565Y-102816749D01*
X109020035Y-102943079D01*
X109041346Y-103037642D01*
X109043288Y-103042424D01*
X109043289Y-103042428D01*
X109126540Y-103247450D01*
X109128484Y-103252237D01*
X109249501Y-103449719D01*
X109401147Y-103624784D01*
X109579349Y-103772730D01*
X109779322Y-103889584D01*
X109995694Y-103972209D01*
X110000760Y-103973240D01*
X110000761Y-103973240D01*
X110053846Y-103984040D01*
X110222656Y-104018385D01*
X110353324Y-104023176D01*
X110448949Y-104026683D01*
X110448953Y-104026683D01*
X110454113Y-104026872D01*
X110459233Y-104026216D01*
X110459235Y-104026216D01*
X110532270Y-104016860D01*
X110683847Y-103997442D01*
X110688795Y-103995957D01*
X110688802Y-103995956D01*
X110900747Y-103932369D01*
X110905690Y-103930886D01*
X110986236Y-103891427D01*
X111109049Y-103831262D01*
X111109052Y-103831260D01*
X111113684Y-103828991D01*
X111302243Y-103694494D01*
X111466303Y-103531005D01*
X111475119Y-103518737D01*
X111510234Y-103469868D01*
X111601458Y-103342917D01*
X111620427Y-103304537D01*
X111701784Y-103139922D01*
X111701785Y-103139920D01*
X111704078Y-103135280D01*
X111771408Y-102913671D01*
X111801640Y-102684041D01*
X111803327Y-102615000D01*
X111797032Y-102538434D01*
X111784773Y-102389318D01*
X111784772Y-102389312D01*
X111784349Y-102384167D01*
X111727925Y-102159533D01*
X111725866Y-102154797D01*
X111637630Y-101951868D01*
X111637628Y-101951865D01*
X111635570Y-101947131D01*
X111509764Y-101752665D01*
X111499486Y-101741369D01*
X111455028Y-101692511D01*
X111353887Y-101581358D01*
X111349836Y-101578159D01*
X111349832Y-101578155D01*
X111176177Y-101441011D01*
X111176172Y-101441008D01*
X111172123Y-101437810D01*
X111167607Y-101435317D01*
X111167604Y-101435315D01*
X110973879Y-101328373D01*
X110973875Y-101328371D01*
X110969355Y-101325876D01*
X110964486Y-101324152D01*
X110964482Y-101324150D01*
X110755903Y-101250288D01*
X110755899Y-101250287D01*
X110751028Y-101248562D01*
X110745935Y-101247655D01*
X110745932Y-101247654D01*
X110528095Y-101208851D01*
X110528089Y-101208850D01*
X110523006Y-101207945D01*
X110450096Y-101207054D01*
X110296581Y-101205179D01*
X110296579Y-101205179D01*
X110291411Y-101205116D01*
X110062464Y-101240150D01*
X109842314Y-101312106D01*
X109837726Y-101314494D01*
X109837722Y-101314496D01*
X109811065Y-101328373D01*
X109636872Y-101419052D01*
X109632739Y-101422155D01*
X109632736Y-101422157D01*
X109488927Y-101530132D01*
X109451655Y-101558117D01*
X109448083Y-101561855D01*
X109321817Y-101693985D01*
X109291639Y-101725564D01*
X109288725Y-101729836D01*
X109288724Y-101729837D01*
X109273152Y-101752665D01*
X109161119Y-101916899D01*
X109063602Y-102126981D01*
X109001707Y-102350169D01*
X108977095Y-102580469D01*
X100500000Y-102580469D01*
X100500000Y-94600000D01*
X104876693Y-94600000D01*
X104895885Y-94819371D01*
X104952880Y-95032076D01*
X104964725Y-95057478D01*
X105043618Y-95226666D01*
X105043621Y-95226671D01*
X105045944Y-95231653D01*
X105049100Y-95236160D01*
X105049101Y-95236162D01*
X105119756Y-95337067D01*
X105172251Y-95412038D01*
X105327962Y-95567749D01*
X105332471Y-95570906D01*
X105332473Y-95570908D01*
X105407241Y-95623261D01*
X105508346Y-95694056D01*
X105707924Y-95787120D01*
X105920629Y-95844115D01*
X106140000Y-95863307D01*
X106359371Y-95844115D01*
X106572076Y-95787120D01*
X106771654Y-95694056D01*
X106872759Y-95623261D01*
X106947527Y-95570908D01*
X106947529Y-95570906D01*
X106952038Y-95567749D01*
X107107749Y-95412038D01*
X107160245Y-95337067D01*
X107230899Y-95236162D01*
X107230900Y-95236160D01*
X107234056Y-95231653D01*
X107236379Y-95226671D01*
X107236382Y-95226666D01*
X107315275Y-95057478D01*
X107327120Y-95032076D01*
X107384115Y-94819371D01*
X107403307Y-94600000D01*
X107384115Y-94380629D01*
X107327120Y-94167924D01*
X107283585Y-94074562D01*
X107236382Y-93973334D01*
X107236379Y-93973329D01*
X107234056Y-93968347D01*
X107107749Y-93787962D01*
X106952038Y-93632251D01*
X106771654Y-93505944D01*
X106572076Y-93412880D01*
X106359371Y-93355885D01*
X106140000Y-93336693D01*
X105920629Y-93355885D01*
X105707924Y-93412880D01*
X105614562Y-93456415D01*
X105513334Y-93503618D01*
X105513329Y-93503621D01*
X105508347Y-93505944D01*
X105503840Y-93509100D01*
X105503838Y-93509101D01*
X105332473Y-93629092D01*
X105332470Y-93629094D01*
X105327962Y-93632251D01*
X105172251Y-93787962D01*
X105045944Y-93968347D01*
X105043621Y-93973329D01*
X105043618Y-93973334D01*
X104996415Y-94074562D01*
X104952880Y-94167924D01*
X104895885Y-94380629D01*
X104876693Y-94600000D01*
X100500000Y-94600000D01*
X100500000Y-87050469D01*
X112477095Y-87050469D01*
X112477392Y-87055622D01*
X112477392Y-87055625D01*
X112483067Y-87154041D01*
X112490427Y-87281697D01*
X112491564Y-87286743D01*
X112491565Y-87286749D01*
X112523741Y-87429523D01*
X112541346Y-87507642D01*
X112543288Y-87512424D01*
X112543289Y-87512428D01*
X112626540Y-87717450D01*
X112628484Y-87722237D01*
X112749501Y-87919719D01*
X112752882Y-87923622D01*
X112861304Y-88048788D01*
X112890786Y-88113373D01*
X112880671Y-88183646D01*
X112834170Y-88237294D01*
X112810296Y-88249267D01*
X112754515Y-88270179D01*
X112743295Y-88274385D01*
X112626739Y-88361739D01*
X112539385Y-88478295D01*
X112488255Y-88614684D01*
X112481500Y-88676866D01*
X112481500Y-90573134D01*
X112488255Y-90635316D01*
X112539385Y-90771705D01*
X112626739Y-90888261D01*
X112743295Y-90975615D01*
X112879684Y-91026745D01*
X112941866Y-91033500D01*
X114838134Y-91033500D01*
X114900316Y-91026745D01*
X115036705Y-90975615D01*
X115153261Y-90888261D01*
X115240615Y-90771705D01*
X115291745Y-90635316D01*
X115298500Y-90573134D01*
X115298500Y-88676866D01*
X115291745Y-88614684D01*
X115240615Y-88478295D01*
X115153261Y-88361739D01*
X115036705Y-88274385D01*
X115028296Y-88271233D01*
X115028295Y-88271232D01*
X114969804Y-88249305D01*
X114913039Y-88206664D01*
X114888339Y-88140103D01*
X114903546Y-88070754D01*
X114925093Y-88042073D01*
X114962636Y-88004660D01*
X114962640Y-88004655D01*
X114966303Y-88001005D01*
X115101458Y-87812917D01*
X115148641Y-87717450D01*
X115201784Y-87609922D01*
X115201785Y-87609920D01*
X115204078Y-87605280D01*
X115271408Y-87383671D01*
X115301640Y-87154041D01*
X115303327Y-87085000D01*
X115297032Y-87008434D01*
X115284773Y-86859318D01*
X115284772Y-86859312D01*
X115284349Y-86854167D01*
X115227925Y-86629533D01*
X115225866Y-86624797D01*
X115137630Y-86421868D01*
X115137628Y-86421865D01*
X115135570Y-86417131D01*
X115009764Y-86222665D01*
X114853887Y-86051358D01*
X114849836Y-86048159D01*
X114849832Y-86048155D01*
X114676177Y-85911011D01*
X114676172Y-85911008D01*
X114672123Y-85907810D01*
X114667607Y-85905317D01*
X114667604Y-85905315D01*
X114473879Y-85798373D01*
X114473875Y-85798371D01*
X114469355Y-85795876D01*
X114464486Y-85794152D01*
X114464482Y-85794150D01*
X114255903Y-85720288D01*
X114255899Y-85720287D01*
X114251028Y-85718562D01*
X114245935Y-85717655D01*
X114245932Y-85717654D01*
X114028095Y-85678851D01*
X114028089Y-85678850D01*
X114023006Y-85677945D01*
X113950096Y-85677054D01*
X113796581Y-85675179D01*
X113796579Y-85675179D01*
X113791411Y-85675116D01*
X113562464Y-85710150D01*
X113342314Y-85782106D01*
X113337726Y-85784494D01*
X113337722Y-85784496D01*
X113311065Y-85798373D01*
X113136872Y-85889052D01*
X113132739Y-85892155D01*
X113132736Y-85892157D01*
X113107625Y-85911011D01*
X112951655Y-86028117D01*
X112791639Y-86195564D01*
X112788725Y-86199836D01*
X112788724Y-86199837D01*
X112773152Y-86222665D01*
X112661119Y-86386899D01*
X112563602Y-86596981D01*
X112501707Y-86820169D01*
X112477095Y-87050469D01*
X100500000Y-87050469D01*
X100500000Y-61906187D01*
X100500607Y-61893837D01*
X100517998Y-61717263D01*
X100522815Y-61693043D01*
X100572518Y-61529190D01*
X100581971Y-61506371D01*
X100662681Y-61355372D01*
X100676399Y-61334842D01*
X100785026Y-61202479D01*
X100802479Y-61185026D01*
X100934842Y-61076399D01*
X100955369Y-61062683D01*
X101106371Y-60981971D01*
X101129191Y-60972518D01*
X101293043Y-60922815D01*
X101317260Y-60917999D01*
X101493837Y-60900607D01*
X101506187Y-60900000D01*
X128279369Y-60900000D01*
X128347490Y-60920002D01*
G37*
%TD.AperFunction*%
%TD*%
%TA.AperFunction,Conductor*%
%TO.N,/OUTPUT*%
G36*
X123350000Y-101050000D02*
G01*
X130093813Y-101050000D01*
X130106163Y-101050607D01*
X130282740Y-101067999D01*
X130306957Y-101072815D01*
X130470809Y-101122518D01*
X130493629Y-101131971D01*
X130644631Y-101212683D01*
X130665158Y-101226399D01*
X130797521Y-101335026D01*
X130814974Y-101352479D01*
X130923601Y-101484842D01*
X130937319Y-101505372D01*
X131018029Y-101656371D01*
X131027482Y-101679190D01*
X131077185Y-101843043D01*
X131082002Y-101867263D01*
X131099393Y-102043837D01*
X131100000Y-102056187D01*
X131100000Y-103950000D01*
X121856187Y-103950000D01*
X121843837Y-103949393D01*
X121667260Y-103932001D01*
X121643043Y-103927185D01*
X121479190Y-103877482D01*
X121456371Y-103868029D01*
X121397583Y-103836607D01*
X121305369Y-103787317D01*
X121284842Y-103773601D01*
X121152479Y-103664974D01*
X121135026Y-103647521D01*
X121026399Y-103515158D01*
X121012681Y-103494628D01*
X120931971Y-103343629D01*
X120922518Y-103320809D01*
X120872815Y-103156957D01*
X120867998Y-103132737D01*
X120850607Y-102956163D01*
X120850000Y-102943813D01*
X120850000Y-95200000D01*
X123350000Y-95200000D01*
X123350000Y-101050000D01*
G37*
%TD.AperFunction*%
%TD*%
M02*
