M48
; DRILL file {KiCad (5.1.10)-1} date 08/28/21 09:33:51
; FORMAT={-:-/ absolute / inch / decimal}
; #@! TF.CreationDate,2021-08-28T09:33:51-05:00
; #@! TF.GenerationSoftware,Kicad,Pcbnew,(5.1.10)-1
; #@! TF.FileFunction,Plated,1,2,PTH
FMAT,2
INCH
T1C0.0472
T2C0.0550
%
G90
G05
T1
X2.25Y-3.35
X2.25Y-3.85
X3.1Y-3.35
X3.1Y-3.85
X4.1Y-3.35
X4.1Y-3.85
X4.95Y-3.35
X4.95Y-3.85
X5.95Y-3.35
X5.95Y-3.85
X6.8Y-3.35
X6.8Y-3.85
X7.8Y-3.35
X7.8Y-3.85
X8.65Y-3.35
X8.65Y-3.85
T2
X2.235Y-4.45
X2.25Y-2.09
X2.25Y-2.31
X2.25Y-2.55
X2.25Y-3.05
X2.4Y-4.45
X2.55Y-2.09
X2.55Y-2.31
X2.55Y-2.55
X2.55Y-3.15
X2.55Y-3.49
X2.55Y-3.71
X2.565Y-4.45
X3.085Y-4.45
X3.1Y-2.09
X3.1Y-2.31
X3.1Y-2.55
X3.1Y-3.05
X3.25Y-4.45
X3.4Y-2.09
X3.4Y-2.31
X3.4Y-2.55
X3.4Y-3.15
X3.4Y-3.49
X3.4Y-3.71
X3.415Y-4.45
X4.085Y-4.45
X4.1Y-2.09
X4.1Y-2.31
X4.1Y-2.55
X4.1Y-3.05
X4.25Y-4.45
X4.4Y-2.09
X4.4Y-2.31
X4.4Y-2.55
X4.4Y-3.15
X4.4Y-3.49
X4.4Y-3.71
X4.415Y-4.45
X4.935Y-4.45
X4.95Y-2.09
X4.95Y-2.31
X4.95Y-2.55
X4.95Y-3.05
X5.1Y-4.45
X5.25Y-2.09
X5.25Y-2.31
X5.25Y-2.55
X5.25Y-3.15
X5.25Y-3.49
X5.25Y-3.71
X5.265Y-4.45
X5.935Y-4.45
X5.95Y-2.09
X5.95Y-2.31
X5.95Y-2.55
X5.95Y-3.05
X6.1Y-4.45
X6.25Y-2.09
X6.25Y-2.31
X6.25Y-2.55
X6.25Y-3.15
X6.25Y-3.49
X6.25Y-3.71
X6.265Y-4.45
X6.785Y-4.45
X6.8Y-2.09
X6.8Y-2.31
X6.8Y-2.55
X6.8Y-3.05
X6.95Y-4.45
X7.1Y-2.09
X7.1Y-2.31
X7.1Y-2.55
X7.1Y-3.15
X7.1Y-3.49
X7.1Y-3.71
X7.115Y-4.45
X7.785Y-4.45
X7.8Y-2.09
X7.8Y-2.31
X7.8Y-2.55
X7.8Y-3.05
X7.95Y-4.45
X8.1Y-2.09
X8.1Y-2.31
X8.1Y-2.55
X8.1Y-3.15
X8.1Y-3.49
X8.1Y-3.71
X8.115Y-4.45
X8.635Y-4.45
X8.65Y-2.09
X8.65Y-2.31
X8.65Y-2.55
X8.65Y-3.05
X8.8Y-4.45
X8.95Y-2.09
X8.95Y-2.31
X8.95Y-2.55
X8.95Y-3.15
X8.95Y-3.49
X8.95Y-3.71
X8.965Y-4.45
T0
M30
