M48
; DRILL file {KiCad (5.1.10)-1} date 01/22/22 17:59:17
; FORMAT={-:-/ absolute / inch / decimal}
; #@! TF.CreationDate,2022-01-22T17:59:17-06:00
; #@! TF.GenerationSoftware,Kicad,Pcbnew,(5.1.10)-1
FMAT,2
INCH
T1C0.0430
T2C0.0550
T3C0.1200
%
G90
G05
T1
X3.099Y-1.756
X3.1535Y-1.644
X3.208Y-1.756
X3.2625Y-1.644
X3.317Y-1.756
X3.3715Y-1.644
X3.426Y-1.756
X3.4805Y-1.644
X3.535Y-1.756
X3.5895Y-1.644
X3.644Y-1.756
X3.6985Y-1.644
X3.753Y-1.756
X3.8075Y-1.644
X3.862Y-1.756
X3.9165Y-1.644
X3.971Y-1.756
X4.0255Y-1.644
X4.08Y-1.756
X4.1345Y-1.644
X4.189Y-1.756
X4.2435Y-1.644
X4.298Y-1.756
X4.3525Y-1.644
X4.407Y-1.756
X4.4615Y-1.644
X4.516Y-1.756
X4.5705Y-1.644
X4.625Y-1.756
X4.6795Y-1.644
X4.734Y-1.756
X4.7885Y-1.644
X4.843Y-1.756
X4.8975Y-1.644
X4.952Y-1.756
X5.0065Y-1.644
X5.061Y-1.756
T2
X1.7665Y-2.2596
X1.7665Y-2.425
X1.7665Y-2.5904
X1.7665Y-2.9346
X1.7665Y-3.1
X1.7665Y-3.2654
X1.9835Y-2.2596
X1.9835Y-2.425
X1.9835Y-2.5904
X1.9835Y-2.9346
X1.9835Y-3.1
X1.9835Y-3.2654
X2.04Y-3.575
X2.26Y-3.575
X2.3165Y-2.2596
X2.3165Y-2.425
X2.3165Y-2.5904
X2.3165Y-2.9346
X2.3165Y-3.1
X2.3165Y-3.2654
X2.5335Y-2.2596
X2.5335Y-2.425
X2.5335Y-2.5904
X2.5335Y-2.9346
X2.5335Y-3.1
X2.5335Y-3.2654
X3.0665Y-2.2596
X3.0665Y-2.425
X3.0665Y-2.5904
X3.0665Y-2.9346
X3.0665Y-3.1
X3.0665Y-3.2654
X3.2835Y-2.2596
X3.2835Y-2.425
X3.2835Y-2.5904
X3.2835Y-2.9346
X3.2835Y-3.1
X3.2835Y-3.2654
X3.34Y-3.575
X3.56Y-3.575
X3.6165Y-2.2596
X3.6165Y-2.425
X3.6165Y-2.5904
X3.6165Y-2.9346
X3.6165Y-3.1
X3.6165Y-3.2654
X3.8335Y-2.2596
X3.8335Y-2.425
X3.8335Y-2.5904
X3.8335Y-2.9346
X3.8335Y-3.1
X3.8335Y-3.2654
X4.3665Y-2.2596
X4.3665Y-2.425
X4.3665Y-2.5904
X4.3665Y-2.9346
X4.3665Y-3.1
X4.3665Y-3.2654
X4.5835Y-2.2596
X4.5835Y-2.425
X4.5835Y-2.5904
X4.5835Y-2.9346
X4.5835Y-3.1
X4.5835Y-3.2654
X4.64Y-3.575
X4.86Y-3.575
X4.9165Y-2.2596
X4.9165Y-2.425
X4.9165Y-2.5904
X4.9165Y-2.9346
X4.9165Y-3.1
X4.9165Y-3.2654
X5.1335Y-2.2596
X5.1335Y-2.425
X5.1335Y-2.5904
X5.1335Y-2.9346
X5.1335Y-3.1
X5.1335Y-3.2654
X5.6665Y-2.2596
X5.6665Y-2.425
X5.6665Y-2.5904
X5.6665Y-2.9346
X5.6665Y-3.1
X5.6665Y-3.2654
X5.8835Y-2.2596
X5.8835Y-2.425
X5.8835Y-2.5904
X5.8835Y-2.9346
X5.8835Y-3.1
X5.8835Y-3.2654
X5.94Y-3.575
X6.16Y-3.575
X6.2165Y-2.2596
X6.2165Y-2.425
X6.2165Y-2.5904
X6.2165Y-2.9346
X6.2165Y-3.1
X6.2165Y-3.2654
X6.4335Y-2.2596
X6.4335Y-2.425
X6.4335Y-2.5904
X6.4335Y-2.9346
X6.4335Y-3.1
X6.4335Y-3.2654
T3
X2.83Y-1.7
X5.33Y-1.7
T0
M30
