%TF.GenerationSoftware,KiCad,Pcbnew,(5.1.10)-1*%
%TF.CreationDate,2022-01-22T17:59:10-06:00*%
%TF.ProjectId,Voltage_Input_Module,566f6c74-6167-4655-9f49-6e7075745f4d,rev?*%
%TF.SameCoordinates,Original*%
%TF.FileFunction,Soldermask,Top*%
%TF.FilePolarity,Negative*%
%FSLAX46Y46*%
G04 Gerber Fmt 4.6, Leading zero omitted, Abs format (unit mm)*
G04 Created by KiCad (PCBNEW (5.1.10)-1) date 2022-01-22 17:59:10*
%MOMM*%
%LPD*%
G01*
G04 APERTURE LIST*
%ADD10C,2.794000*%
%ADD11C,2.184400*%
%ADD12C,3.048000*%
G04 APERTURE END LIST*
D10*
%TO.C,J1*%
X64350900Y-57393840D03*
X58839100Y-57393840D03*
X58839100Y-61595000D03*
X58839100Y-65796160D03*
X64350900Y-65796160D03*
X64350900Y-61595000D03*
%TD*%
%TO.C,J17*%
X163410900Y-57393840D03*
X157899100Y-57393840D03*
X157899100Y-61595000D03*
X157899100Y-65796160D03*
X163410900Y-65796160D03*
X163410900Y-61595000D03*
%TD*%
%TO.C,J6*%
X97370900Y-61595000D03*
X97370900Y-65796160D03*
X91859100Y-65796160D03*
X91859100Y-61595000D03*
X91859100Y-57393840D03*
X97370900Y-57393840D03*
%TD*%
%TO.C,J9*%
X77889100Y-82941160D03*
X83400900Y-82941160D03*
X83400900Y-78740000D03*
X83400900Y-74538840D03*
X77889100Y-74538840D03*
X77889100Y-78740000D03*
%TD*%
%TO.C,J4*%
X44869100Y-78740000D03*
X44869100Y-74538840D03*
X50380900Y-74538840D03*
X50380900Y-78740000D03*
X50380900Y-82941160D03*
X44869100Y-82941160D03*
%TD*%
%TO.C,J5*%
X64350900Y-78740000D03*
X64350900Y-82941160D03*
X58839100Y-82941160D03*
X58839100Y-78740000D03*
X58839100Y-74538840D03*
X64350900Y-74538840D03*
%TD*%
%TO.C,J2*%
X44869100Y-65796160D03*
X50380900Y-65796160D03*
X50380900Y-61595000D03*
X50380900Y-57393840D03*
X44869100Y-57393840D03*
X44869100Y-61595000D03*
%TD*%
%TO.C,J7*%
X77889100Y-61595000D03*
X77889100Y-57393840D03*
X83400900Y-57393840D03*
X83400900Y-61595000D03*
X83400900Y-65796160D03*
X77889100Y-65796160D03*
%TD*%
%TO.C,J10*%
X97370900Y-74538840D03*
X91859100Y-74538840D03*
X91859100Y-78740000D03*
X91859100Y-82941160D03*
X97370900Y-82941160D03*
X97370900Y-78740000D03*
%TD*%
%TO.C,J3*%
X57404000Y-90805000D03*
X51816000Y-90805000D03*
%TD*%
%TO.C,J8*%
X84836000Y-90805000D03*
X90424000Y-90805000D03*
%TD*%
D11*
%TO.C,J11*%
X103632000Y-44602400D03*
X106400600Y-44602400D03*
X109169200Y-44602400D03*
X111937800Y-44602400D03*
X114706400Y-44602400D03*
X117475000Y-44602400D03*
X120243600Y-44602400D03*
X123012200Y-44602400D03*
X125780800Y-44602400D03*
X128549400Y-44602400D03*
X95326200Y-44602400D03*
X92557600Y-44602400D03*
X100863400Y-44602400D03*
X98094800Y-44602400D03*
X87020400Y-44602400D03*
X84251800Y-44602400D03*
X78714600Y-44602400D03*
X81483200Y-44602400D03*
X89789000Y-44602400D03*
X127165100Y-41757600D03*
X124396500Y-41757600D03*
X110553500Y-41757600D03*
X116090700Y-41757600D03*
X107784900Y-41757600D03*
X118859300Y-41757600D03*
X121627900Y-41757600D03*
X105016300Y-41757600D03*
X113322100Y-41757600D03*
X93941900Y-41757600D03*
X85636100Y-41757600D03*
X96710500Y-41757600D03*
X80098900Y-41757600D03*
X82867500Y-41757600D03*
X91173300Y-41757600D03*
X99479100Y-41757600D03*
X88404700Y-41757600D03*
X102247700Y-41757600D03*
D12*
X135382000Y-43180000D03*
X71882000Y-43180000D03*
%TD*%
D10*
%TO.C,J12*%
X130390900Y-61595000D03*
X130390900Y-65796160D03*
X124879100Y-65796160D03*
X124879100Y-61595000D03*
X124879100Y-57393840D03*
X130390900Y-57393840D03*
%TD*%
%TO.C,J13*%
X110909100Y-61595000D03*
X110909100Y-57393840D03*
X116420900Y-57393840D03*
X116420900Y-61595000D03*
X116420900Y-65796160D03*
X110909100Y-65796160D03*
%TD*%
%TO.C,J14*%
X117856000Y-90805000D03*
X123444000Y-90805000D03*
%TD*%
%TO.C,J15*%
X110909100Y-82941160D03*
X116420900Y-82941160D03*
X116420900Y-78740000D03*
X116420900Y-74538840D03*
X110909100Y-74538840D03*
X110909100Y-78740000D03*
%TD*%
%TO.C,J16*%
X130390900Y-74538840D03*
X124879100Y-74538840D03*
X124879100Y-78740000D03*
X124879100Y-82941160D03*
X130390900Y-82941160D03*
X130390900Y-78740000D03*
%TD*%
%TO.C,J18*%
X143929100Y-65796160D03*
X149440900Y-65796160D03*
X149440900Y-61595000D03*
X149440900Y-57393840D03*
X143929100Y-57393840D03*
X143929100Y-61595000D03*
%TD*%
%TO.C,J19*%
X156464000Y-90805000D03*
X150876000Y-90805000D03*
%TD*%
%TO.C,J20*%
X143929100Y-78740000D03*
X143929100Y-74538840D03*
X149440900Y-74538840D03*
X149440900Y-78740000D03*
X149440900Y-82941160D03*
X143929100Y-82941160D03*
%TD*%
%TO.C,J21*%
X163410900Y-78740000D03*
X163410900Y-82941160D03*
X157899100Y-82941160D03*
X157899100Y-78740000D03*
X157899100Y-74538840D03*
X163410900Y-74538840D03*
%TD*%
M02*
