%TF.GenerationSoftware,KiCad,Pcbnew,(5.1.10)-1*%
%TF.CreationDate,2021-08-28T09:33:30-05:00*%
%TF.ProjectId,Relay-Module,52656c61-792d-44d6-9f64-756c652e6b69,rev?*%
%TF.SameCoordinates,Original*%
%TF.FileFunction,Legend,Top*%
%TF.FilePolarity,Positive*%
%FSLAX46Y46*%
G04 Gerber Fmt 4.6, Leading zero omitted, Abs format (unit mm)*
G04 Created by KiCad (PCBNEW (5.1.10)-1) date 2021-08-28 09:33:30*
%MOMM*%
%LPD*%
G01*
G04 APERTURE LIST*
%ADD10C,0.300000*%
%ADD11C,0.120000*%
%ADD12C,0.150000*%
G04 APERTURE END LIST*
D10*
X48304142Y-128938571D02*
X48304142Y-127438571D01*
X48804142Y-128510000D01*
X49304142Y-127438571D01*
X49304142Y-128938571D01*
X50018428Y-128938571D02*
X50018428Y-127938571D01*
X50018428Y-127438571D02*
X49947000Y-127510000D01*
X50018428Y-127581428D01*
X50089857Y-127510000D01*
X50018428Y-127438571D01*
X50018428Y-127581428D01*
X50661285Y-128867142D02*
X50804142Y-128938571D01*
X51089857Y-128938571D01*
X51232714Y-128867142D01*
X51304142Y-128724285D01*
X51304142Y-128652857D01*
X51232714Y-128510000D01*
X51089857Y-128438571D01*
X50875571Y-128438571D01*
X50732714Y-128367142D01*
X50661285Y-128224285D01*
X50661285Y-128152857D01*
X50732714Y-128010000D01*
X50875571Y-127938571D01*
X51089857Y-127938571D01*
X51232714Y-128010000D01*
X51875571Y-128867142D02*
X52018428Y-128938571D01*
X52304142Y-128938571D01*
X52447000Y-128867142D01*
X52518428Y-128724285D01*
X52518428Y-128652857D01*
X52447000Y-128510000D01*
X52304142Y-128438571D01*
X52089857Y-128438571D01*
X51947000Y-128367142D01*
X51875571Y-128224285D01*
X51875571Y-128152857D01*
X51947000Y-128010000D01*
X52089857Y-127938571D01*
X52304142Y-127938571D01*
X52447000Y-128010000D01*
X53375571Y-128938571D02*
X53232714Y-128867142D01*
X53161285Y-128795714D01*
X53089857Y-128652857D01*
X53089857Y-128224285D01*
X53161285Y-128081428D01*
X53232714Y-128010000D01*
X53375571Y-127938571D01*
X53589857Y-127938571D01*
X53732714Y-128010000D01*
X53804142Y-128081428D01*
X53875571Y-128224285D01*
X53875571Y-128652857D01*
X53804142Y-128795714D01*
X53732714Y-128867142D01*
X53589857Y-128938571D01*
X53375571Y-128938571D01*
X55161285Y-127938571D02*
X55161285Y-128938571D01*
X54518428Y-127938571D02*
X54518428Y-128724285D01*
X54589857Y-128867142D01*
X54732714Y-128938571D01*
X54947000Y-128938571D01*
X55089857Y-128867142D01*
X55161285Y-128795714D01*
X55875571Y-128938571D02*
X55875571Y-127938571D01*
X55875571Y-128224285D02*
X55947000Y-128081428D01*
X56018428Y-128010000D01*
X56161285Y-127938571D01*
X56304142Y-127938571D01*
X56804142Y-128938571D02*
X56804142Y-127938571D01*
X56804142Y-127438571D02*
X56732714Y-127510000D01*
X56804142Y-127581428D01*
X56875571Y-127510000D01*
X56804142Y-127438571D01*
X56804142Y-127581428D01*
X58589857Y-128867142D02*
X58804142Y-128938571D01*
X59161285Y-128938571D01*
X59304142Y-128867142D01*
X59375571Y-128795714D01*
X59447000Y-128652857D01*
X59447000Y-128510000D01*
X59375571Y-128367142D01*
X59304142Y-128295714D01*
X59161285Y-128224285D01*
X58875571Y-128152857D01*
X58732714Y-128081428D01*
X58661285Y-128010000D01*
X58589857Y-127867142D01*
X58589857Y-127724285D01*
X58661285Y-127581428D01*
X58732714Y-127510000D01*
X58875571Y-127438571D01*
X59232714Y-127438571D01*
X59447000Y-127510000D01*
X61304142Y-128938571D02*
X61232714Y-128938571D01*
X61089857Y-128867142D01*
X60875571Y-128652857D01*
X60518428Y-128224285D01*
X60375571Y-128010000D01*
X60304142Y-127795714D01*
X60304142Y-127652857D01*
X60375571Y-127510000D01*
X60518428Y-127438571D01*
X60589857Y-127438571D01*
X60732714Y-127510000D01*
X60804142Y-127652857D01*
X60804142Y-127724285D01*
X60732714Y-127867142D01*
X60661285Y-127938571D01*
X60232714Y-128224285D01*
X60161285Y-128295714D01*
X60089857Y-128438571D01*
X60089857Y-128652857D01*
X60161285Y-128795714D01*
X60232714Y-128867142D01*
X60375571Y-128938571D01*
X60589857Y-128938571D01*
X60732714Y-128867142D01*
X60804142Y-128795714D01*
X61018428Y-128510000D01*
X61089857Y-128295714D01*
X61089857Y-128152857D01*
X61732714Y-127438571D02*
X62589857Y-127438571D01*
X62161285Y-128938571D02*
X62161285Y-127438571D01*
X65089857Y-128938571D02*
X64589857Y-128224285D01*
X64232714Y-128938571D02*
X64232714Y-127438571D01*
X64804142Y-127438571D01*
X64947000Y-127510000D01*
X65018428Y-127581428D01*
X65089857Y-127724285D01*
X65089857Y-127938571D01*
X65018428Y-128081428D01*
X64947000Y-128152857D01*
X64804142Y-128224285D01*
X64232714Y-128224285D01*
X65947000Y-128938571D02*
X65804142Y-128867142D01*
X65732714Y-128795714D01*
X65661285Y-128652857D01*
X65661285Y-128224285D01*
X65732714Y-128081428D01*
X65804142Y-128010000D01*
X65947000Y-127938571D01*
X66161285Y-127938571D01*
X66304142Y-128010000D01*
X66375571Y-128081428D01*
X66447000Y-128224285D01*
X66447000Y-128652857D01*
X66375571Y-128795714D01*
X66304142Y-128867142D01*
X66161285Y-128938571D01*
X65947000Y-128938571D01*
X67732714Y-128867142D02*
X67589857Y-128938571D01*
X67304142Y-128938571D01*
X67161285Y-128867142D01*
X67089857Y-128795714D01*
X67018428Y-128652857D01*
X67018428Y-128224285D01*
X67089857Y-128081428D01*
X67161285Y-128010000D01*
X67304142Y-127938571D01*
X67589857Y-127938571D01*
X67732714Y-128010000D01*
X68375571Y-128938571D02*
X68375571Y-127438571D01*
X68518428Y-128367142D02*
X68947000Y-128938571D01*
X68947000Y-127938571D02*
X68375571Y-128510000D01*
X70161285Y-128867142D02*
X70018428Y-128938571D01*
X69732714Y-128938571D01*
X69589857Y-128867142D01*
X69518428Y-128724285D01*
X69518428Y-128152857D01*
X69589857Y-128010000D01*
X69732714Y-127938571D01*
X70018428Y-127938571D01*
X70161285Y-128010000D01*
X70232714Y-128152857D01*
X70232714Y-128295714D01*
X69518428Y-128438571D01*
X70661285Y-127938571D02*
X71232714Y-127938571D01*
X70875571Y-127438571D02*
X70875571Y-128724285D01*
X70947000Y-128867142D01*
X71089857Y-128938571D01*
X71232714Y-128938571D01*
X72875571Y-128938571D02*
X72875571Y-127438571D01*
X73232714Y-127438571D01*
X73447000Y-127510000D01*
X73589857Y-127652857D01*
X73661285Y-127795714D01*
X73732714Y-128081428D01*
X73732714Y-128295714D01*
X73661285Y-128581428D01*
X73589857Y-128724285D01*
X73447000Y-128867142D01*
X73232714Y-128938571D01*
X72875571Y-128938571D01*
X74947000Y-128867142D02*
X74804142Y-128938571D01*
X74518428Y-128938571D01*
X74375571Y-128867142D01*
X74304142Y-128724285D01*
X74304142Y-128152857D01*
X74375571Y-128010000D01*
X74518428Y-127938571D01*
X74804142Y-127938571D01*
X74947000Y-128010000D01*
X75018428Y-128152857D01*
X75018428Y-128295714D01*
X74304142Y-128438571D01*
X75589857Y-128867142D02*
X75732714Y-128938571D01*
X76018428Y-128938571D01*
X76161285Y-128867142D01*
X76232714Y-128724285D01*
X76232714Y-128652857D01*
X76161285Y-128510000D01*
X76018428Y-128438571D01*
X75804142Y-128438571D01*
X75661285Y-128367142D01*
X75589857Y-128224285D01*
X75589857Y-128152857D01*
X75661285Y-128010000D01*
X75804142Y-127938571D01*
X76018428Y-127938571D01*
X76161285Y-128010000D01*
X76875571Y-128938571D02*
X76875571Y-127938571D01*
X76875571Y-127438571D02*
X76804142Y-127510000D01*
X76875571Y-127581428D01*
X76947000Y-127510000D01*
X76875571Y-127438571D01*
X76875571Y-127581428D01*
X78232714Y-127938571D02*
X78232714Y-129152857D01*
X78161285Y-129295714D01*
X78089857Y-129367142D01*
X77947000Y-129438571D01*
X77732714Y-129438571D01*
X77589857Y-129367142D01*
X78232714Y-128867142D02*
X78089857Y-128938571D01*
X77804142Y-128938571D01*
X77661285Y-128867142D01*
X77589857Y-128795714D01*
X77518428Y-128652857D01*
X77518428Y-128224285D01*
X77589857Y-128081428D01*
X77661285Y-128010000D01*
X77804142Y-127938571D01*
X78089857Y-127938571D01*
X78232714Y-128010000D01*
X78947000Y-127938571D02*
X78947000Y-128938571D01*
X78947000Y-128081428D02*
X79018428Y-128010000D01*
X79161285Y-127938571D01*
X79375571Y-127938571D01*
X79518428Y-128010000D01*
X79589857Y-128152857D01*
X79589857Y-128938571D01*
X81232714Y-127438571D02*
X82089857Y-127438571D01*
X81661285Y-128938571D02*
X81661285Y-127438571D01*
X83161285Y-128867142D02*
X83018428Y-128938571D01*
X82732714Y-128938571D01*
X82589857Y-128867142D01*
X82518428Y-128724285D01*
X82518428Y-128152857D01*
X82589857Y-128010000D01*
X82732714Y-127938571D01*
X83018428Y-127938571D01*
X83161285Y-128010000D01*
X83232714Y-128152857D01*
X83232714Y-128295714D01*
X82518428Y-128438571D01*
X84518428Y-128938571D02*
X84518428Y-128152857D01*
X84447000Y-128010000D01*
X84304142Y-127938571D01*
X84018428Y-127938571D01*
X83875571Y-128010000D01*
X84518428Y-128867142D02*
X84375571Y-128938571D01*
X84018428Y-128938571D01*
X83875571Y-128867142D01*
X83804142Y-128724285D01*
X83804142Y-128581428D01*
X83875571Y-128438571D01*
X84018428Y-128367142D01*
X84375571Y-128367142D01*
X84518428Y-128295714D01*
X85232714Y-128938571D02*
X85232714Y-127938571D01*
X85232714Y-128081428D02*
X85304142Y-128010000D01*
X85447000Y-127938571D01*
X85661285Y-127938571D01*
X85804142Y-128010000D01*
X85875571Y-128152857D01*
X85875571Y-128938571D01*
X85875571Y-128152857D02*
X85947000Y-128010000D01*
X86089857Y-127938571D01*
X86304142Y-127938571D01*
X86447000Y-128010000D01*
X86518428Y-128152857D01*
X86518428Y-128938571D01*
X49161285Y-131488571D02*
X48661285Y-130774285D01*
X48304142Y-131488571D02*
X48304142Y-129988571D01*
X48875571Y-129988571D01*
X49018428Y-130060000D01*
X49089857Y-130131428D01*
X49161285Y-130274285D01*
X49161285Y-130488571D01*
X49089857Y-130631428D01*
X49018428Y-130702857D01*
X48875571Y-130774285D01*
X48304142Y-130774285D01*
X50375571Y-131417142D02*
X50232714Y-131488571D01*
X49947000Y-131488571D01*
X49804142Y-131417142D01*
X49732714Y-131274285D01*
X49732714Y-130702857D01*
X49804142Y-130560000D01*
X49947000Y-130488571D01*
X50232714Y-130488571D01*
X50375571Y-130560000D01*
X50447000Y-130702857D01*
X50447000Y-130845714D01*
X49732714Y-130988571D01*
X51304142Y-131488571D02*
X51161285Y-131417142D01*
X51089857Y-131274285D01*
X51089857Y-129988571D01*
X52518428Y-131488571D02*
X52518428Y-130702857D01*
X52447000Y-130560000D01*
X52304142Y-130488571D01*
X52018428Y-130488571D01*
X51875571Y-130560000D01*
X52518428Y-131417142D02*
X52375571Y-131488571D01*
X52018428Y-131488571D01*
X51875571Y-131417142D01*
X51804142Y-131274285D01*
X51804142Y-131131428D01*
X51875571Y-130988571D01*
X52018428Y-130917142D01*
X52375571Y-130917142D01*
X52518428Y-130845714D01*
X53089857Y-130488571D02*
X53447000Y-131488571D01*
X53804142Y-130488571D02*
X53447000Y-131488571D01*
X53304142Y-131845714D01*
X53232714Y-131917142D01*
X53089857Y-131988571D01*
X55518428Y-131488571D02*
X55518428Y-129988571D01*
X56018428Y-131060000D01*
X56518428Y-129988571D01*
X56518428Y-131488571D01*
X57447000Y-131488571D02*
X57304142Y-131417142D01*
X57232714Y-131345714D01*
X57161285Y-131202857D01*
X57161285Y-130774285D01*
X57232714Y-130631428D01*
X57304142Y-130560000D01*
X57447000Y-130488571D01*
X57661285Y-130488571D01*
X57804142Y-130560000D01*
X57875571Y-130631428D01*
X57947000Y-130774285D01*
X57947000Y-131202857D01*
X57875571Y-131345714D01*
X57804142Y-131417142D01*
X57661285Y-131488571D01*
X57447000Y-131488571D01*
X59232714Y-131488571D02*
X59232714Y-129988571D01*
X59232714Y-131417142D02*
X59089857Y-131488571D01*
X58804142Y-131488571D01*
X58661285Y-131417142D01*
X58589857Y-131345714D01*
X58518428Y-131202857D01*
X58518428Y-130774285D01*
X58589857Y-130631428D01*
X58661285Y-130560000D01*
X58804142Y-130488571D01*
X59089857Y-130488571D01*
X59232714Y-130560000D01*
X60589857Y-130488571D02*
X60589857Y-131488571D01*
X59947000Y-130488571D02*
X59947000Y-131274285D01*
X60018428Y-131417142D01*
X60161285Y-131488571D01*
X60375571Y-131488571D01*
X60518428Y-131417142D01*
X60589857Y-131345714D01*
X61518428Y-131488571D02*
X61375571Y-131417142D01*
X61304142Y-131274285D01*
X61304142Y-129988571D01*
X62661285Y-131417142D02*
X62518428Y-131488571D01*
X62232714Y-131488571D01*
X62089857Y-131417142D01*
X62018428Y-131274285D01*
X62018428Y-130702857D01*
X62089857Y-130560000D01*
X62232714Y-130488571D01*
X62518428Y-130488571D01*
X62661285Y-130560000D01*
X62732714Y-130702857D01*
X62732714Y-130845714D01*
X62018428Y-130988571D01*
X64518428Y-130917142D02*
X65661285Y-130917142D01*
X68375571Y-131488571D02*
X67875571Y-130774285D01*
X67518428Y-131488571D02*
X67518428Y-129988571D01*
X68089857Y-129988571D01*
X68232714Y-130060000D01*
X68304142Y-130131428D01*
X68375571Y-130274285D01*
X68375571Y-130488571D01*
X68304142Y-130631428D01*
X68232714Y-130702857D01*
X68089857Y-130774285D01*
X67518428Y-130774285D01*
X69589857Y-131417142D02*
X69447000Y-131488571D01*
X69161285Y-131488571D01*
X69018428Y-131417142D01*
X68947000Y-131274285D01*
X68947000Y-130702857D01*
X69018428Y-130560000D01*
X69161285Y-130488571D01*
X69447000Y-130488571D01*
X69589857Y-130560000D01*
X69661285Y-130702857D01*
X69661285Y-130845714D01*
X68947000Y-130988571D01*
X70161285Y-130488571D02*
X70518428Y-131488571D01*
X70875571Y-130488571D01*
X71447000Y-131345714D02*
X71518428Y-131417142D01*
X71447000Y-131488571D01*
X71375571Y-131417142D01*
X71447000Y-131345714D01*
X71447000Y-131488571D01*
X73232714Y-131060000D02*
X73947000Y-131060000D01*
X73089857Y-131488571D02*
X73589857Y-129988571D01*
X74089857Y-131488571D01*
X48589857Y-132538571D02*
X48732714Y-132538571D01*
X48875571Y-132610000D01*
X48947000Y-132681428D01*
X49018428Y-132824285D01*
X49089857Y-133110000D01*
X49089857Y-133467142D01*
X49018428Y-133752857D01*
X48947000Y-133895714D01*
X48875571Y-133967142D01*
X48732714Y-134038571D01*
X48589857Y-134038571D01*
X48447000Y-133967142D01*
X48375571Y-133895714D01*
X48304142Y-133752857D01*
X48232714Y-133467142D01*
X48232714Y-133110000D01*
X48304142Y-132824285D01*
X48375571Y-132681428D01*
X48447000Y-132610000D01*
X48589857Y-132538571D01*
X49947000Y-133181428D02*
X49804142Y-133110000D01*
X49732714Y-133038571D01*
X49661285Y-132895714D01*
X49661285Y-132824285D01*
X49732714Y-132681428D01*
X49804142Y-132610000D01*
X49947000Y-132538571D01*
X50232714Y-132538571D01*
X50375571Y-132610000D01*
X50447000Y-132681428D01*
X50518428Y-132824285D01*
X50518428Y-132895714D01*
X50447000Y-133038571D01*
X50375571Y-133110000D01*
X50232714Y-133181428D01*
X49947000Y-133181428D01*
X49804142Y-133252857D01*
X49732714Y-133324285D01*
X49661285Y-133467142D01*
X49661285Y-133752857D01*
X49732714Y-133895714D01*
X49804142Y-133967142D01*
X49947000Y-134038571D01*
X50232714Y-134038571D01*
X50375571Y-133967142D01*
X50447000Y-133895714D01*
X50518428Y-133752857D01*
X50518428Y-133467142D01*
X50447000Y-133324285D01*
X50375571Y-133252857D01*
X50232714Y-133181428D01*
X52232714Y-132467142D02*
X50947000Y-134395714D01*
X52661285Y-132681428D02*
X52732714Y-132610000D01*
X52875571Y-132538571D01*
X53232714Y-132538571D01*
X53375571Y-132610000D01*
X53447000Y-132681428D01*
X53518428Y-132824285D01*
X53518428Y-132967142D01*
X53447000Y-133181428D01*
X52589857Y-134038571D01*
X53518428Y-134038571D01*
X54375571Y-133181428D02*
X54232714Y-133110000D01*
X54161285Y-133038571D01*
X54089857Y-132895714D01*
X54089857Y-132824285D01*
X54161285Y-132681428D01*
X54232714Y-132610000D01*
X54375571Y-132538571D01*
X54661285Y-132538571D01*
X54804142Y-132610000D01*
X54875571Y-132681428D01*
X54947000Y-132824285D01*
X54947000Y-132895714D01*
X54875571Y-133038571D01*
X54804142Y-133110000D01*
X54661285Y-133181428D01*
X54375571Y-133181428D01*
X54232714Y-133252857D01*
X54161285Y-133324285D01*
X54089857Y-133467142D01*
X54089857Y-133752857D01*
X54161285Y-133895714D01*
X54232714Y-133967142D01*
X54375571Y-134038571D01*
X54661285Y-134038571D01*
X54804142Y-133967142D01*
X54875571Y-133895714D01*
X54947000Y-133752857D01*
X54947000Y-133467142D01*
X54875571Y-133324285D01*
X54804142Y-133252857D01*
X54661285Y-133181428D01*
X56661285Y-132467142D02*
X55375571Y-134395714D01*
X57089857Y-132681428D02*
X57161285Y-132610000D01*
X57304142Y-132538571D01*
X57661285Y-132538571D01*
X57804142Y-132610000D01*
X57875571Y-132681428D01*
X57947000Y-132824285D01*
X57947000Y-132967142D01*
X57875571Y-133181428D01*
X57018428Y-134038571D01*
X57947000Y-134038571D01*
X58875571Y-132538571D02*
X59018428Y-132538571D01*
X59161285Y-132610000D01*
X59232714Y-132681428D01*
X59304142Y-132824285D01*
X59375571Y-133110000D01*
X59375571Y-133467142D01*
X59304142Y-133752857D01*
X59232714Y-133895714D01*
X59161285Y-133967142D01*
X59018428Y-134038571D01*
X58875571Y-134038571D01*
X58732714Y-133967142D01*
X58661285Y-133895714D01*
X58589857Y-133752857D01*
X58518428Y-133467142D01*
X58518428Y-133110000D01*
X58589857Y-132824285D01*
X58661285Y-132681428D01*
X58732714Y-132610000D01*
X58875571Y-132538571D01*
X59947000Y-132681428D02*
X60018428Y-132610000D01*
X60161285Y-132538571D01*
X60518428Y-132538571D01*
X60661285Y-132610000D01*
X60732714Y-132681428D01*
X60804142Y-132824285D01*
X60804142Y-132967142D01*
X60732714Y-133181428D01*
X59875571Y-134038571D01*
X60804142Y-134038571D01*
X62232714Y-134038571D02*
X61375571Y-134038571D01*
X61804142Y-134038571D02*
X61804142Y-132538571D01*
X61661285Y-132752857D01*
X61518428Y-132895714D01*
X61375571Y-132967142D01*
D11*
%TO.C,K1*%
X66040000Y-81280000D02*
X55880000Y-81280000D01*
X66040000Y-63500000D02*
X55880000Y-63500000D01*
X55880000Y-63500000D02*
X55880000Y-81280000D01*
X66040000Y-63500000D02*
X66040000Y-81280000D01*
%TO.C,K2*%
X87630000Y-81280000D02*
X77470000Y-81280000D01*
X87630000Y-63500000D02*
X77470000Y-63500000D01*
X77470000Y-63500000D02*
X77470000Y-81280000D01*
X87630000Y-63500000D02*
X87630000Y-81280000D01*
%TO.C,K3*%
X113030000Y-81280000D02*
X102870000Y-81280000D01*
X113030000Y-63500000D02*
X102870000Y-63500000D01*
X102870000Y-63500000D02*
X102870000Y-81280000D01*
X113030000Y-63500000D02*
X113030000Y-81280000D01*
%TO.C,K4*%
X134620000Y-81280000D02*
X124460000Y-81280000D01*
X134620000Y-63500000D02*
X124460000Y-63500000D01*
X124460000Y-63500000D02*
X124460000Y-81280000D01*
X134620000Y-63500000D02*
X134620000Y-81280000D01*
%TO.C,K5*%
X160020000Y-81280000D02*
X149860000Y-81280000D01*
X160020000Y-63500000D02*
X149860000Y-63500000D01*
X149860000Y-63500000D02*
X149860000Y-81280000D01*
X160020000Y-63500000D02*
X160020000Y-81280000D01*
%TO.C,K6*%
X181610000Y-81280000D02*
X171450000Y-81280000D01*
X181610000Y-63500000D02*
X171450000Y-63500000D01*
X171450000Y-63500000D02*
X171450000Y-81280000D01*
X181610000Y-63500000D02*
X181610000Y-81280000D01*
%TO.C,K7*%
X207010000Y-81280000D02*
X196850000Y-81280000D01*
X207010000Y-63500000D02*
X196850000Y-63500000D01*
X196850000Y-63500000D02*
X196850000Y-81280000D01*
X207010000Y-63500000D02*
X207010000Y-81280000D01*
%TO.C,K8*%
X228600000Y-81280000D02*
X218440000Y-81280000D01*
X228600000Y-63500000D02*
X218440000Y-63500000D01*
X218440000Y-63500000D02*
X218440000Y-81280000D01*
X228600000Y-63500000D02*
X228600000Y-81280000D01*
%TO.C,J1*%
X62611000Y-117094000D02*
X62611000Y-115570000D01*
X59309000Y-117094000D02*
X59309000Y-115570000D01*
X62611000Y-117094000D02*
X59309000Y-117094000D01*
X53848000Y-115570000D02*
X68072000Y-115570000D01*
X53848000Y-110490000D02*
X68072000Y-110490000D01*
X53848000Y-115570000D02*
X53848000Y-110490000D01*
X68072000Y-115570000D02*
X68072000Y-110490000D01*
%TO.C,J7*%
X66421000Y-97945200D02*
X66421000Y-96421200D01*
X63119000Y-97945200D02*
X63119000Y-96421200D01*
X66421000Y-97945200D02*
X63119000Y-97945200D01*
X67310000Y-86487000D02*
X62230000Y-86487000D01*
X67310000Y-96393000D02*
X62230000Y-96393000D01*
X62230000Y-96393000D02*
X62230000Y-86487000D01*
X67310000Y-96393000D02*
X67310000Y-86487000D01*
%TO.C,J3*%
X55499000Y-49374800D02*
X55499000Y-50898800D01*
X58801000Y-49374800D02*
X58801000Y-50898800D01*
X55499000Y-49374800D02*
X58801000Y-49374800D01*
X54610000Y-60833000D02*
X59690000Y-60833000D01*
X54610000Y-50927000D02*
X59690000Y-50927000D01*
X59690000Y-50927000D02*
X59690000Y-60833000D01*
X54610000Y-50927000D02*
X54610000Y-60833000D01*
%TO.C,J4*%
X63119000Y-49374800D02*
X63119000Y-50898800D01*
X66421000Y-49374800D02*
X66421000Y-50898800D01*
X63119000Y-49374800D02*
X66421000Y-49374800D01*
X62230000Y-60833000D02*
X67310000Y-60833000D01*
X62230000Y-50927000D02*
X67310000Y-50927000D01*
X67310000Y-50927000D02*
X67310000Y-60833000D01*
X62230000Y-50927000D02*
X62230000Y-60833000D01*
%TO.C,J2*%
X84201000Y-117094000D02*
X84201000Y-115570000D01*
X80899000Y-117094000D02*
X80899000Y-115570000D01*
X84201000Y-117094000D02*
X80899000Y-117094000D01*
X75438000Y-115570000D02*
X89662000Y-115570000D01*
X75438000Y-110490000D02*
X89662000Y-110490000D01*
X75438000Y-115570000D02*
X75438000Y-110490000D01*
X89662000Y-115570000D02*
X89662000Y-110490000D01*
%TO.C,J8*%
X88011000Y-97945200D02*
X88011000Y-96421200D01*
X84709000Y-97945200D02*
X84709000Y-96421200D01*
X88011000Y-97945200D02*
X84709000Y-97945200D01*
X88900000Y-86487000D02*
X83820000Y-86487000D01*
X88900000Y-96393000D02*
X83820000Y-96393000D01*
X83820000Y-96393000D02*
X83820000Y-86487000D01*
X88900000Y-96393000D02*
X88900000Y-86487000D01*
%TO.C,J5*%
X77089000Y-49374800D02*
X77089000Y-50898800D01*
X80391000Y-49374800D02*
X80391000Y-50898800D01*
X77089000Y-49374800D02*
X80391000Y-49374800D01*
X76200000Y-60833000D02*
X81280000Y-60833000D01*
X76200000Y-50927000D02*
X81280000Y-50927000D01*
X81280000Y-50927000D02*
X81280000Y-60833000D01*
X76200000Y-50927000D02*
X76200000Y-60833000D01*
%TO.C,J6*%
X84709000Y-49374800D02*
X84709000Y-50898800D01*
X88011000Y-49374800D02*
X88011000Y-50898800D01*
X84709000Y-49374800D02*
X88011000Y-49374800D01*
X83820000Y-60833000D02*
X88900000Y-60833000D01*
X83820000Y-50927000D02*
X88900000Y-50927000D01*
X88900000Y-50927000D02*
X88900000Y-60833000D01*
X83820000Y-50927000D02*
X83820000Y-60833000D01*
%TO.C,J9*%
X109601000Y-117094000D02*
X109601000Y-115570000D01*
X106299000Y-117094000D02*
X106299000Y-115570000D01*
X109601000Y-117094000D02*
X106299000Y-117094000D01*
X100838000Y-115570000D02*
X115062000Y-115570000D01*
X100838000Y-110490000D02*
X115062000Y-110490000D01*
X100838000Y-115570000D02*
X100838000Y-110490000D01*
X115062000Y-115570000D02*
X115062000Y-110490000D01*
%TO.C,J15*%
X113411000Y-97945200D02*
X113411000Y-96421200D01*
X110109000Y-97945200D02*
X110109000Y-96421200D01*
X113411000Y-97945200D02*
X110109000Y-97945200D01*
X114300000Y-86487000D02*
X109220000Y-86487000D01*
X114300000Y-96393000D02*
X109220000Y-96393000D01*
X109220000Y-96393000D02*
X109220000Y-86487000D01*
X114300000Y-96393000D02*
X114300000Y-86487000D01*
%TO.C,J11*%
X102489000Y-49374800D02*
X102489000Y-50898800D01*
X105791000Y-49374800D02*
X105791000Y-50898800D01*
X102489000Y-49374800D02*
X105791000Y-49374800D01*
X101600000Y-60833000D02*
X106680000Y-60833000D01*
X101600000Y-50927000D02*
X106680000Y-50927000D01*
X106680000Y-50927000D02*
X106680000Y-60833000D01*
X101600000Y-50927000D02*
X101600000Y-60833000D01*
%TO.C,J12*%
X110109000Y-49374800D02*
X110109000Y-50898800D01*
X113411000Y-49374800D02*
X113411000Y-50898800D01*
X110109000Y-49374800D02*
X113411000Y-49374800D01*
X109220000Y-60833000D02*
X114300000Y-60833000D01*
X109220000Y-50927000D02*
X114300000Y-50927000D01*
X114300000Y-50927000D02*
X114300000Y-60833000D01*
X109220000Y-50927000D02*
X109220000Y-60833000D01*
%TO.C,J10*%
X131191000Y-117094000D02*
X131191000Y-115570000D01*
X127889000Y-117094000D02*
X127889000Y-115570000D01*
X131191000Y-117094000D02*
X127889000Y-117094000D01*
X122428000Y-115570000D02*
X136652000Y-115570000D01*
X122428000Y-110490000D02*
X136652000Y-110490000D01*
X122428000Y-115570000D02*
X122428000Y-110490000D01*
X136652000Y-115570000D02*
X136652000Y-110490000D01*
%TO.C,J16*%
X135001000Y-97945200D02*
X135001000Y-96421200D01*
X131699000Y-97945200D02*
X131699000Y-96421200D01*
X135001000Y-97945200D02*
X131699000Y-97945200D01*
X135890000Y-86487000D02*
X130810000Y-86487000D01*
X135890000Y-96393000D02*
X130810000Y-96393000D01*
X130810000Y-96393000D02*
X130810000Y-86487000D01*
X135890000Y-96393000D02*
X135890000Y-86487000D01*
%TO.C,J13*%
X124079000Y-49374800D02*
X124079000Y-50898800D01*
X127381000Y-49374800D02*
X127381000Y-50898800D01*
X124079000Y-49374800D02*
X127381000Y-49374800D01*
X123190000Y-60833000D02*
X128270000Y-60833000D01*
X123190000Y-50927000D02*
X128270000Y-50927000D01*
X128270000Y-50927000D02*
X128270000Y-60833000D01*
X123190000Y-50927000D02*
X123190000Y-60833000D01*
%TO.C,J14*%
X131699000Y-49374800D02*
X131699000Y-50898800D01*
X135001000Y-49374800D02*
X135001000Y-50898800D01*
X131699000Y-49374800D02*
X135001000Y-49374800D01*
X130810000Y-60833000D02*
X135890000Y-60833000D01*
X130810000Y-50927000D02*
X135890000Y-50927000D01*
X135890000Y-50927000D02*
X135890000Y-60833000D01*
X130810000Y-50927000D02*
X130810000Y-60833000D01*
%TO.C,J17*%
X156591000Y-117094000D02*
X156591000Y-115570000D01*
X153289000Y-117094000D02*
X153289000Y-115570000D01*
X156591000Y-117094000D02*
X153289000Y-117094000D01*
X147828000Y-115570000D02*
X162052000Y-115570000D01*
X147828000Y-110490000D02*
X162052000Y-110490000D01*
X147828000Y-115570000D02*
X147828000Y-110490000D01*
X162052000Y-115570000D02*
X162052000Y-110490000D01*
%TO.C,J23*%
X160401000Y-97945200D02*
X160401000Y-96421200D01*
X157099000Y-97945200D02*
X157099000Y-96421200D01*
X160401000Y-97945200D02*
X157099000Y-97945200D01*
X161290000Y-86487000D02*
X156210000Y-86487000D01*
X161290000Y-96393000D02*
X156210000Y-96393000D01*
X156210000Y-96393000D02*
X156210000Y-86487000D01*
X161290000Y-96393000D02*
X161290000Y-86487000D01*
%TO.C,J19*%
X149479000Y-49374800D02*
X149479000Y-50898800D01*
X152781000Y-49374800D02*
X152781000Y-50898800D01*
X149479000Y-49374800D02*
X152781000Y-49374800D01*
X148590000Y-60833000D02*
X153670000Y-60833000D01*
X148590000Y-50927000D02*
X153670000Y-50927000D01*
X153670000Y-50927000D02*
X153670000Y-60833000D01*
X148590000Y-50927000D02*
X148590000Y-60833000D01*
%TO.C,J20*%
X157099000Y-49374800D02*
X157099000Y-50898800D01*
X160401000Y-49374800D02*
X160401000Y-50898800D01*
X157099000Y-49374800D02*
X160401000Y-49374800D01*
X156210000Y-60833000D02*
X161290000Y-60833000D01*
X156210000Y-50927000D02*
X161290000Y-50927000D01*
X161290000Y-50927000D02*
X161290000Y-60833000D01*
X156210000Y-50927000D02*
X156210000Y-60833000D01*
%TO.C,J18*%
X178181000Y-117094000D02*
X178181000Y-115570000D01*
X174879000Y-117094000D02*
X174879000Y-115570000D01*
X178181000Y-117094000D02*
X174879000Y-117094000D01*
X169418000Y-115570000D02*
X183642000Y-115570000D01*
X169418000Y-110490000D02*
X183642000Y-110490000D01*
X169418000Y-115570000D02*
X169418000Y-110490000D01*
X183642000Y-115570000D02*
X183642000Y-110490000D01*
%TO.C,J24*%
X181991000Y-97945200D02*
X181991000Y-96421200D01*
X178689000Y-97945200D02*
X178689000Y-96421200D01*
X181991000Y-97945200D02*
X178689000Y-97945200D01*
X182880000Y-86487000D02*
X177800000Y-86487000D01*
X182880000Y-96393000D02*
X177800000Y-96393000D01*
X177800000Y-96393000D02*
X177800000Y-86487000D01*
X182880000Y-96393000D02*
X182880000Y-86487000D01*
%TO.C,J21*%
X171069000Y-49374800D02*
X171069000Y-50898800D01*
X174371000Y-49374800D02*
X174371000Y-50898800D01*
X171069000Y-49374800D02*
X174371000Y-49374800D01*
X170180000Y-60833000D02*
X175260000Y-60833000D01*
X170180000Y-50927000D02*
X175260000Y-50927000D01*
X175260000Y-50927000D02*
X175260000Y-60833000D01*
X170180000Y-50927000D02*
X170180000Y-60833000D01*
%TO.C,J22*%
X178689000Y-49374800D02*
X178689000Y-50898800D01*
X181991000Y-49374800D02*
X181991000Y-50898800D01*
X178689000Y-49374800D02*
X181991000Y-49374800D01*
X177800000Y-60833000D02*
X182880000Y-60833000D01*
X177800000Y-50927000D02*
X182880000Y-50927000D01*
X182880000Y-50927000D02*
X182880000Y-60833000D01*
X177800000Y-50927000D02*
X177800000Y-60833000D01*
%TO.C,J27*%
X196469000Y-49374800D02*
X196469000Y-50898800D01*
X199771000Y-49374800D02*
X199771000Y-50898800D01*
X196469000Y-49374800D02*
X199771000Y-49374800D01*
X195580000Y-60833000D02*
X200660000Y-60833000D01*
X195580000Y-50927000D02*
X200660000Y-50927000D01*
X200660000Y-50927000D02*
X200660000Y-60833000D01*
X195580000Y-50927000D02*
X195580000Y-60833000D01*
%TO.C,J28*%
X204089000Y-49374800D02*
X204089000Y-50898800D01*
X207391000Y-49374800D02*
X207391000Y-50898800D01*
X204089000Y-49374800D02*
X207391000Y-49374800D01*
X203200000Y-60833000D02*
X208280000Y-60833000D01*
X203200000Y-50927000D02*
X208280000Y-50927000D01*
X208280000Y-50927000D02*
X208280000Y-60833000D01*
X203200000Y-50927000D02*
X203200000Y-60833000D01*
%TO.C,J31*%
X207391000Y-97945200D02*
X207391000Y-96421200D01*
X204089000Y-97945200D02*
X204089000Y-96421200D01*
X207391000Y-97945200D02*
X204089000Y-97945200D01*
X208280000Y-86487000D02*
X203200000Y-86487000D01*
X208280000Y-96393000D02*
X203200000Y-96393000D01*
X203200000Y-96393000D02*
X203200000Y-86487000D01*
X208280000Y-96393000D02*
X208280000Y-86487000D01*
%TO.C,J25*%
X203581000Y-117094000D02*
X203581000Y-115570000D01*
X200279000Y-117094000D02*
X200279000Y-115570000D01*
X203581000Y-117094000D02*
X200279000Y-117094000D01*
X194818000Y-115570000D02*
X209042000Y-115570000D01*
X194818000Y-110490000D02*
X209042000Y-110490000D01*
X194818000Y-115570000D02*
X194818000Y-110490000D01*
X209042000Y-115570000D02*
X209042000Y-110490000D01*
%TO.C,J26*%
X225171000Y-117094000D02*
X225171000Y-115570000D01*
X221869000Y-117094000D02*
X221869000Y-115570000D01*
X225171000Y-117094000D02*
X221869000Y-117094000D01*
X216408000Y-115570000D02*
X230632000Y-115570000D01*
X216408000Y-110490000D02*
X230632000Y-110490000D01*
X216408000Y-115570000D02*
X216408000Y-110490000D01*
X230632000Y-115570000D02*
X230632000Y-110490000D01*
%TO.C,J32*%
X228981000Y-97945200D02*
X228981000Y-96421200D01*
X225679000Y-97945200D02*
X225679000Y-96421200D01*
X228981000Y-97945200D02*
X225679000Y-97945200D01*
X229870000Y-86487000D02*
X224790000Y-86487000D01*
X229870000Y-96393000D02*
X224790000Y-96393000D01*
X224790000Y-96393000D02*
X224790000Y-86487000D01*
X229870000Y-96393000D02*
X229870000Y-86487000D01*
%TO.C,J29*%
X218059000Y-49374800D02*
X218059000Y-50898800D01*
X221361000Y-49374800D02*
X221361000Y-50898800D01*
X218059000Y-49374800D02*
X221361000Y-49374800D01*
X217170000Y-60833000D02*
X222250000Y-60833000D01*
X217170000Y-50927000D02*
X222250000Y-50927000D01*
X222250000Y-50927000D02*
X222250000Y-60833000D01*
X217170000Y-50927000D02*
X217170000Y-60833000D01*
%TO.C,J30*%
X225679000Y-49374800D02*
X225679000Y-50898800D01*
X228981000Y-49374800D02*
X228981000Y-50898800D01*
X225679000Y-49374800D02*
X228981000Y-49374800D01*
X224790000Y-60833000D02*
X229870000Y-60833000D01*
X224790000Y-50927000D02*
X229870000Y-50927000D01*
X229870000Y-50927000D02*
X229870000Y-60833000D01*
X224790000Y-50927000D02*
X224790000Y-60833000D01*
%TO.C,D1*%
X59070000Y-88660000D02*
X55230000Y-88660000D01*
X59070000Y-88900000D02*
X55230000Y-88900000D01*
X59070000Y-88780000D02*
X55230000Y-88780000D01*
X57150000Y-96350000D02*
X57150000Y-95360000D01*
X57150000Y-86530000D02*
X57150000Y-87520000D01*
X59070000Y-95360000D02*
X59070000Y-87520000D01*
X55230000Y-95360000D02*
X59070000Y-95360000D01*
X55230000Y-87520000D02*
X55230000Y-95360000D01*
X59070000Y-87520000D02*
X55230000Y-87520000D01*
%TO.C,D2*%
X80660000Y-87520000D02*
X76820000Y-87520000D01*
X76820000Y-87520000D02*
X76820000Y-95360000D01*
X76820000Y-95360000D02*
X80660000Y-95360000D01*
X80660000Y-95360000D02*
X80660000Y-87520000D01*
X78740000Y-86530000D02*
X78740000Y-87520000D01*
X78740000Y-96350000D02*
X78740000Y-95360000D01*
X80660000Y-88780000D02*
X76820000Y-88780000D01*
X80660000Y-88900000D02*
X76820000Y-88900000D01*
X80660000Y-88660000D02*
X76820000Y-88660000D01*
%TO.C,D3*%
X106060000Y-88660000D02*
X102220000Y-88660000D01*
X106060000Y-88900000D02*
X102220000Y-88900000D01*
X106060000Y-88780000D02*
X102220000Y-88780000D01*
X104140000Y-96350000D02*
X104140000Y-95360000D01*
X104140000Y-86530000D02*
X104140000Y-87520000D01*
X106060000Y-95360000D02*
X106060000Y-87520000D01*
X102220000Y-95360000D02*
X106060000Y-95360000D01*
X102220000Y-87520000D02*
X102220000Y-95360000D01*
X106060000Y-87520000D02*
X102220000Y-87520000D01*
%TO.C,D4*%
X127650000Y-87520000D02*
X123810000Y-87520000D01*
X123810000Y-87520000D02*
X123810000Y-95360000D01*
X123810000Y-95360000D02*
X127650000Y-95360000D01*
X127650000Y-95360000D02*
X127650000Y-87520000D01*
X125730000Y-86530000D02*
X125730000Y-87520000D01*
X125730000Y-96350000D02*
X125730000Y-95360000D01*
X127650000Y-88780000D02*
X123810000Y-88780000D01*
X127650000Y-88900000D02*
X123810000Y-88900000D01*
X127650000Y-88660000D02*
X123810000Y-88660000D01*
%TO.C,D5*%
X153050000Y-87520000D02*
X149210000Y-87520000D01*
X149210000Y-87520000D02*
X149210000Y-95360000D01*
X149210000Y-95360000D02*
X153050000Y-95360000D01*
X153050000Y-95360000D02*
X153050000Y-87520000D01*
X151130000Y-86530000D02*
X151130000Y-87520000D01*
X151130000Y-96350000D02*
X151130000Y-95360000D01*
X153050000Y-88780000D02*
X149210000Y-88780000D01*
X153050000Y-88900000D02*
X149210000Y-88900000D01*
X153050000Y-88660000D02*
X149210000Y-88660000D01*
%TO.C,D6*%
X174640000Y-87520000D02*
X170800000Y-87520000D01*
X170800000Y-87520000D02*
X170800000Y-95360000D01*
X170800000Y-95360000D02*
X174640000Y-95360000D01*
X174640000Y-95360000D02*
X174640000Y-87520000D01*
X172720000Y-86530000D02*
X172720000Y-87520000D01*
X172720000Y-96350000D02*
X172720000Y-95360000D01*
X174640000Y-88780000D02*
X170800000Y-88780000D01*
X174640000Y-88900000D02*
X170800000Y-88900000D01*
X174640000Y-88660000D02*
X170800000Y-88660000D01*
%TO.C,D7*%
X200040000Y-88660000D02*
X196200000Y-88660000D01*
X200040000Y-88900000D02*
X196200000Y-88900000D01*
X200040000Y-88780000D02*
X196200000Y-88780000D01*
X198120000Y-96350000D02*
X198120000Y-95360000D01*
X198120000Y-86530000D02*
X198120000Y-87520000D01*
X200040000Y-95360000D02*
X200040000Y-87520000D01*
X196200000Y-95360000D02*
X200040000Y-95360000D01*
X196200000Y-87520000D02*
X196200000Y-95360000D01*
X200040000Y-87520000D02*
X196200000Y-87520000D01*
%TO.C,D8*%
X221630000Y-88660000D02*
X217790000Y-88660000D01*
X221630000Y-88900000D02*
X217790000Y-88900000D01*
X221630000Y-88780000D02*
X217790000Y-88780000D01*
X219710000Y-96350000D02*
X219710000Y-95360000D01*
X219710000Y-86530000D02*
X219710000Y-87520000D01*
X221630000Y-95360000D02*
X221630000Y-87520000D01*
X217790000Y-95360000D02*
X221630000Y-95360000D01*
X217790000Y-87520000D02*
X217790000Y-95360000D01*
X221630000Y-87520000D02*
X217790000Y-87520000D01*
%TO.C,K1*%
D12*
X67508380Y-73128095D02*
X66508380Y-73128095D01*
X67508380Y-72556666D02*
X66936952Y-72985238D01*
X66508380Y-72556666D02*
X67079809Y-73128095D01*
X67508380Y-71604285D02*
X67508380Y-72175714D01*
X67508380Y-71890000D02*
X66508380Y-71890000D01*
X66651238Y-71985238D01*
X66746476Y-72080476D01*
X66794095Y-72175714D01*
%TO.C,K2*%
X89098380Y-73128095D02*
X88098380Y-73128095D01*
X89098380Y-72556666D02*
X88526952Y-72985238D01*
X88098380Y-72556666D02*
X88669809Y-73128095D01*
X88193619Y-72175714D02*
X88146000Y-72128095D01*
X88098380Y-72032857D01*
X88098380Y-71794761D01*
X88146000Y-71699523D01*
X88193619Y-71651904D01*
X88288857Y-71604285D01*
X88384095Y-71604285D01*
X88526952Y-71651904D01*
X89098380Y-72223333D01*
X89098380Y-71604285D01*
%TO.C,K3*%
X114498380Y-73128095D02*
X113498380Y-73128095D01*
X114498380Y-72556666D02*
X113926952Y-72985238D01*
X113498380Y-72556666D02*
X114069809Y-73128095D01*
X113498380Y-72223333D02*
X113498380Y-71604285D01*
X113879333Y-71937619D01*
X113879333Y-71794761D01*
X113926952Y-71699523D01*
X113974571Y-71651904D01*
X114069809Y-71604285D01*
X114307904Y-71604285D01*
X114403142Y-71651904D01*
X114450761Y-71699523D01*
X114498380Y-71794761D01*
X114498380Y-72080476D01*
X114450761Y-72175714D01*
X114403142Y-72223333D01*
%TO.C,K4*%
X136992380Y-73128095D02*
X135992380Y-73128095D01*
X136992380Y-72556666D02*
X136420952Y-72985238D01*
X135992380Y-72556666D02*
X136563809Y-73128095D01*
X136325714Y-71699523D02*
X136992380Y-71699523D01*
X135944761Y-71937619D02*
X136659047Y-72175714D01*
X136659047Y-71556666D01*
%TO.C,K5*%
X161488380Y-73128095D02*
X160488380Y-73128095D01*
X161488380Y-72556666D02*
X160916952Y-72985238D01*
X160488380Y-72556666D02*
X161059809Y-73128095D01*
X160488380Y-71651904D02*
X160488380Y-72128095D01*
X160964571Y-72175714D01*
X160916952Y-72128095D01*
X160869333Y-72032857D01*
X160869333Y-71794761D01*
X160916952Y-71699523D01*
X160964571Y-71651904D01*
X161059809Y-71604285D01*
X161297904Y-71604285D01*
X161393142Y-71651904D01*
X161440761Y-71699523D01*
X161488380Y-71794761D01*
X161488380Y-72032857D01*
X161440761Y-72128095D01*
X161393142Y-72175714D01*
%TO.C,K6*%
X183078380Y-73128095D02*
X182078380Y-73128095D01*
X183078380Y-72556666D02*
X182506952Y-72985238D01*
X182078380Y-72556666D02*
X182649809Y-73128095D01*
X182078380Y-71699523D02*
X182078380Y-71890000D01*
X182126000Y-71985238D01*
X182173619Y-72032857D01*
X182316476Y-72128095D01*
X182506952Y-72175714D01*
X182887904Y-72175714D01*
X182983142Y-72128095D01*
X183030761Y-72080476D01*
X183078380Y-71985238D01*
X183078380Y-71794761D01*
X183030761Y-71699523D01*
X182983142Y-71651904D01*
X182887904Y-71604285D01*
X182649809Y-71604285D01*
X182554571Y-71651904D01*
X182506952Y-71699523D01*
X182459333Y-71794761D01*
X182459333Y-71985238D01*
X182506952Y-72080476D01*
X182554571Y-72128095D01*
X182649809Y-72175714D01*
%TO.C,K7*%
X208478380Y-73128095D02*
X207478380Y-73128095D01*
X208478380Y-72556666D02*
X207906952Y-72985238D01*
X207478380Y-72556666D02*
X208049809Y-73128095D01*
X207478380Y-72223333D02*
X207478380Y-71556666D01*
X208478380Y-71985238D01*
%TO.C,K8*%
X230068380Y-73128095D02*
X229068380Y-73128095D01*
X230068380Y-72556666D02*
X229496952Y-72985238D01*
X229068380Y-72556666D02*
X229639809Y-73128095D01*
X229496952Y-71985238D02*
X229449333Y-72080476D01*
X229401714Y-72128095D01*
X229306476Y-72175714D01*
X229258857Y-72175714D01*
X229163619Y-72128095D01*
X229116000Y-72080476D01*
X229068380Y-71985238D01*
X229068380Y-71794761D01*
X229116000Y-71699523D01*
X229163619Y-71651904D01*
X229258857Y-71604285D01*
X229306476Y-71604285D01*
X229401714Y-71651904D01*
X229449333Y-71699523D01*
X229496952Y-71794761D01*
X229496952Y-71985238D01*
X229544571Y-72080476D01*
X229592190Y-72128095D01*
X229687428Y-72175714D01*
X229877904Y-72175714D01*
X229973142Y-72128095D01*
X230020761Y-72080476D01*
X230068380Y-71985238D01*
X230068380Y-71794761D01*
X230020761Y-71699523D01*
X229973142Y-71651904D01*
X229877904Y-71604285D01*
X229687428Y-71604285D01*
X229592190Y-71651904D01*
X229544571Y-71699523D01*
X229496952Y-71794761D01*
%TO.C,J1*%
X60626666Y-117816380D02*
X60626666Y-118530666D01*
X60579047Y-118673523D01*
X60483809Y-118768761D01*
X60340952Y-118816380D01*
X60245714Y-118816380D01*
X61626666Y-118816380D02*
X61055238Y-118816380D01*
X61340952Y-118816380D02*
X61340952Y-117816380D01*
X61245714Y-117959238D01*
X61150476Y-118054476D01*
X61055238Y-118102095D01*
%TO.C,J7*%
X67778380Y-91773333D02*
X68492666Y-91773333D01*
X68635523Y-91820952D01*
X68730761Y-91916190D01*
X68778380Y-92059047D01*
X68778380Y-92154285D01*
X67778380Y-91392380D02*
X67778380Y-90725714D01*
X68778380Y-91154285D01*
%TO.C,J3*%
X53046380Y-56213333D02*
X53760666Y-56213333D01*
X53903523Y-56260952D01*
X53998761Y-56356190D01*
X54046380Y-56499047D01*
X54046380Y-56594285D01*
X53046380Y-55832380D02*
X53046380Y-55213333D01*
X53427333Y-55546666D01*
X53427333Y-55403809D01*
X53474952Y-55308571D01*
X53522571Y-55260952D01*
X53617809Y-55213333D01*
X53855904Y-55213333D01*
X53951142Y-55260952D01*
X53998761Y-55308571D01*
X54046380Y-55403809D01*
X54046380Y-55689523D01*
X53998761Y-55784761D01*
X53951142Y-55832380D01*
%TO.C,J4*%
X67778380Y-56213333D02*
X68492666Y-56213333D01*
X68635523Y-56260952D01*
X68730761Y-56356190D01*
X68778380Y-56499047D01*
X68778380Y-56594285D01*
X68111714Y-55308571D02*
X68778380Y-55308571D01*
X67730761Y-55546666D02*
X68445047Y-55784761D01*
X68445047Y-55165714D01*
%TO.C,J2*%
X82216666Y-117816380D02*
X82216666Y-118530666D01*
X82169047Y-118673523D01*
X82073809Y-118768761D01*
X81930952Y-118816380D01*
X81835714Y-118816380D01*
X82645238Y-117911619D02*
X82692857Y-117864000D01*
X82788095Y-117816380D01*
X83026190Y-117816380D01*
X83121428Y-117864000D01*
X83169047Y-117911619D01*
X83216666Y-118006857D01*
X83216666Y-118102095D01*
X83169047Y-118244952D01*
X82597619Y-118816380D01*
X83216666Y-118816380D01*
%TO.C,J8*%
X89368380Y-91773333D02*
X90082666Y-91773333D01*
X90225523Y-91820952D01*
X90320761Y-91916190D01*
X90368380Y-92059047D01*
X90368380Y-92154285D01*
X89796952Y-91154285D02*
X89749333Y-91249523D01*
X89701714Y-91297142D01*
X89606476Y-91344761D01*
X89558857Y-91344761D01*
X89463619Y-91297142D01*
X89416000Y-91249523D01*
X89368380Y-91154285D01*
X89368380Y-90963809D01*
X89416000Y-90868571D01*
X89463619Y-90820952D01*
X89558857Y-90773333D01*
X89606476Y-90773333D01*
X89701714Y-90820952D01*
X89749333Y-90868571D01*
X89796952Y-90963809D01*
X89796952Y-91154285D01*
X89844571Y-91249523D01*
X89892190Y-91297142D01*
X89987428Y-91344761D01*
X90177904Y-91344761D01*
X90273142Y-91297142D01*
X90320761Y-91249523D01*
X90368380Y-91154285D01*
X90368380Y-90963809D01*
X90320761Y-90868571D01*
X90273142Y-90820952D01*
X90177904Y-90773333D01*
X89987428Y-90773333D01*
X89892190Y-90820952D01*
X89844571Y-90868571D01*
X89796952Y-90963809D01*
%TO.C,J5*%
X74636380Y-56213333D02*
X75350666Y-56213333D01*
X75493523Y-56260952D01*
X75588761Y-56356190D01*
X75636380Y-56499047D01*
X75636380Y-56594285D01*
X74636380Y-55260952D02*
X74636380Y-55737142D01*
X75112571Y-55784761D01*
X75064952Y-55737142D01*
X75017333Y-55641904D01*
X75017333Y-55403809D01*
X75064952Y-55308571D01*
X75112571Y-55260952D01*
X75207809Y-55213333D01*
X75445904Y-55213333D01*
X75541142Y-55260952D01*
X75588761Y-55308571D01*
X75636380Y-55403809D01*
X75636380Y-55641904D01*
X75588761Y-55737142D01*
X75541142Y-55784761D01*
%TO.C,J6*%
X89368380Y-56213333D02*
X90082666Y-56213333D01*
X90225523Y-56260952D01*
X90320761Y-56356190D01*
X90368380Y-56499047D01*
X90368380Y-56594285D01*
X89368380Y-55308571D02*
X89368380Y-55499047D01*
X89416000Y-55594285D01*
X89463619Y-55641904D01*
X89606476Y-55737142D01*
X89796952Y-55784761D01*
X90177904Y-55784761D01*
X90273142Y-55737142D01*
X90320761Y-55689523D01*
X90368380Y-55594285D01*
X90368380Y-55403809D01*
X90320761Y-55308571D01*
X90273142Y-55260952D01*
X90177904Y-55213333D01*
X89939809Y-55213333D01*
X89844571Y-55260952D01*
X89796952Y-55308571D01*
X89749333Y-55403809D01*
X89749333Y-55594285D01*
X89796952Y-55689523D01*
X89844571Y-55737142D01*
X89939809Y-55784761D01*
%TO.C,J9*%
X107616666Y-117816380D02*
X107616666Y-118530666D01*
X107569047Y-118673523D01*
X107473809Y-118768761D01*
X107330952Y-118816380D01*
X107235714Y-118816380D01*
X108140476Y-118816380D02*
X108330952Y-118816380D01*
X108426190Y-118768761D01*
X108473809Y-118721142D01*
X108569047Y-118578285D01*
X108616666Y-118387809D01*
X108616666Y-118006857D01*
X108569047Y-117911619D01*
X108521428Y-117864000D01*
X108426190Y-117816380D01*
X108235714Y-117816380D01*
X108140476Y-117864000D01*
X108092857Y-117911619D01*
X108045238Y-118006857D01*
X108045238Y-118244952D01*
X108092857Y-118340190D01*
X108140476Y-118387809D01*
X108235714Y-118435428D01*
X108426190Y-118435428D01*
X108521428Y-118387809D01*
X108569047Y-118340190D01*
X108616666Y-118244952D01*
%TO.C,J15*%
X114768380Y-92249523D02*
X115482666Y-92249523D01*
X115625523Y-92297142D01*
X115720761Y-92392380D01*
X115768380Y-92535238D01*
X115768380Y-92630476D01*
X115768380Y-91249523D02*
X115768380Y-91820952D01*
X115768380Y-91535238D02*
X114768380Y-91535238D01*
X114911238Y-91630476D01*
X115006476Y-91725714D01*
X115054095Y-91820952D01*
X114768380Y-90344761D02*
X114768380Y-90820952D01*
X115244571Y-90868571D01*
X115196952Y-90820952D01*
X115149333Y-90725714D01*
X115149333Y-90487619D01*
X115196952Y-90392380D01*
X115244571Y-90344761D01*
X115339809Y-90297142D01*
X115577904Y-90297142D01*
X115673142Y-90344761D01*
X115720761Y-90392380D01*
X115768380Y-90487619D01*
X115768380Y-90725714D01*
X115720761Y-90820952D01*
X115673142Y-90868571D01*
%TO.C,J11*%
X100036380Y-56689523D02*
X100750666Y-56689523D01*
X100893523Y-56737142D01*
X100988761Y-56832380D01*
X101036380Y-56975238D01*
X101036380Y-57070476D01*
X101036380Y-55689523D02*
X101036380Y-56260952D01*
X101036380Y-55975238D02*
X100036380Y-55975238D01*
X100179238Y-56070476D01*
X100274476Y-56165714D01*
X100322095Y-56260952D01*
X101036380Y-54737142D02*
X101036380Y-55308571D01*
X101036380Y-55022857D02*
X100036380Y-55022857D01*
X100179238Y-55118095D01*
X100274476Y-55213333D01*
X100322095Y-55308571D01*
%TO.C,J12*%
X114768380Y-56689523D02*
X115482666Y-56689523D01*
X115625523Y-56737142D01*
X115720761Y-56832380D01*
X115768380Y-56975238D01*
X115768380Y-57070476D01*
X115768380Y-55689523D02*
X115768380Y-56260952D01*
X115768380Y-55975238D02*
X114768380Y-55975238D01*
X114911238Y-56070476D01*
X115006476Y-56165714D01*
X115054095Y-56260952D01*
X114863619Y-55308571D02*
X114816000Y-55260952D01*
X114768380Y-55165714D01*
X114768380Y-54927619D01*
X114816000Y-54832380D01*
X114863619Y-54784761D01*
X114958857Y-54737142D01*
X115054095Y-54737142D01*
X115196952Y-54784761D01*
X115768380Y-55356190D01*
X115768380Y-54737142D01*
%TO.C,J10*%
X128730476Y-117816380D02*
X128730476Y-118530666D01*
X128682857Y-118673523D01*
X128587619Y-118768761D01*
X128444761Y-118816380D01*
X128349523Y-118816380D01*
X129730476Y-118816380D02*
X129159047Y-118816380D01*
X129444761Y-118816380D02*
X129444761Y-117816380D01*
X129349523Y-117959238D01*
X129254285Y-118054476D01*
X129159047Y-118102095D01*
X130349523Y-117816380D02*
X130444761Y-117816380D01*
X130540000Y-117864000D01*
X130587619Y-117911619D01*
X130635238Y-118006857D01*
X130682857Y-118197333D01*
X130682857Y-118435428D01*
X130635238Y-118625904D01*
X130587619Y-118721142D01*
X130540000Y-118768761D01*
X130444761Y-118816380D01*
X130349523Y-118816380D01*
X130254285Y-118768761D01*
X130206666Y-118721142D01*
X130159047Y-118625904D01*
X130111428Y-118435428D01*
X130111428Y-118197333D01*
X130159047Y-118006857D01*
X130206666Y-117911619D01*
X130254285Y-117864000D01*
X130349523Y-117816380D01*
%TO.C,J16*%
X136358380Y-92249523D02*
X137072666Y-92249523D01*
X137215523Y-92297142D01*
X137310761Y-92392380D01*
X137358380Y-92535238D01*
X137358380Y-92630476D01*
X137358380Y-91249523D02*
X137358380Y-91820952D01*
X137358380Y-91535238D02*
X136358380Y-91535238D01*
X136501238Y-91630476D01*
X136596476Y-91725714D01*
X136644095Y-91820952D01*
X136358380Y-90392380D02*
X136358380Y-90582857D01*
X136406000Y-90678095D01*
X136453619Y-90725714D01*
X136596476Y-90820952D01*
X136786952Y-90868571D01*
X137167904Y-90868571D01*
X137263142Y-90820952D01*
X137310761Y-90773333D01*
X137358380Y-90678095D01*
X137358380Y-90487619D01*
X137310761Y-90392380D01*
X137263142Y-90344761D01*
X137167904Y-90297142D01*
X136929809Y-90297142D01*
X136834571Y-90344761D01*
X136786952Y-90392380D01*
X136739333Y-90487619D01*
X136739333Y-90678095D01*
X136786952Y-90773333D01*
X136834571Y-90820952D01*
X136929809Y-90868571D01*
%TO.C,J13*%
X121626380Y-56689523D02*
X122340666Y-56689523D01*
X122483523Y-56737142D01*
X122578761Y-56832380D01*
X122626380Y-56975238D01*
X122626380Y-57070476D01*
X122626380Y-55689523D02*
X122626380Y-56260952D01*
X122626380Y-55975238D02*
X121626380Y-55975238D01*
X121769238Y-56070476D01*
X121864476Y-56165714D01*
X121912095Y-56260952D01*
X121626380Y-55356190D02*
X121626380Y-54737142D01*
X122007333Y-55070476D01*
X122007333Y-54927619D01*
X122054952Y-54832380D01*
X122102571Y-54784761D01*
X122197809Y-54737142D01*
X122435904Y-54737142D01*
X122531142Y-54784761D01*
X122578761Y-54832380D01*
X122626380Y-54927619D01*
X122626380Y-55213333D01*
X122578761Y-55308571D01*
X122531142Y-55356190D01*
%TO.C,J14*%
X136612380Y-56689523D02*
X137326666Y-56689523D01*
X137469523Y-56737142D01*
X137564761Y-56832380D01*
X137612380Y-56975238D01*
X137612380Y-57070476D01*
X137612380Y-55689523D02*
X137612380Y-56260952D01*
X137612380Y-55975238D02*
X136612380Y-55975238D01*
X136755238Y-56070476D01*
X136850476Y-56165714D01*
X136898095Y-56260952D01*
X136945714Y-54832380D02*
X137612380Y-54832380D01*
X136564761Y-55070476D02*
X137279047Y-55308571D01*
X137279047Y-54689523D01*
%TO.C,J17*%
X154130476Y-117816380D02*
X154130476Y-118530666D01*
X154082857Y-118673523D01*
X153987619Y-118768761D01*
X153844761Y-118816380D01*
X153749523Y-118816380D01*
X155130476Y-118816380D02*
X154559047Y-118816380D01*
X154844761Y-118816380D02*
X154844761Y-117816380D01*
X154749523Y-117959238D01*
X154654285Y-118054476D01*
X154559047Y-118102095D01*
X155463809Y-117816380D02*
X156130476Y-117816380D01*
X155701904Y-118816380D01*
%TO.C,J23*%
X161758380Y-92249523D02*
X162472666Y-92249523D01*
X162615523Y-92297142D01*
X162710761Y-92392380D01*
X162758380Y-92535238D01*
X162758380Y-92630476D01*
X161853619Y-91820952D02*
X161806000Y-91773333D01*
X161758380Y-91678095D01*
X161758380Y-91440000D01*
X161806000Y-91344761D01*
X161853619Y-91297142D01*
X161948857Y-91249523D01*
X162044095Y-91249523D01*
X162186952Y-91297142D01*
X162758380Y-91868571D01*
X162758380Y-91249523D01*
X161758380Y-90916190D02*
X161758380Y-90297142D01*
X162139333Y-90630476D01*
X162139333Y-90487619D01*
X162186952Y-90392380D01*
X162234571Y-90344761D01*
X162329809Y-90297142D01*
X162567904Y-90297142D01*
X162663142Y-90344761D01*
X162710761Y-90392380D01*
X162758380Y-90487619D01*
X162758380Y-90773333D01*
X162710761Y-90868571D01*
X162663142Y-90916190D01*
%TO.C,J19*%
X147026380Y-56689523D02*
X147740666Y-56689523D01*
X147883523Y-56737142D01*
X147978761Y-56832380D01*
X148026380Y-56975238D01*
X148026380Y-57070476D01*
X148026380Y-55689523D02*
X148026380Y-56260952D01*
X148026380Y-55975238D02*
X147026380Y-55975238D01*
X147169238Y-56070476D01*
X147264476Y-56165714D01*
X147312095Y-56260952D01*
X148026380Y-55213333D02*
X148026380Y-55022857D01*
X147978761Y-54927619D01*
X147931142Y-54880000D01*
X147788285Y-54784761D01*
X147597809Y-54737142D01*
X147216857Y-54737142D01*
X147121619Y-54784761D01*
X147074000Y-54832380D01*
X147026380Y-54927619D01*
X147026380Y-55118095D01*
X147074000Y-55213333D01*
X147121619Y-55260952D01*
X147216857Y-55308571D01*
X147454952Y-55308571D01*
X147550190Y-55260952D01*
X147597809Y-55213333D01*
X147645428Y-55118095D01*
X147645428Y-54927619D01*
X147597809Y-54832380D01*
X147550190Y-54784761D01*
X147454952Y-54737142D01*
%TO.C,J20*%
X161758380Y-56943523D02*
X162472666Y-56943523D01*
X162615523Y-56991142D01*
X162710761Y-57086380D01*
X162758380Y-57229238D01*
X162758380Y-57324476D01*
X161853619Y-56514952D02*
X161806000Y-56467333D01*
X161758380Y-56372095D01*
X161758380Y-56134000D01*
X161806000Y-56038761D01*
X161853619Y-55991142D01*
X161948857Y-55943523D01*
X162044095Y-55943523D01*
X162186952Y-55991142D01*
X162758380Y-56562571D01*
X162758380Y-55943523D01*
X161758380Y-55324476D02*
X161758380Y-55229238D01*
X161806000Y-55134000D01*
X161853619Y-55086380D01*
X161948857Y-55038761D01*
X162139333Y-54991142D01*
X162377428Y-54991142D01*
X162567904Y-55038761D01*
X162663142Y-55086380D01*
X162710761Y-55134000D01*
X162758380Y-55229238D01*
X162758380Y-55324476D01*
X162710761Y-55419714D01*
X162663142Y-55467333D01*
X162567904Y-55514952D01*
X162377428Y-55562571D01*
X162139333Y-55562571D01*
X161948857Y-55514952D01*
X161853619Y-55467333D01*
X161806000Y-55419714D01*
X161758380Y-55324476D01*
%TO.C,J18*%
X175720476Y-117816380D02*
X175720476Y-118530666D01*
X175672857Y-118673523D01*
X175577619Y-118768761D01*
X175434761Y-118816380D01*
X175339523Y-118816380D01*
X176720476Y-118816380D02*
X176149047Y-118816380D01*
X176434761Y-118816380D02*
X176434761Y-117816380D01*
X176339523Y-117959238D01*
X176244285Y-118054476D01*
X176149047Y-118102095D01*
X177291904Y-118244952D02*
X177196666Y-118197333D01*
X177149047Y-118149714D01*
X177101428Y-118054476D01*
X177101428Y-118006857D01*
X177149047Y-117911619D01*
X177196666Y-117864000D01*
X177291904Y-117816380D01*
X177482380Y-117816380D01*
X177577619Y-117864000D01*
X177625238Y-117911619D01*
X177672857Y-118006857D01*
X177672857Y-118054476D01*
X177625238Y-118149714D01*
X177577619Y-118197333D01*
X177482380Y-118244952D01*
X177291904Y-118244952D01*
X177196666Y-118292571D01*
X177149047Y-118340190D01*
X177101428Y-118435428D01*
X177101428Y-118625904D01*
X177149047Y-118721142D01*
X177196666Y-118768761D01*
X177291904Y-118816380D01*
X177482380Y-118816380D01*
X177577619Y-118768761D01*
X177625238Y-118721142D01*
X177672857Y-118625904D01*
X177672857Y-118435428D01*
X177625238Y-118340190D01*
X177577619Y-118292571D01*
X177482380Y-118244952D01*
%TO.C,J24*%
X183348380Y-92249523D02*
X184062666Y-92249523D01*
X184205523Y-92297142D01*
X184300761Y-92392380D01*
X184348380Y-92535238D01*
X184348380Y-92630476D01*
X183443619Y-91820952D02*
X183396000Y-91773333D01*
X183348380Y-91678095D01*
X183348380Y-91440000D01*
X183396000Y-91344761D01*
X183443619Y-91297142D01*
X183538857Y-91249523D01*
X183634095Y-91249523D01*
X183776952Y-91297142D01*
X184348380Y-91868571D01*
X184348380Y-91249523D01*
X183681714Y-90392380D02*
X184348380Y-90392380D01*
X183300761Y-90630476D02*
X184015047Y-90868571D01*
X184015047Y-90249523D01*
%TO.C,J21*%
X168616380Y-56689523D02*
X169330666Y-56689523D01*
X169473523Y-56737142D01*
X169568761Y-56832380D01*
X169616380Y-56975238D01*
X169616380Y-57070476D01*
X168711619Y-56260952D02*
X168664000Y-56213333D01*
X168616380Y-56118095D01*
X168616380Y-55880000D01*
X168664000Y-55784761D01*
X168711619Y-55737142D01*
X168806857Y-55689523D01*
X168902095Y-55689523D01*
X169044952Y-55737142D01*
X169616380Y-56308571D01*
X169616380Y-55689523D01*
X169616380Y-54737142D02*
X169616380Y-55308571D01*
X169616380Y-55022857D02*
X168616380Y-55022857D01*
X168759238Y-55118095D01*
X168854476Y-55213333D01*
X168902095Y-55308571D01*
%TO.C,J22*%
X183348380Y-56689523D02*
X184062666Y-56689523D01*
X184205523Y-56737142D01*
X184300761Y-56832380D01*
X184348380Y-56975238D01*
X184348380Y-57070476D01*
X183443619Y-56260952D02*
X183396000Y-56213333D01*
X183348380Y-56118095D01*
X183348380Y-55880000D01*
X183396000Y-55784761D01*
X183443619Y-55737142D01*
X183538857Y-55689523D01*
X183634095Y-55689523D01*
X183776952Y-55737142D01*
X184348380Y-56308571D01*
X184348380Y-55689523D01*
X183443619Y-55308571D02*
X183396000Y-55260952D01*
X183348380Y-55165714D01*
X183348380Y-54927619D01*
X183396000Y-54832380D01*
X183443619Y-54784761D01*
X183538857Y-54737142D01*
X183634095Y-54737142D01*
X183776952Y-54784761D01*
X184348380Y-55356190D01*
X184348380Y-54737142D01*
%TO.C,J27*%
X194016380Y-56689523D02*
X194730666Y-56689523D01*
X194873523Y-56737142D01*
X194968761Y-56832380D01*
X195016380Y-56975238D01*
X195016380Y-57070476D01*
X194111619Y-56260952D02*
X194064000Y-56213333D01*
X194016380Y-56118095D01*
X194016380Y-55880000D01*
X194064000Y-55784761D01*
X194111619Y-55737142D01*
X194206857Y-55689523D01*
X194302095Y-55689523D01*
X194444952Y-55737142D01*
X195016380Y-56308571D01*
X195016380Y-55689523D01*
X194016380Y-55356190D02*
X194016380Y-54689523D01*
X195016380Y-55118095D01*
%TO.C,J28*%
X208748380Y-56689523D02*
X209462666Y-56689523D01*
X209605523Y-56737142D01*
X209700761Y-56832380D01*
X209748380Y-56975238D01*
X209748380Y-57070476D01*
X208843619Y-56260952D02*
X208796000Y-56213333D01*
X208748380Y-56118095D01*
X208748380Y-55880000D01*
X208796000Y-55784761D01*
X208843619Y-55737142D01*
X208938857Y-55689523D01*
X209034095Y-55689523D01*
X209176952Y-55737142D01*
X209748380Y-56308571D01*
X209748380Y-55689523D01*
X209176952Y-55118095D02*
X209129333Y-55213333D01*
X209081714Y-55260952D01*
X208986476Y-55308571D01*
X208938857Y-55308571D01*
X208843619Y-55260952D01*
X208796000Y-55213333D01*
X208748380Y-55118095D01*
X208748380Y-54927619D01*
X208796000Y-54832380D01*
X208843619Y-54784761D01*
X208938857Y-54737142D01*
X208986476Y-54737142D01*
X209081714Y-54784761D01*
X209129333Y-54832380D01*
X209176952Y-54927619D01*
X209176952Y-55118095D01*
X209224571Y-55213333D01*
X209272190Y-55260952D01*
X209367428Y-55308571D01*
X209557904Y-55308571D01*
X209653142Y-55260952D01*
X209700761Y-55213333D01*
X209748380Y-55118095D01*
X209748380Y-54927619D01*
X209700761Y-54832380D01*
X209653142Y-54784761D01*
X209557904Y-54737142D01*
X209367428Y-54737142D01*
X209272190Y-54784761D01*
X209224571Y-54832380D01*
X209176952Y-54927619D01*
%TO.C,J31*%
X208748380Y-92249523D02*
X209462666Y-92249523D01*
X209605523Y-92297142D01*
X209700761Y-92392380D01*
X209748380Y-92535238D01*
X209748380Y-92630476D01*
X208748380Y-91868571D02*
X208748380Y-91249523D01*
X209129333Y-91582857D01*
X209129333Y-91440000D01*
X209176952Y-91344761D01*
X209224571Y-91297142D01*
X209319809Y-91249523D01*
X209557904Y-91249523D01*
X209653142Y-91297142D01*
X209700761Y-91344761D01*
X209748380Y-91440000D01*
X209748380Y-91725714D01*
X209700761Y-91820952D01*
X209653142Y-91868571D01*
X209748380Y-90297142D02*
X209748380Y-90868571D01*
X209748380Y-90582857D02*
X208748380Y-90582857D01*
X208891238Y-90678095D01*
X208986476Y-90773333D01*
X209034095Y-90868571D01*
%TO.C,J25*%
X201120476Y-117816380D02*
X201120476Y-118530666D01*
X201072857Y-118673523D01*
X200977619Y-118768761D01*
X200834761Y-118816380D01*
X200739523Y-118816380D01*
X201549047Y-117911619D02*
X201596666Y-117864000D01*
X201691904Y-117816380D01*
X201930000Y-117816380D01*
X202025238Y-117864000D01*
X202072857Y-117911619D01*
X202120476Y-118006857D01*
X202120476Y-118102095D01*
X202072857Y-118244952D01*
X201501428Y-118816380D01*
X202120476Y-118816380D01*
X203025238Y-117816380D02*
X202549047Y-117816380D01*
X202501428Y-118292571D01*
X202549047Y-118244952D01*
X202644285Y-118197333D01*
X202882380Y-118197333D01*
X202977619Y-118244952D01*
X203025238Y-118292571D01*
X203072857Y-118387809D01*
X203072857Y-118625904D01*
X203025238Y-118721142D01*
X202977619Y-118768761D01*
X202882380Y-118816380D01*
X202644285Y-118816380D01*
X202549047Y-118768761D01*
X202501428Y-118721142D01*
%TO.C,J26*%
X222710476Y-117816380D02*
X222710476Y-118530666D01*
X222662857Y-118673523D01*
X222567619Y-118768761D01*
X222424761Y-118816380D01*
X222329523Y-118816380D01*
X223139047Y-117911619D02*
X223186666Y-117864000D01*
X223281904Y-117816380D01*
X223520000Y-117816380D01*
X223615238Y-117864000D01*
X223662857Y-117911619D01*
X223710476Y-118006857D01*
X223710476Y-118102095D01*
X223662857Y-118244952D01*
X223091428Y-118816380D01*
X223710476Y-118816380D01*
X224567619Y-117816380D02*
X224377142Y-117816380D01*
X224281904Y-117864000D01*
X224234285Y-117911619D01*
X224139047Y-118054476D01*
X224091428Y-118244952D01*
X224091428Y-118625904D01*
X224139047Y-118721142D01*
X224186666Y-118768761D01*
X224281904Y-118816380D01*
X224472380Y-118816380D01*
X224567619Y-118768761D01*
X224615238Y-118721142D01*
X224662857Y-118625904D01*
X224662857Y-118387809D01*
X224615238Y-118292571D01*
X224567619Y-118244952D01*
X224472380Y-118197333D01*
X224281904Y-118197333D01*
X224186666Y-118244952D01*
X224139047Y-118292571D01*
X224091428Y-118387809D01*
%TO.C,J32*%
X230338380Y-92249523D02*
X231052666Y-92249523D01*
X231195523Y-92297142D01*
X231290761Y-92392380D01*
X231338380Y-92535238D01*
X231338380Y-92630476D01*
X230338380Y-91868571D02*
X230338380Y-91249523D01*
X230719333Y-91582857D01*
X230719333Y-91440000D01*
X230766952Y-91344761D01*
X230814571Y-91297142D01*
X230909809Y-91249523D01*
X231147904Y-91249523D01*
X231243142Y-91297142D01*
X231290761Y-91344761D01*
X231338380Y-91440000D01*
X231338380Y-91725714D01*
X231290761Y-91820952D01*
X231243142Y-91868571D01*
X230433619Y-90868571D02*
X230386000Y-90820952D01*
X230338380Y-90725714D01*
X230338380Y-90487619D01*
X230386000Y-90392380D01*
X230433619Y-90344761D01*
X230528857Y-90297142D01*
X230624095Y-90297142D01*
X230766952Y-90344761D01*
X231338380Y-90916190D01*
X231338380Y-90297142D01*
%TO.C,J29*%
X215606380Y-56689523D02*
X216320666Y-56689523D01*
X216463523Y-56737142D01*
X216558761Y-56832380D01*
X216606380Y-56975238D01*
X216606380Y-57070476D01*
X215701619Y-56260952D02*
X215654000Y-56213333D01*
X215606380Y-56118095D01*
X215606380Y-55880000D01*
X215654000Y-55784761D01*
X215701619Y-55737142D01*
X215796857Y-55689523D01*
X215892095Y-55689523D01*
X216034952Y-55737142D01*
X216606380Y-56308571D01*
X216606380Y-55689523D01*
X216606380Y-55213333D02*
X216606380Y-55022857D01*
X216558761Y-54927619D01*
X216511142Y-54880000D01*
X216368285Y-54784761D01*
X216177809Y-54737142D01*
X215796857Y-54737142D01*
X215701619Y-54784761D01*
X215654000Y-54832380D01*
X215606380Y-54927619D01*
X215606380Y-55118095D01*
X215654000Y-55213333D01*
X215701619Y-55260952D01*
X215796857Y-55308571D01*
X216034952Y-55308571D01*
X216130190Y-55260952D01*
X216177809Y-55213333D01*
X216225428Y-55118095D01*
X216225428Y-54927619D01*
X216177809Y-54832380D01*
X216130190Y-54784761D01*
X216034952Y-54737142D01*
%TO.C,J30*%
X230338380Y-56689523D02*
X231052666Y-56689523D01*
X231195523Y-56737142D01*
X231290761Y-56832380D01*
X231338380Y-56975238D01*
X231338380Y-57070476D01*
X230338380Y-56308571D02*
X230338380Y-55689523D01*
X230719333Y-56022857D01*
X230719333Y-55880000D01*
X230766952Y-55784761D01*
X230814571Y-55737142D01*
X230909809Y-55689523D01*
X231147904Y-55689523D01*
X231243142Y-55737142D01*
X231290761Y-55784761D01*
X231338380Y-55880000D01*
X231338380Y-56165714D01*
X231290761Y-56260952D01*
X231243142Y-56308571D01*
X230338380Y-55070476D02*
X230338380Y-54975238D01*
X230386000Y-54880000D01*
X230433619Y-54832380D01*
X230528857Y-54784761D01*
X230719333Y-54737142D01*
X230957428Y-54737142D01*
X231147904Y-54784761D01*
X231243142Y-54832380D01*
X231290761Y-54880000D01*
X231338380Y-54975238D01*
X231338380Y-55070476D01*
X231290761Y-55165714D01*
X231243142Y-55213333D01*
X231147904Y-55260952D01*
X230957428Y-55308571D01*
X230719333Y-55308571D01*
X230528857Y-55260952D01*
X230433619Y-55213333D01*
X230386000Y-55165714D01*
X230338380Y-55070476D01*
%TO.C,D1*%
X54554380Y-92178095D02*
X53554380Y-92178095D01*
X53554380Y-91940000D01*
X53602000Y-91797142D01*
X53697238Y-91701904D01*
X53792476Y-91654285D01*
X53982952Y-91606666D01*
X54125809Y-91606666D01*
X54316285Y-91654285D01*
X54411523Y-91701904D01*
X54506761Y-91797142D01*
X54554380Y-91940000D01*
X54554380Y-92178095D01*
X54554380Y-90654285D02*
X54554380Y-91225714D01*
X54554380Y-90940000D02*
X53554380Y-90940000D01*
X53697238Y-91035238D01*
X53792476Y-91130476D01*
X53840095Y-91225714D01*
X59802380Y-85351904D02*
X58802380Y-85351904D01*
X59802380Y-84780476D02*
X59230952Y-85209047D01*
X58802380Y-84780476D02*
X59373809Y-85351904D01*
%TO.C,D2*%
X76144380Y-92178095D02*
X75144380Y-92178095D01*
X75144380Y-91940000D01*
X75192000Y-91797142D01*
X75287238Y-91701904D01*
X75382476Y-91654285D01*
X75572952Y-91606666D01*
X75715809Y-91606666D01*
X75906285Y-91654285D01*
X76001523Y-91701904D01*
X76096761Y-91797142D01*
X76144380Y-91940000D01*
X76144380Y-92178095D01*
X75239619Y-91225714D02*
X75192000Y-91178095D01*
X75144380Y-91082857D01*
X75144380Y-90844761D01*
X75192000Y-90749523D01*
X75239619Y-90701904D01*
X75334857Y-90654285D01*
X75430095Y-90654285D01*
X75572952Y-90701904D01*
X76144380Y-91273333D01*
X76144380Y-90654285D01*
X81392380Y-85351904D02*
X80392380Y-85351904D01*
X81392380Y-84780476D02*
X80820952Y-85209047D01*
X80392380Y-84780476D02*
X80963809Y-85351904D01*
%TO.C,D3*%
X101544380Y-92178095D02*
X100544380Y-92178095D01*
X100544380Y-91940000D01*
X100592000Y-91797142D01*
X100687238Y-91701904D01*
X100782476Y-91654285D01*
X100972952Y-91606666D01*
X101115809Y-91606666D01*
X101306285Y-91654285D01*
X101401523Y-91701904D01*
X101496761Y-91797142D01*
X101544380Y-91940000D01*
X101544380Y-92178095D01*
X100544380Y-91273333D02*
X100544380Y-90654285D01*
X100925333Y-90987619D01*
X100925333Y-90844761D01*
X100972952Y-90749523D01*
X101020571Y-90701904D01*
X101115809Y-90654285D01*
X101353904Y-90654285D01*
X101449142Y-90701904D01*
X101496761Y-90749523D01*
X101544380Y-90844761D01*
X101544380Y-91130476D01*
X101496761Y-91225714D01*
X101449142Y-91273333D01*
X106792380Y-85351904D02*
X105792380Y-85351904D01*
X106792380Y-84780476D02*
X106220952Y-85209047D01*
X105792380Y-84780476D02*
X106363809Y-85351904D01*
%TO.C,D4*%
X123134380Y-92178095D02*
X122134380Y-92178095D01*
X122134380Y-91940000D01*
X122182000Y-91797142D01*
X122277238Y-91701904D01*
X122372476Y-91654285D01*
X122562952Y-91606666D01*
X122705809Y-91606666D01*
X122896285Y-91654285D01*
X122991523Y-91701904D01*
X123086761Y-91797142D01*
X123134380Y-91940000D01*
X123134380Y-92178095D01*
X122467714Y-90749523D02*
X123134380Y-90749523D01*
X122086761Y-90987619D02*
X122801047Y-91225714D01*
X122801047Y-90606666D01*
X128382380Y-85351904D02*
X127382380Y-85351904D01*
X128382380Y-84780476D02*
X127810952Y-85209047D01*
X127382380Y-84780476D02*
X127953809Y-85351904D01*
%TO.C,D5*%
X148534380Y-92178095D02*
X147534380Y-92178095D01*
X147534380Y-91940000D01*
X147582000Y-91797142D01*
X147677238Y-91701904D01*
X147772476Y-91654285D01*
X147962952Y-91606666D01*
X148105809Y-91606666D01*
X148296285Y-91654285D01*
X148391523Y-91701904D01*
X148486761Y-91797142D01*
X148534380Y-91940000D01*
X148534380Y-92178095D01*
X147534380Y-90701904D02*
X147534380Y-91178095D01*
X148010571Y-91225714D01*
X147962952Y-91178095D01*
X147915333Y-91082857D01*
X147915333Y-90844761D01*
X147962952Y-90749523D01*
X148010571Y-90701904D01*
X148105809Y-90654285D01*
X148343904Y-90654285D01*
X148439142Y-90701904D01*
X148486761Y-90749523D01*
X148534380Y-90844761D01*
X148534380Y-91082857D01*
X148486761Y-91178095D01*
X148439142Y-91225714D01*
X153782380Y-85351904D02*
X152782380Y-85351904D01*
X153782380Y-84780476D02*
X153210952Y-85209047D01*
X152782380Y-84780476D02*
X153353809Y-85351904D01*
%TO.C,D6*%
X170124380Y-92178095D02*
X169124380Y-92178095D01*
X169124380Y-91940000D01*
X169172000Y-91797142D01*
X169267238Y-91701904D01*
X169362476Y-91654285D01*
X169552952Y-91606666D01*
X169695809Y-91606666D01*
X169886285Y-91654285D01*
X169981523Y-91701904D01*
X170076761Y-91797142D01*
X170124380Y-91940000D01*
X170124380Y-92178095D01*
X169124380Y-90749523D02*
X169124380Y-90940000D01*
X169172000Y-91035238D01*
X169219619Y-91082857D01*
X169362476Y-91178095D01*
X169552952Y-91225714D01*
X169933904Y-91225714D01*
X170029142Y-91178095D01*
X170076761Y-91130476D01*
X170124380Y-91035238D01*
X170124380Y-90844761D01*
X170076761Y-90749523D01*
X170029142Y-90701904D01*
X169933904Y-90654285D01*
X169695809Y-90654285D01*
X169600571Y-90701904D01*
X169552952Y-90749523D01*
X169505333Y-90844761D01*
X169505333Y-91035238D01*
X169552952Y-91130476D01*
X169600571Y-91178095D01*
X169695809Y-91225714D01*
X175372380Y-85351904D02*
X174372380Y-85351904D01*
X175372380Y-84780476D02*
X174800952Y-85209047D01*
X174372380Y-84780476D02*
X174943809Y-85351904D01*
%TO.C,D7*%
X195524380Y-92178095D02*
X194524380Y-92178095D01*
X194524380Y-91940000D01*
X194572000Y-91797142D01*
X194667238Y-91701904D01*
X194762476Y-91654285D01*
X194952952Y-91606666D01*
X195095809Y-91606666D01*
X195286285Y-91654285D01*
X195381523Y-91701904D01*
X195476761Y-91797142D01*
X195524380Y-91940000D01*
X195524380Y-92178095D01*
X194524380Y-91273333D02*
X194524380Y-90606666D01*
X195524380Y-91035238D01*
X200772380Y-85351904D02*
X199772380Y-85351904D01*
X200772380Y-84780476D02*
X200200952Y-85209047D01*
X199772380Y-84780476D02*
X200343809Y-85351904D01*
%TO.C,D8*%
X217114380Y-92178095D02*
X216114380Y-92178095D01*
X216114380Y-91940000D01*
X216162000Y-91797142D01*
X216257238Y-91701904D01*
X216352476Y-91654285D01*
X216542952Y-91606666D01*
X216685809Y-91606666D01*
X216876285Y-91654285D01*
X216971523Y-91701904D01*
X217066761Y-91797142D01*
X217114380Y-91940000D01*
X217114380Y-92178095D01*
X216542952Y-91035238D02*
X216495333Y-91130476D01*
X216447714Y-91178095D01*
X216352476Y-91225714D01*
X216304857Y-91225714D01*
X216209619Y-91178095D01*
X216162000Y-91130476D01*
X216114380Y-91035238D01*
X216114380Y-90844761D01*
X216162000Y-90749523D01*
X216209619Y-90701904D01*
X216304857Y-90654285D01*
X216352476Y-90654285D01*
X216447714Y-90701904D01*
X216495333Y-90749523D01*
X216542952Y-90844761D01*
X216542952Y-91035238D01*
X216590571Y-91130476D01*
X216638190Y-91178095D01*
X216733428Y-91225714D01*
X216923904Y-91225714D01*
X217019142Y-91178095D01*
X217066761Y-91130476D01*
X217114380Y-91035238D01*
X217114380Y-90844761D01*
X217066761Y-90749523D01*
X217019142Y-90701904D01*
X216923904Y-90654285D01*
X216733428Y-90654285D01*
X216638190Y-90701904D01*
X216590571Y-90749523D01*
X216542952Y-90844761D01*
X222362380Y-85351904D02*
X221362380Y-85351904D01*
X222362380Y-84780476D02*
X221790952Y-85209047D01*
X221362380Y-84780476D02*
X221933809Y-85351904D01*
%TD*%
M02*
