%TF.GenerationSoftware,KiCad,Pcbnew,(5.1.10)-1*%
%TF.CreationDate,2021-08-28T09:33:30-05:00*%
%TF.ProjectId,Relay-Module,52656c61-792d-44d6-9f64-756c652e6b69,rev?*%
%TF.SameCoordinates,Original*%
%TF.FileFunction,Copper,L1,Top*%
%TF.FilePolarity,Positive*%
%FSLAX46Y46*%
G04 Gerber Fmt 4.6, Leading zero omitted, Abs format (unit mm)*
G04 Created by KiCad (PCBNEW (5.1.10)-1) date 2021-08-28 09:33:30*
%MOMM*%
%LPD*%
G01*
G04 APERTURE LIST*
%TA.AperFunction,ComponentPad*%
%ADD10C,2.794000*%
%TD*%
%TA.AperFunction,ComponentPad*%
%ADD11O,2.400000X2.400000*%
%TD*%
%TA.AperFunction,ComponentPad*%
%ADD12R,2.400000X2.400000*%
%TD*%
%TA.AperFunction,Conductor*%
%ADD13C,0.250000*%
%TD*%
G04 APERTURE END LIST*
D10*
%TO.P,K1,4*%
%TO.N,Net-(D1-Pad1)*%
X57150000Y-77470000D03*
%TO.P,K1,3*%
%TO.N,Net-(J7-Pad1)*%
X64770000Y-80010000D03*
%TO.P,K1,2*%
%TO.N,Net-(J3-Pad2)*%
X57150000Y-64770000D03*
%TO.P,K1,1*%
%TO.N,Net-(J3-Pad1)*%
X64770000Y-64770000D03*
%TD*%
%TO.P,K2,4*%
%TO.N,Net-(D2-Pad1)*%
X78740000Y-77470000D03*
%TO.P,K2,3*%
%TO.N,Net-(J8-Pad1)*%
X86360000Y-80010000D03*
%TO.P,K2,2*%
%TO.N,Net-(J5-Pad2)*%
X78740000Y-64770000D03*
%TO.P,K2,1*%
%TO.N,Net-(J5-Pad1)*%
X86360000Y-64770000D03*
%TD*%
%TO.P,K3,4*%
%TO.N,Net-(D3-Pad1)*%
X104140000Y-77470000D03*
%TO.P,K3,3*%
%TO.N,Net-(J15-Pad1)*%
X111760000Y-80010000D03*
%TO.P,K3,2*%
%TO.N,Net-(J11-Pad2)*%
X104140000Y-64770000D03*
%TO.P,K3,1*%
%TO.N,Net-(J11-Pad1)*%
X111760000Y-64770000D03*
%TD*%
%TO.P,K4,4*%
%TO.N,Net-(D4-Pad1)*%
X125730000Y-77470000D03*
%TO.P,K4,3*%
%TO.N,Net-(J16-Pad1)*%
X133350000Y-80010000D03*
%TO.P,K4,2*%
%TO.N,Net-(J13-Pad2)*%
X125730000Y-64770000D03*
%TO.P,K4,1*%
%TO.N,Net-(J13-Pad1)*%
X133350000Y-64770000D03*
%TD*%
%TO.P,K5,4*%
%TO.N,Net-(D5-Pad1)*%
X151130000Y-77470000D03*
%TO.P,K5,3*%
%TO.N,Net-(J23-Pad1)*%
X158750000Y-80010000D03*
%TO.P,K5,2*%
%TO.N,Net-(J19-Pad2)*%
X151130000Y-64770000D03*
%TO.P,K5,1*%
%TO.N,Net-(J19-Pad1)*%
X158750000Y-64770000D03*
%TD*%
%TO.P,K6,4*%
%TO.N,Net-(D6-Pad1)*%
X172720000Y-77470000D03*
%TO.P,K6,3*%
%TO.N,Net-(J24-Pad1)*%
X180340000Y-80010000D03*
%TO.P,K6,2*%
%TO.N,Net-(J21-Pad2)*%
X172720000Y-64770000D03*
%TO.P,K6,1*%
%TO.N,Net-(J21-Pad1)*%
X180340000Y-64770000D03*
%TD*%
%TO.P,K7,4*%
%TO.N,Net-(D7-Pad1)*%
X198120000Y-77470000D03*
%TO.P,K7,3*%
%TO.N,Net-(J31-Pad1)*%
X205740000Y-80010000D03*
%TO.P,K7,2*%
%TO.N,Net-(J27-Pad2)*%
X198120000Y-64770000D03*
%TO.P,K7,1*%
%TO.N,Net-(J27-Pad1)*%
X205740000Y-64770000D03*
%TD*%
%TO.P,K8,4*%
%TO.N,Net-(D8-Pad1)*%
X219710000Y-77470000D03*
%TO.P,K8,3*%
%TO.N,Net-(J32-Pad1)*%
X227330000Y-80010000D03*
%TO.P,K8,2*%
%TO.N,Net-(J29-Pad2)*%
X219710000Y-64770000D03*
%TO.P,K8,1*%
%TO.N,Net-(J29-Pad1)*%
X227330000Y-64770000D03*
%TD*%
%TO.P,J1,3*%
%TO.N,GND*%
X56769000Y-113030000D03*
%TO.P,J1,1*%
%TO.N,Net-(D1-Pad2)*%
X65151000Y-113030000D03*
%TO.P,J1,2*%
%TO.N,Net-(D1-Pad1)*%
X60960000Y-113030000D03*
%TD*%
%TO.P,J7,1*%
%TO.N,Net-(J7-Pad1)*%
X64770000Y-88646000D03*
%TO.P,J7,2*%
%TO.N,Net-(D1-Pad2)*%
X64770000Y-94234000D03*
%TD*%
%TO.P,J3,1*%
%TO.N,Net-(J3-Pad1)*%
X57150000Y-58674000D03*
%TO.P,J3,2*%
%TO.N,Net-(J3-Pad2)*%
X57150000Y-53086000D03*
%TD*%
%TO.P,J4,1*%
%TO.N,Net-(J3-Pad1)*%
X64770000Y-58674000D03*
%TO.P,J4,2*%
%TO.N,Net-(J3-Pad2)*%
X64770000Y-53086000D03*
%TD*%
%TO.P,J2,3*%
%TO.N,GND*%
X78359000Y-113030000D03*
%TO.P,J2,1*%
%TO.N,Net-(D2-Pad2)*%
X86741000Y-113030000D03*
%TO.P,J2,2*%
%TO.N,Net-(D2-Pad1)*%
X82550000Y-113030000D03*
%TD*%
%TO.P,J8,1*%
%TO.N,Net-(J8-Pad1)*%
X86360000Y-88646000D03*
%TO.P,J8,2*%
%TO.N,Net-(D2-Pad2)*%
X86360000Y-94234000D03*
%TD*%
%TO.P,J5,1*%
%TO.N,Net-(J5-Pad1)*%
X78740000Y-58674000D03*
%TO.P,J5,2*%
%TO.N,Net-(J5-Pad2)*%
X78740000Y-53086000D03*
%TD*%
%TO.P,J6,1*%
%TO.N,Net-(J5-Pad1)*%
X86360000Y-58674000D03*
%TO.P,J6,2*%
%TO.N,Net-(J5-Pad2)*%
X86360000Y-53086000D03*
%TD*%
%TO.P,J9,3*%
%TO.N,GND*%
X103759000Y-113030000D03*
%TO.P,J9,1*%
%TO.N,Net-(D3-Pad2)*%
X112141000Y-113030000D03*
%TO.P,J9,2*%
%TO.N,Net-(D3-Pad1)*%
X107950000Y-113030000D03*
%TD*%
%TO.P,J15,1*%
%TO.N,Net-(J15-Pad1)*%
X111760000Y-88646000D03*
%TO.P,J15,2*%
%TO.N,Net-(D3-Pad2)*%
X111760000Y-94234000D03*
%TD*%
%TO.P,J11,1*%
%TO.N,Net-(J11-Pad1)*%
X104140000Y-58674000D03*
%TO.P,J11,2*%
%TO.N,Net-(J11-Pad2)*%
X104140000Y-53086000D03*
%TD*%
%TO.P,J12,1*%
%TO.N,Net-(J11-Pad1)*%
X111760000Y-58674000D03*
%TO.P,J12,2*%
%TO.N,Net-(J11-Pad2)*%
X111760000Y-53086000D03*
%TD*%
%TO.P,J10,3*%
%TO.N,GND*%
X125349000Y-113030000D03*
%TO.P,J10,1*%
%TO.N,Net-(D4-Pad2)*%
X133731000Y-113030000D03*
%TO.P,J10,2*%
%TO.N,Net-(D4-Pad1)*%
X129540000Y-113030000D03*
%TD*%
%TO.P,J16,1*%
%TO.N,Net-(J16-Pad1)*%
X133350000Y-88646000D03*
%TO.P,J16,2*%
%TO.N,Net-(D4-Pad2)*%
X133350000Y-94234000D03*
%TD*%
%TO.P,J13,1*%
%TO.N,Net-(J13-Pad1)*%
X125730000Y-58674000D03*
%TO.P,J13,2*%
%TO.N,Net-(J13-Pad2)*%
X125730000Y-53086000D03*
%TD*%
%TO.P,J14,1*%
%TO.N,Net-(J13-Pad1)*%
X133350000Y-58674000D03*
%TO.P,J14,2*%
%TO.N,Net-(J13-Pad2)*%
X133350000Y-53086000D03*
%TD*%
%TO.P,J17,3*%
%TO.N,GND*%
X150749000Y-113030000D03*
%TO.P,J17,1*%
%TO.N,Net-(D5-Pad2)*%
X159131000Y-113030000D03*
%TO.P,J17,2*%
%TO.N,Net-(D5-Pad1)*%
X154940000Y-113030000D03*
%TD*%
%TO.P,J23,1*%
%TO.N,Net-(J23-Pad1)*%
X158750000Y-88646000D03*
%TO.P,J23,2*%
%TO.N,Net-(D5-Pad2)*%
X158750000Y-94234000D03*
%TD*%
%TO.P,J19,1*%
%TO.N,Net-(J19-Pad1)*%
X151130000Y-58674000D03*
%TO.P,J19,2*%
%TO.N,Net-(J19-Pad2)*%
X151130000Y-53086000D03*
%TD*%
%TO.P,J20,1*%
%TO.N,Net-(J19-Pad1)*%
X158750000Y-58674000D03*
%TO.P,J20,2*%
%TO.N,Net-(J19-Pad2)*%
X158750000Y-53086000D03*
%TD*%
%TO.P,J18,3*%
%TO.N,GND*%
X172339000Y-113030000D03*
%TO.P,J18,1*%
%TO.N,Net-(D6-Pad2)*%
X180721000Y-113030000D03*
%TO.P,J18,2*%
%TO.N,Net-(D6-Pad1)*%
X176530000Y-113030000D03*
%TD*%
%TO.P,J24,1*%
%TO.N,Net-(J24-Pad1)*%
X180340000Y-88646000D03*
%TO.P,J24,2*%
%TO.N,Net-(D6-Pad2)*%
X180340000Y-94234000D03*
%TD*%
%TO.P,J21,1*%
%TO.N,Net-(J21-Pad1)*%
X172720000Y-58674000D03*
%TO.P,J21,2*%
%TO.N,Net-(J21-Pad2)*%
X172720000Y-53086000D03*
%TD*%
%TO.P,J22,1*%
%TO.N,Net-(J21-Pad1)*%
X180340000Y-58674000D03*
%TO.P,J22,2*%
%TO.N,Net-(J21-Pad2)*%
X180340000Y-53086000D03*
%TD*%
%TO.P,J27,1*%
%TO.N,Net-(J27-Pad1)*%
X198120000Y-58674000D03*
%TO.P,J27,2*%
%TO.N,Net-(J27-Pad2)*%
X198120000Y-53086000D03*
%TD*%
%TO.P,J28,1*%
%TO.N,Net-(J27-Pad1)*%
X205740000Y-58674000D03*
%TO.P,J28,2*%
%TO.N,Net-(J27-Pad2)*%
X205740000Y-53086000D03*
%TD*%
%TO.P,J31,1*%
%TO.N,Net-(J31-Pad1)*%
X205740000Y-88646000D03*
%TO.P,J31,2*%
%TO.N,Net-(D7-Pad2)*%
X205740000Y-94234000D03*
%TD*%
%TO.P,J25,3*%
%TO.N,GND*%
X197739000Y-113030000D03*
%TO.P,J25,1*%
%TO.N,Net-(D7-Pad2)*%
X206121000Y-113030000D03*
%TO.P,J25,2*%
%TO.N,Net-(D7-Pad1)*%
X201930000Y-113030000D03*
%TD*%
%TO.P,J26,3*%
%TO.N,GND*%
X219329000Y-113030000D03*
%TO.P,J26,1*%
%TO.N,Net-(D8-Pad2)*%
X227711000Y-113030000D03*
%TO.P,J26,2*%
%TO.N,Net-(D8-Pad1)*%
X223520000Y-113030000D03*
%TD*%
%TO.P,J32,1*%
%TO.N,Net-(J32-Pad1)*%
X227330000Y-88646000D03*
%TO.P,J32,2*%
%TO.N,Net-(D8-Pad2)*%
X227330000Y-94234000D03*
%TD*%
%TO.P,J29,1*%
%TO.N,Net-(J29-Pad1)*%
X219710000Y-58674000D03*
%TO.P,J29,2*%
%TO.N,Net-(J29-Pad2)*%
X219710000Y-53086000D03*
%TD*%
%TO.P,J30,1*%
%TO.N,Net-(J29-Pad1)*%
X227330000Y-58674000D03*
%TO.P,J30,2*%
%TO.N,Net-(J29-Pad2)*%
X227330000Y-53086000D03*
%TD*%
D11*
%TO.P,D1,2*%
%TO.N,Net-(D1-Pad2)*%
X57150000Y-97790000D03*
D12*
%TO.P,D1,1*%
%TO.N,Net-(D1-Pad1)*%
X57150000Y-85090000D03*
%TD*%
%TO.P,D2,1*%
%TO.N,Net-(D2-Pad1)*%
X78740000Y-85090000D03*
D11*
%TO.P,D2,2*%
%TO.N,Net-(D2-Pad2)*%
X78740000Y-97790000D03*
%TD*%
%TO.P,D3,2*%
%TO.N,Net-(D3-Pad2)*%
X104140000Y-97790000D03*
D12*
%TO.P,D3,1*%
%TO.N,Net-(D3-Pad1)*%
X104140000Y-85090000D03*
%TD*%
%TO.P,D4,1*%
%TO.N,Net-(D4-Pad1)*%
X125730000Y-85090000D03*
D11*
%TO.P,D4,2*%
%TO.N,Net-(D4-Pad2)*%
X125730000Y-97790000D03*
%TD*%
D12*
%TO.P,D5,1*%
%TO.N,Net-(D5-Pad1)*%
X151130000Y-85090000D03*
D11*
%TO.P,D5,2*%
%TO.N,Net-(D5-Pad2)*%
X151130000Y-97790000D03*
%TD*%
D12*
%TO.P,D6,1*%
%TO.N,Net-(D6-Pad1)*%
X172720000Y-85090000D03*
D11*
%TO.P,D6,2*%
%TO.N,Net-(D6-Pad2)*%
X172720000Y-97790000D03*
%TD*%
%TO.P,D7,2*%
%TO.N,Net-(D7-Pad2)*%
X198120000Y-97790000D03*
D12*
%TO.P,D7,1*%
%TO.N,Net-(D7-Pad1)*%
X198120000Y-85090000D03*
%TD*%
D11*
%TO.P,D8,2*%
%TO.N,Net-(D8-Pad2)*%
X219710000Y-97790000D03*
D12*
%TO.P,D8,1*%
%TO.N,Net-(D8-Pad1)*%
X219710000Y-85090000D03*
%TD*%
D13*
%TO.N,Net-(D1-Pad1)*%
X60960000Y-88900000D02*
X57150000Y-85090000D01*
X57150000Y-77470000D02*
X57150000Y-85090000D01*
X60960000Y-113030000D02*
X60960000Y-107315000D01*
X60960000Y-107315000D02*
X60960000Y-88900000D01*
X60960000Y-107950000D02*
X60960000Y-107315000D01*
%TO.N,Net-(D2-Pad1)*%
X82550000Y-88900000D02*
X78740000Y-85090000D01*
X78740000Y-77470000D02*
X78740000Y-85090000D01*
X82550000Y-107315000D02*
X82550000Y-88900000D01*
X82550000Y-113030000D02*
X82550000Y-107315000D01*
X82550000Y-107950000D02*
X82550000Y-107315000D01*
%TO.N,Net-(D3-Pad1)*%
X107950000Y-88900000D02*
X104140000Y-85090000D01*
X104140000Y-77470000D02*
X104140000Y-85090000D01*
X107950000Y-105410000D02*
X107950000Y-103505000D01*
X107950000Y-113030000D02*
X107950000Y-105410000D01*
X107950000Y-103505000D02*
X107950000Y-88900000D01*
X107950000Y-107950000D02*
X107950000Y-103505000D01*
%TO.N,Net-(D4-Pad1)*%
X125730000Y-77470000D02*
X125730000Y-85090000D01*
X129540000Y-88900000D02*
X125730000Y-85090000D01*
X129540000Y-113030000D02*
X129540000Y-88900000D01*
%TO.N,Net-(D5-Pad1)*%
X154940000Y-88900000D02*
X151130000Y-85090000D01*
X151130000Y-77470000D02*
X151130000Y-85090000D01*
X154940000Y-113030000D02*
X154940000Y-107315000D01*
X154940000Y-107315000D02*
X154940000Y-88900000D01*
X154940000Y-107950000D02*
X154940000Y-107315000D01*
%TO.N,Net-(D6-Pad1)*%
X172720000Y-77470000D02*
X172720000Y-85090000D01*
X176530000Y-88900000D02*
X172720000Y-85090000D01*
X176530000Y-113030000D02*
X176530000Y-88900000D01*
%TO.N,Net-(D7-Pad1)*%
X198120000Y-77470000D02*
X198120000Y-85090000D01*
X201930000Y-88900000D02*
X198120000Y-85090000D01*
X201930000Y-113030000D02*
X201930000Y-88900000D01*
%TO.N,Net-(D8-Pad1)*%
X219710000Y-85090000D02*
X219710000Y-77470000D01*
X223520000Y-88900000D02*
X219710000Y-85090000D01*
X223520000Y-113030000D02*
X223520000Y-88900000D01*
%TO.N,Net-(J3-Pad1)*%
X64770000Y-64770000D02*
X64770000Y-62230000D01*
X60528200Y-57988200D02*
X60121800Y-57988200D01*
X64770000Y-62230000D02*
X60528200Y-57988200D01*
X60121800Y-57988200D02*
X60553600Y-57988200D01*
X57150000Y-57988200D02*
X60121800Y-57988200D01*
X60553600Y-57988200D02*
X64770000Y-57988200D01*
%TO.N,Net-(J5-Pad1)*%
X78740000Y-57988200D02*
X82143600Y-57988200D01*
X86360000Y-62204600D02*
X82143600Y-57988200D01*
X86360000Y-64770000D02*
X86360000Y-62204600D01*
X86360000Y-57988200D02*
X82143600Y-57988200D01*
%TO.N,Net-(J7-Pad1)*%
X64770000Y-80010000D02*
X64770000Y-89331800D01*
%TO.N,Net-(J8-Pad1)*%
X86360000Y-80010000D02*
X86360000Y-89331800D01*
%TO.N,Net-(J11-Pad1)*%
X111760000Y-62230000D02*
X107518200Y-57988200D01*
X111760000Y-64770000D02*
X111760000Y-62230000D01*
X107518200Y-57988200D02*
X107543600Y-57988200D01*
X104140000Y-57988200D02*
X107518200Y-57988200D01*
X107518200Y-57988200D02*
X111760000Y-57988200D01*
%TO.N,Net-(J13-Pad1)*%
X133350000Y-62204600D02*
X129133600Y-57988200D01*
X133350000Y-64770000D02*
X133350000Y-62204600D01*
X133350000Y-57988200D02*
X129108200Y-57988200D01*
X129108200Y-57988200D02*
X129133600Y-57988200D01*
X125730000Y-57988200D02*
X129108200Y-57988200D01*
%TO.N,Net-(J15-Pad1)*%
X111760000Y-80010000D02*
X111760000Y-89331800D01*
%TO.N,Net-(J16-Pad1)*%
X133350000Y-80010000D02*
X133350000Y-89331800D01*
%TO.N,Net-(J19-Pad1)*%
X158750000Y-62230000D02*
X154508200Y-57988200D01*
X158750000Y-64770000D02*
X158750000Y-62230000D01*
X154508200Y-57988200D02*
X154533600Y-57988200D01*
X151130000Y-57988200D02*
X154508200Y-57988200D01*
X158750000Y-57988200D02*
X154508200Y-57988200D01*
%TO.N,Net-(J21-Pad1)*%
X172720000Y-57988200D02*
X176123600Y-57988200D01*
X180340000Y-62204600D02*
X176123600Y-57988200D01*
X180340000Y-64770000D02*
X180340000Y-62204600D01*
X180340000Y-57988200D02*
X176123600Y-57988200D01*
%TO.N,Net-(J23-Pad1)*%
X158750000Y-80010000D02*
X158750000Y-89331800D01*
%TO.N,Net-(J24-Pad1)*%
X180340000Y-80010000D02*
X180340000Y-89331800D01*
%TO.N,Net-(J27-Pad1)*%
X205740000Y-62230000D02*
X201498200Y-57988200D01*
X205740000Y-64770000D02*
X205740000Y-62230000D01*
X201498200Y-57988200D02*
X201523600Y-57988200D01*
X198120000Y-57988200D02*
X201498200Y-57988200D01*
X205740000Y-57988200D02*
X201498200Y-57988200D01*
%TO.N,Net-(J29-Pad1)*%
X227330000Y-62230000D02*
X223088200Y-57988200D01*
X227330000Y-64770000D02*
X227330000Y-62230000D01*
X219710000Y-57988200D02*
X223088200Y-57988200D01*
X227330000Y-57988200D02*
X223088200Y-57988200D01*
%TO.N,Net-(J31-Pad1)*%
X205740000Y-80010000D02*
X205740000Y-89331800D01*
%TO.N,Net-(J32-Pad1)*%
X227330000Y-89331800D02*
X227330000Y-80010000D01*
%TD*%
M02*
