%TF.GenerationSoftware,KiCad,Pcbnew,(5.1.10)-1*%
%TF.CreationDate,2022-01-22T17:54:26-06:00*%
%TF.ProjectId,Digital-Output-Module,44696769-7461-46c2-9d4f-75747075742d,Rev. A*%
%TF.SameCoordinates,Original*%
%TF.FileFunction,Soldermask,Bot*%
%TF.FilePolarity,Negative*%
%FSLAX46Y46*%
G04 Gerber Fmt 4.6, Leading zero omitted, Abs format (unit mm)*
G04 Created by KiCad (PCBNEW (5.1.10)-1) date 2022-01-22 17:54:26*
%MOMM*%
%LPD*%
G01*
G04 APERTURE LIST*
%ADD10C,2.794000*%
%ADD11C,2.184400*%
%ADD12C,3.048000*%
G04 APERTURE END LIST*
D10*
%TO.C,J1*%
X54864000Y-60960000D03*
X49276000Y-60960000D03*
%TD*%
%TO.C,J2*%
X49276000Y-68580000D03*
X54864000Y-68580000D03*
%TD*%
%TO.C,J3*%
X54864000Y-76200000D03*
X49276000Y-76200000D03*
%TD*%
%TO.C,J4*%
X49276000Y-83820000D03*
X54864000Y-83820000D03*
%TD*%
%TO.C,J5*%
X74676000Y-60960000D03*
X80264000Y-60960000D03*
%TD*%
%TO.C,J6*%
X80264000Y-68580000D03*
X74676000Y-68580000D03*
%TD*%
%TO.C,J7*%
X74676000Y-76200000D03*
X80264000Y-76200000D03*
%TD*%
%TO.C,J8*%
X80264000Y-83820000D03*
X74676000Y-83820000D03*
%TD*%
D11*
%TO.C,J9*%
X88900000Y-44602400D03*
X91668600Y-44602400D03*
X94437200Y-44602400D03*
X97205800Y-44602400D03*
X99974400Y-44602400D03*
X102743000Y-44602400D03*
X105511600Y-44602400D03*
X108280200Y-44602400D03*
X111048800Y-44602400D03*
X113817400Y-44602400D03*
X80594200Y-44602400D03*
X77825600Y-44602400D03*
X86131400Y-44602400D03*
X83362800Y-44602400D03*
X72288400Y-44602400D03*
X69519800Y-44602400D03*
X63982600Y-44602400D03*
X66751200Y-44602400D03*
X75057000Y-44602400D03*
X112433100Y-41757600D03*
X109664500Y-41757600D03*
X95821500Y-41757600D03*
X101358700Y-41757600D03*
X93052900Y-41757600D03*
X104127300Y-41757600D03*
X106895900Y-41757600D03*
X90284300Y-41757600D03*
X98590100Y-41757600D03*
X79209900Y-41757600D03*
X70904100Y-41757600D03*
X81978500Y-41757600D03*
X65366900Y-41757600D03*
X68135500Y-41757600D03*
X76441300Y-41757600D03*
X84747100Y-41757600D03*
X73672700Y-41757600D03*
X87515700Y-41757600D03*
D12*
X120650000Y-43180000D03*
X57150000Y-43180000D03*
%TD*%
D10*
%TO.C,J10*%
X103124000Y-83820000D03*
X97536000Y-83820000D03*
%TD*%
%TO.C,J11*%
X97536000Y-76200000D03*
X103124000Y-76200000D03*
%TD*%
%TO.C,J12*%
X103124000Y-68580000D03*
X97536000Y-68580000D03*
%TD*%
%TO.C,J13*%
X97536000Y-60960000D03*
X103124000Y-60960000D03*
%TD*%
%TO.C,J14*%
X122936000Y-83820000D03*
X128524000Y-83820000D03*
%TD*%
%TO.C,J15*%
X128524000Y-76200000D03*
X122936000Y-76200000D03*
%TD*%
%TO.C,J16*%
X122936000Y-68580000D03*
X128524000Y-68580000D03*
%TD*%
%TO.C,J17*%
X128524000Y-60960000D03*
X122936000Y-60960000D03*
%TD*%
M02*
