%TF.GenerationSoftware,KiCad,Pcbnew,(5.1.10)-1*%
%TF.CreationDate,2022-01-22T17:54:24-06:00*%
%TF.ProjectId,Digital-Output-Module,44696769-7461-46c2-9d4f-75747075742d,Rev. A*%
%TF.SameCoordinates,Original*%
%TF.FileFunction,Copper,L2,Bot*%
%TF.FilePolarity,Positive*%
%FSLAX46Y46*%
G04 Gerber Fmt 4.6, Leading zero omitted, Abs format (unit mm)*
G04 Created by KiCad (PCBNEW (5.1.10)-1) date 2022-01-22 17:54:24*
%MOMM*%
%LPD*%
G01*
G04 APERTURE LIST*
%TA.AperFunction,ComponentPad*%
%ADD10C,2.794000*%
%TD*%
%TA.AperFunction,ComponentPad*%
%ADD11C,2.184400*%
%TD*%
%TA.AperFunction,Conductor*%
%ADD12C,0.762000*%
%TD*%
G04 APERTURE END LIST*
D10*
%TO.P,J1,1*%
%TO.N,Net-(J1-Pad1)*%
X54864000Y-60960000D03*
%TO.P,J1,2*%
%TO.N,Net-(J1-Pad2)*%
X49276000Y-60960000D03*
%TD*%
%TO.P,J2,2*%
%TO.N,Net-(J1-Pad2)*%
X49276000Y-68580000D03*
%TO.P,J2,1*%
%TO.N,Net-(J2-Pad1)*%
X54864000Y-68580000D03*
%TD*%
%TO.P,J3,1*%
%TO.N,Net-(J3-Pad1)*%
X54864000Y-76200000D03*
%TO.P,J3,2*%
%TO.N,Net-(J1-Pad2)*%
X49276000Y-76200000D03*
%TD*%
%TO.P,J4,2*%
%TO.N,Net-(J1-Pad2)*%
X49276000Y-83820000D03*
%TO.P,J4,1*%
%TO.N,Net-(J4-Pad1)*%
X54864000Y-83820000D03*
%TD*%
%TO.P,J5,2*%
%TO.N,Net-(J5-Pad2)*%
X74676000Y-60960000D03*
%TO.P,J5,1*%
%TO.N,Net-(J5-Pad1)*%
X80264000Y-60960000D03*
%TD*%
%TO.P,J6,1*%
%TO.N,Net-(J6-Pad1)*%
X80264000Y-68580000D03*
%TO.P,J6,2*%
%TO.N,Net-(J5-Pad2)*%
X74676000Y-68580000D03*
%TD*%
%TO.P,J7,2*%
%TO.N,Net-(J5-Pad2)*%
X74676000Y-76200000D03*
%TO.P,J7,1*%
%TO.N,Net-(J7-Pad1)*%
X80264000Y-76200000D03*
%TD*%
%TO.P,J8,1*%
%TO.N,Net-(J8-Pad1)*%
X80264000Y-83820000D03*
%TO.P,J8,2*%
%TO.N,Net-(J5-Pad2)*%
X74676000Y-83820000D03*
%TD*%
D11*
%TO.P,J9,10*%
%TO.N,Net-(J10-Pad2)*%
X88900000Y-44602400D03*
%TO.P,J9,11*%
%TO.N,Net-(J10-Pad1)*%
X91668600Y-44602400D03*
%TO.P,J9,12*%
%TO.N,Net-(J11-Pad1)*%
X94437200Y-44602400D03*
%TO.P,J9,13*%
%TO.N,Net-(J12-Pad1)*%
X97205800Y-44602400D03*
%TO.P,J9,14*%
%TO.N,Net-(J13-Pad1)*%
X99974400Y-44602400D03*
%TO.P,J9,15*%
%TO.N,Net-(J14-Pad1)*%
X102743000Y-44602400D03*
%TO.P,J9,16*%
%TO.N,Net-(J15-Pad1)*%
X105511600Y-44602400D03*
%TO.P,J9,17*%
%TO.N,Net-(J16-Pad1)*%
X108280200Y-44602400D03*
%TO.P,J9,18*%
%TO.N,Net-(J17-Pad1)*%
X111048800Y-44602400D03*
%TO.P,J9,19*%
%TO.N,Net-(J9-Pad19)*%
X113817400Y-44602400D03*
%TO.P,J9,7*%
%TO.N,Net-(J7-Pad1)*%
X80594200Y-44602400D03*
%TO.P,J9,6*%
%TO.N,Net-(J6-Pad1)*%
X77825600Y-44602400D03*
%TO.P,J9,9*%
%TO.N,Net-(J5-Pad2)*%
X86131400Y-44602400D03*
%TO.P,J9,8*%
%TO.N,Net-(J8-Pad1)*%
X83362800Y-44602400D03*
%TO.P,J9,4*%
%TO.N,Net-(J4-Pad1)*%
X72288400Y-44602400D03*
%TO.P,J9,3*%
%TO.N,Net-(J3-Pad1)*%
X69519800Y-44602400D03*
%TO.P,J9,1*%
%TO.N,Net-(J1-Pad1)*%
X63982600Y-44602400D03*
%TO.P,J9,2*%
%TO.N,Net-(J2-Pad1)*%
X66751200Y-44602400D03*
%TO.P,J9,5*%
%TO.N,Net-(J5-Pad1)*%
X75057000Y-44602400D03*
%TO.P,J9,37*%
%TO.N,Net-(J9-Pad37)*%
X112433100Y-41757600D03*
%TO.P,J9,36*%
%TO.N,Net-(J9-Pad36)*%
X109664500Y-41757600D03*
%TO.P,J9,31*%
%TO.N,Net-(J9-Pad31)*%
X95821500Y-41757600D03*
%TO.P,J9,33*%
%TO.N,Net-(J9-Pad33)*%
X101358700Y-41757600D03*
%TO.P,J9,30*%
%TO.N,Net-(J9-Pad30)*%
X93052900Y-41757600D03*
%TO.P,J9,34*%
%TO.N,Net-(J9-Pad34)*%
X104127300Y-41757600D03*
%TO.P,J9,35*%
%TO.N,Net-(J9-Pad35)*%
X106895900Y-41757600D03*
%TO.P,J9,29*%
%TO.N,Net-(J14-Pad2)*%
X90284300Y-41757600D03*
%TO.P,J9,32*%
%TO.N,Net-(J9-Pad32)*%
X98590100Y-41757600D03*
%TO.P,J9,25*%
%TO.N,Net-(J9-Pad25)*%
X79209900Y-41757600D03*
%TO.P,J9,22*%
%TO.N,Net-(J9-Pad22)*%
X70904100Y-41757600D03*
%TO.P,J9,26*%
%TO.N,Net-(J9-Pad26)*%
X81978500Y-41757600D03*
%TO.P,J9,20*%
%TO.N,Net-(J9-Pad20)*%
X65366900Y-41757600D03*
%TO.P,J9,21*%
%TO.N,Net-(J9-Pad21)*%
X68135500Y-41757600D03*
%TO.P,J9,24*%
%TO.N,Net-(J9-Pad24)*%
X76441300Y-41757600D03*
%TO.P,J9,27*%
%TO.N,Net-(J9-Pad27)*%
X84747100Y-41757600D03*
%TO.P,J9,23*%
%TO.N,Net-(J9-Pad23)*%
X73672700Y-41757600D03*
%TO.P,J9,28*%
%TO.N,Net-(J1-Pad2)*%
X87515700Y-41757600D03*
%TD*%
D10*
%TO.P,J10,2*%
%TO.N,Net-(J10-Pad2)*%
X103124000Y-83820000D03*
%TO.P,J10,1*%
%TO.N,Net-(J10-Pad1)*%
X97536000Y-83820000D03*
%TD*%
%TO.P,J11,1*%
%TO.N,Net-(J11-Pad1)*%
X97536000Y-76200000D03*
%TO.P,J11,2*%
%TO.N,Net-(J10-Pad2)*%
X103124000Y-76200000D03*
%TD*%
%TO.P,J12,2*%
%TO.N,Net-(J10-Pad2)*%
X103124000Y-68580000D03*
%TO.P,J12,1*%
%TO.N,Net-(J12-Pad1)*%
X97536000Y-68580000D03*
%TD*%
%TO.P,J13,1*%
%TO.N,Net-(J13-Pad1)*%
X97536000Y-60960000D03*
%TO.P,J13,2*%
%TO.N,Net-(J10-Pad2)*%
X103124000Y-60960000D03*
%TD*%
%TO.P,J14,1*%
%TO.N,Net-(J14-Pad1)*%
X122936000Y-83820000D03*
%TO.P,J14,2*%
%TO.N,Net-(J14-Pad2)*%
X128524000Y-83820000D03*
%TD*%
%TO.P,J15,2*%
%TO.N,Net-(J14-Pad2)*%
X128524000Y-76200000D03*
%TO.P,J15,1*%
%TO.N,Net-(J15-Pad1)*%
X122936000Y-76200000D03*
%TD*%
%TO.P,J16,1*%
%TO.N,Net-(J16-Pad1)*%
X122936000Y-68580000D03*
%TO.P,J16,2*%
%TO.N,Net-(J14-Pad2)*%
X128524000Y-68580000D03*
%TD*%
%TO.P,J17,2*%
%TO.N,Net-(J14-Pad2)*%
X128524000Y-60960000D03*
%TO.P,J17,1*%
%TO.N,Net-(J17-Pad1)*%
X122936000Y-60960000D03*
%TD*%
D12*
%TO.N,Net-(J1-Pad2)*%
X87515700Y-41757600D02*
X87515700Y-40119300D01*
X49276000Y-55372162D02*
X49276000Y-60960000D01*
X64563763Y-40084399D02*
X49276000Y-55372162D01*
X87480799Y-40084399D02*
X64563763Y-40084399D01*
X87515700Y-40119300D02*
X87480799Y-40084399D01*
X49276000Y-60960000D02*
X49276000Y-83820000D01*
%TO.N,Net-(J5-Pad2)*%
X86131400Y-49504600D02*
X74676000Y-60960000D01*
X86131400Y-44602400D02*
X86131400Y-49504600D01*
X74676000Y-60960000D02*
X74676000Y-83820000D01*
%TO.N,Net-(J10-Pad2)*%
X88900000Y-46736000D02*
X103124000Y-60960000D01*
X88900000Y-44602400D02*
X88900000Y-46736000D01*
X103124000Y-60960000D02*
X103124000Y-83820000D01*
%TO.N,Net-(J14-Pad2)*%
X90284300Y-41757600D02*
X90284300Y-39890700D01*
X128524000Y-55372162D02*
X128524000Y-60960000D01*
X113042538Y-39890700D02*
X128524000Y-55372162D01*
X90284300Y-39890700D02*
X113042538Y-39890700D01*
X128524000Y-60960000D02*
X128524000Y-83820000D01*
%TD*%
M02*
