M48
; DRILL file {KiCad (5.1.10)-1} date 01/22/22 17:55:36
; FORMAT={-:-/ absolute / inch / decimal}
; #@! TF.CreationDate,2022-01-22T17:55:36-06:00
; #@! TF.GenerationSoftware,Kicad,Pcbnew,(5.1.10)-1
FMAT,2
INCH
T1C0.0430
T2C0.0550
T3C0.1200
%
G90
G05
T1
X2.519Y-1.756
X2.5735Y-1.644
X2.628Y-1.756
X2.6825Y-1.644
X2.737Y-1.756
X2.7915Y-1.644
X2.846Y-1.756
X2.9005Y-1.644
X2.955Y-1.756
X3.0095Y-1.644
X3.064Y-1.756
X3.1185Y-1.644
X3.173Y-1.756
X3.2275Y-1.644
X3.282Y-1.756
X3.3365Y-1.644
X3.391Y-1.756
X3.4455Y-1.644
X3.5Y-1.756
X3.5545Y-1.644
X3.609Y-1.756
X3.6635Y-1.644
X3.718Y-1.756
X3.7725Y-1.644
X3.827Y-1.756
X3.8815Y-1.644
X3.936Y-1.756
X3.9905Y-1.644
X4.045Y-1.756
X4.0995Y-1.644
X4.154Y-1.756
X4.2085Y-1.644
X4.263Y-1.756
X4.3175Y-1.644
X4.372Y-1.756
X4.4265Y-1.644
X4.481Y-1.756
T2
X1.94Y-2.4
X1.94Y-2.7
X1.94Y-3.0
X1.94Y-3.3
X2.16Y-2.4
X2.16Y-2.7
X2.16Y-3.0
X2.16Y-3.3
X2.94Y-2.4
X2.94Y-2.7
X2.94Y-3.0
X2.94Y-3.3
X3.16Y-2.4
X3.16Y-2.7
X3.16Y-3.0
X3.16Y-3.3
X3.84Y-2.4
X3.84Y-2.7
X3.84Y-3.0
X3.84Y-3.3
X4.06Y-2.4
X4.06Y-2.7
X4.06Y-3.0
X4.06Y-3.3
X4.84Y-2.4
X4.84Y-2.7
X4.84Y-3.0
X4.84Y-3.3
X5.06Y-2.4
X5.06Y-2.7
X5.06Y-3.0
X5.06Y-3.3
T3
X2.25Y-1.7
X4.75Y-1.7
T0
M30
